<svg width="21" height="21" viewBox="0 0 21 21" fill="none" xmlns="http://www.w3.org/2000/svg">
<path fill-rule="evenodd" clip-rule="evenodd" d="M13.753 17.9976H7.23933C4.84758 17.9976 3.0104 17.1333 3.53171 13.6552L4.13898 8.94134C4.4568 7.20552 5.56754 6.5415 6.53884 6.5415H14.4811C15.467 6.5415 16.5096 7.25498 16.8809 8.94134L17.4881 13.6552C17.9309 16.7409 16.1456 17.9976 13.753 17.9976Z" stroke="white" stroke-linecap="round" stroke-linejoin="round"/>
<path d="M13.878 6.37118C13.878 4.50967 12.3692 3.00003 10.5068 3.00003C8.64533 2.99192 7.1292 4.49427 7.12109 6.35659C7.12109 6.36146 7.12109 6.36632 7.12109 6.37118" stroke="white" stroke-linecap="round" stroke-linejoin="round"/>
<path d="M12.7649 10.2329C12.7649 11.4815 11.7531 12.4933 10.5045 12.4933C9.25675 12.499 8.24005 11.4912 8.23438 10.2427V10.2329" stroke="white" stroke-linecap="round" stroke-linejoin="round"/>
</svg>
