<svg xmlns="http://www.w3.org/2000/svg" width="24.38" height="23.362" viewBox="0 0 24.38 23.362"><defs><style>.a{fill:none;stroke:#0a2540;stroke-linecap:round;stroke-linejoin:round;stroke-width:2px;}</style></defs><g transform="translate(1 1)"><path class="a" d="M14.035,31.017A1.017,1.017,0,1,1,13.017,30,1.017,1.017,0,0,1,14.035,31.017Z" transform="translate(-4.879 -10.672)"/><path class="a" d="M30.535,31.017A1.017,1.017,0,1,1,29.517,30,1.017,1.017,0,0,1,30.535,31.017Z" transform="translate(-10.19 -10.672)"/><path class="a" d="M1.5,1.5H5.569L8.3,15.121a2.035,2.035,0,0,0,2.035,1.638h9.888a2.035,2.035,0,0,0,2.035-1.638L23.88,6.586H6.586" transform="translate(-1.5 -1.5)"/></g></svg>