<svg width="25" height="24" viewBox="0 0 25 24" fill="none" xmlns="http://www.w3.org/2000/svg">
<path d="M6.94434 8.67704C6.94434 12.7157 11.7127 16.5762 12.6214 16.5762C13.5301 16.5762 18.2984 12.7157 18.2984 8.67704C18.2984 5.54129 15.7561 3 12.6214 3C9.4866 3 6.94434 5.54129 6.94434 8.67704Z" stroke="#959595" stroke-width="1.5" stroke-linecap="round" stroke-linejoin="round"/>
<path fill-rule="evenodd" clip-rule="evenodd" d="M14.5152 8.63063C14.5152 7.5857 13.6677 6.73828 12.6228 6.73828C11.5779 6.73828 10.7305 7.5857 10.7305 8.63063C10.7305 9.67555 11.5779 10.523 12.6228 10.523C13.6677 10.523 14.5152 9.67555 14.5152 8.63063Z" stroke="#959595" stroke-width="1.5" stroke-linecap="round" stroke-linejoin="round"/>
<path d="M19.0729 15.5742C20.0701 16.1337 20.6578 16.8332 20.6578 17.5979C20.6578 18.3626 20.0701 19.0612 19.0729 19.6206C18.7275 19.8259 18.3451 20.003 17.9073 20.1616C16.4995 20.684 14.6528 21.0012 12.6292 21.0012C10.6064 21.0012 8.75982 20.684 7.35199 20.1616C6.9132 20.003 6.52209 19.8172 6.1767 19.6206C5.17945 19.0612 4.5918 18.3626 4.5918 17.5979C4.5918 16.8332 5.17945 16.1337 6.1767 15.5742" stroke="#959595" stroke-width="1.5" stroke-linecap="round" stroke-linejoin="round"/>
</svg>
