<svg width="24" height="24" viewBox="0 0 24 24" fill="none" xmlns="http://www.w3.org/2000/svg">
<path d="M8.50898 20.244C11.8405 21.7286 15.9153 21.1559 18.665 18.5064C22.1765 15.124 22.1823 9.63558 18.665 6.24658C15.1535 2.86507 9.44888 2.86507 5.93738 6.24658C3.18773 8.89611 2.59227 12.8202 4.13445 16.0293C4.33196 16.5045 4.48569 16.8859 4.48569 17.2561C4.48569 18.2908 3.44947 19.572 4.14028 20.2375C4.8311 20.9029 6.16117 19.9048 7.2295 19.8991C7.61286 19.8991 8.01665 20.0528 8.50898 20.244Z" stroke="#FF0013" stroke-linecap="round" stroke-linejoin="round"/>
<path d="M12.0762 16.084L12.082 16.1178" stroke="#FF0013" stroke-linecap="round" stroke-linejoin="round"/>
<path d="M12.0767 13.9257C12.066 13.1376 12.8104 12.8039 13.364 12.4993C14.0383 12.1413 14.4956 11.5705 14.4956 10.7794C14.4956 9.60699 13.5109 8.66602 12.3015 8.66602C11.0843 8.66602 10.1074 9.60699 10.1074 10.7794" stroke="#FF0013" stroke-linecap="round" stroke-linejoin="round"/>
</svg>
