<svg width="21" height="22" viewBox="0 0 21 22" fill="none" xmlns="http://www.w3.org/2000/svg">
<path d="M17.9353 8.25732C17.9353 8.25732 17.3471 15.5536 17.0059 18.627C16.8434 20.0949 15.9366 20.9551 14.4514 20.9822C11.6249 21.0331 8.79527 21.0363 5.96993 20.9767C4.54102 20.9475 3.64943 20.0765 3.49018 18.6346C3.14677 15.5341 2.56177 8.25732 2.56177 8.25732" stroke="white" stroke-width="1.5" stroke-linecap="round" stroke-linejoin="round"/>
<path d="M19.4339 4.75977H1.06274" stroke="white" stroke-width="1.5" stroke-linecap="round" stroke-linejoin="round"/>
<path d="M15.894 4.75973C15.0436 4.75973 14.3113 4.15848 14.1444 3.3254L13.8812 2.00806C13.7187 1.40031 13.1683 0.97998 12.5411 0.97998H7.95533C7.32808 0.97998 6.77775 1.40031 6.61525 2.00806L6.352 3.3254C6.18517 4.15848 5.45283 4.75973 4.60242 4.75973" stroke="white" stroke-width="1.5" stroke-linecap="round" stroke-linejoin="round"/>
</svg>
