<svg xmlns="http://www.w3.org/2000/svg" width="60" height="60" viewBox="0 0 60 60">
  <g id="Group_5" data-name="Group 5" transform="translate(0 0)">
    <rect id="Rectangle_23" data-name="Rectangle 23" width="42.426" height="42.426" rx="10" transform="translate(0 30) rotate(-45)" fill="#bfd326"/>
    <path id="Path_9" data-name="Path 9" d="M6.463-11.757q-1.376-.25-2.814-.438A4.492,4.492,0,0,1,1.21-13.258a25.571,25.571,0,0,1-2.564-3,4.906,4.906,0,0,1-.938-3.627q0-.25.063-1.063a1.771,1.771,0,0,1,.313-1.063l.25-.75q.625-1.5.875-2T.335-26.639a26.451,26.451,0,0,1,5.5-6,19.789,19.789,0,0,1,2.251-1.688,28.133,28.133,0,0,1,2.751-1.563,2.138,2.138,0,0,0,1-.375,2.563,2.563,0,0,1,2.063.125,5.947,5.947,0,0,1,1.688,1.125l.5,1.251a5.547,5.547,0,0,1-1.5,4.877,41.431,41.431,0,0,1-2.939,3.126q-1.563,1.5-3.314,2.876a3.266,3.266,0,0,1-.688.5,3.265,3.265,0,0,0-.688.5,1.522,1.522,0,0,1-.938.438q-.563.063-1.188.188a1.181,1.181,0,0,1-1.751-.375l-.5-.375h-.25a.111.111,0,0,0-.125.125,3.725,3.725,0,0,0-.688,2q-.063,1.125-.063,2a2.894,2.894,0,0,0,.875,1.376,2.685,2.685,0,0,0,1.188.875,3.841,3.841,0,0,0,1.313.25,5.936,5.936,0,0,0,1.376.125A17.71,17.71,0,0,1,8.4-15.384a6.543,6.543,0,0,0,2.439-.5,51.98,51.98,0,0,0,8.379-2.751q3.752-1.626,7.628-3.376,2-1,3.689-1.938t3.439-1.813q1.125-.625,1.376-.813t1.5-1.063q.625-.625.688-.563a3.141,3.141,0,0,0,1.063-.313q.25-.25.188-.063a.957.957,0,0,0,.063.563q.125.5.313,1.188a.913.913,0,0,1-.313,1.063q-.875.875-.75.938t-.75.813A31.133,31.133,0,0,1,33.6-21.636q-1.876,1-3.877,2.251-1.376.625-2.564,1.251t-2.314,1.125q-2.5,1-5.065,2.063a32.866,32.866,0,0,1-5.315,1.688l-3.627,1a12.785,12.785,0,0,1-2.126.438Q7.963-11.757,6.463-11.757ZM4.837-25.138a22.8,22.8,0,0,0,4-3,40.565,40.565,0,0,0,3.627-3.877.555.555,0,0,0-.25.063.555.555,0,0,1-.25.063A16.57,16.57,0,0,0,7.9-29.515a9.842,9.842,0,0,0-2.689,3.5Q5.087-26.013,4.837-25.138Z" transform="translate(20.784 54.106)" fill="#fff"/>
  </g>
</svg>
