<svg xmlns="http://www.w3.org/2000/svg" width="79.756" height="79.756" viewBox="0 0 79.756 79.756"><defs><style>.a{fill:#d8e0f0;}.b{fill:#b8c4db;}.c{fill:#eaecf2;}.d{fill:#008cdc;}.e{fill:#f3f5f9;}</style></defs><g transform="translate(27.215)"><g transform="translate(17.492)"><path class="a" d="M287,0h4.673V9.346H287Z" transform="translate(-287)"/></g><g transform="translate(0 6.034)"><path class="a" d="M0,0H4.673V9.345H0Z" transform="translate(0 3.304) rotate(-45)"/></g><g transform="translate(29.734 6.038)"><path class="b" d="M0,0H9.345V4.673H0Z" transform="translate(0 6.607) rotate(-45)"/></g></g><g transform="translate(17.322 23.678)"><path class="a" d="M111.2,152l11.73,37.386h40.049L173.634,152Z" transform="translate(-111.2 -152)"/></g><path class="b" d="M302,189.386h22.058L334.712,152H302Z" transform="translate(-254.957 -128.322)"/><path class="c" d="M26.014,143.405a2.337,2.337,0,1,1,0-4.673h3.038L18.78,97.327v.009A7.006,7.006,0,0,0,11.995,92H7.01A7.018,7.018,0,0,0,0,99.01H4.673A2.34,2.34,0,0,1,7.01,96.673h4.985A2.427,2.427,0,0,1,14.42,99.01l8.806,35.634a7.005,7.005,0,0,0,2.788,13.434H63.4v-4.673Z" transform="translate(0 -77.669)"/><path class="a" d="M302,422h16.356v4.673H302Z" transform="translate(-254.957 -356.264)"/><g transform="translate(56.39 65.736)"><path class="d" d="M369.01,436.02a7.01,7.01,0,1,1,7.01-7.01A7.018,7.018,0,0,1,369.01,436.02Z" transform="translate(-362 -422)"/></g><g transform="translate(28.351 65.736)"><path class="d" d="M189.01,436.02a7.01,7.01,0,1,1,7.01-7.01A7.018,7.018,0,0,1,189.01,436.02Z" transform="translate(-182 -422)"/></g><ellipse class="e" cx="2.5" cy="2" rx="2.5" ry="2" transform="translate(32.878 70.878)"/><ellipse class="a" cx="2.5" cy="2" rx="2.5" ry="2" transform="translate(60.878 70.878)"/><g transform="translate(47.043)"><path class="b" d="M302,0h2.337V9.346H302Z" transform="translate(-302)"/></g></svg>