<svg width="25" height="24" viewBox="0 0 25 24" fill="none" xmlns="http://www.w3.org/2000/svg">
<path fill-rule="evenodd" clip-rule="evenodd" d="M8.10408 4.38462C7.48836 4.38462 6.94895 4.90798 6.94895 5.60442C6.94895 6.29974 7.48816 6.82332 8.10408 6.82332H10.5141C10.4175 6.54919 10.2896 6.23734 10.1256 5.92893C9.65247 5.03891 9.0003 4.38462 8.10408 4.38462ZM11.4299 7.51563C12.1095 7.38422 12.1095 7.38399 12.1094 7.38374L12.1091 7.38177L12.1083 7.37793L12.1059 7.36612L12.0976 7.3266C12.0905 7.29342 12.08 7.24684 12.0659 7.18873C12.0379 7.07265 11.9953 6.9098 11.9359 6.71561C11.8178 6.32973 11.6292 5.80766 11.3483 5.279C10.8051 4.25737 9.79444 3 8.10408 3C6.67925 3 5.56433 4.18846 5.56433 5.60442C5.56433 7.01969 6.67946 8.20794 8.10408 8.20794H11.4299C11.6364 8.20794 11.8323 8.11564 11.9639 7.95626C12.0953 7.79688 12.1487 7.58661 12.1094 7.38374L11.4299 7.51563Z" fill="#FF0013"/>
<path fill-rule="evenodd" clip-rule="evenodd" d="M11.5106 5.27903C12.0537 4.25739 13.0643 3 14.7547 3C16.1795 3 17.2944 4.18846 17.2944 5.60442C17.2944 7.01969 16.1793 8.20794 14.7547 8.20794H11.4291C11.2225 8.20794 11.0267 8.11564 10.8951 7.95628C10.7637 7.79691 10.7102 7.58712 10.7494 7.38425L11.4291 7.51563C10.7494 7.38426 10.7494 7.3845 10.7494 7.38425L10.7498 7.38181L10.7507 7.37797L10.753 7.36615L10.7614 7.32664C10.7685 7.29346 10.7789 7.24686 10.7929 7.18876C10.821 7.07269 10.8636 6.90984 10.923 6.71564C11.0411 6.32976 11.2296 5.80769 11.5106 5.27903ZM12.3449 6.82332H14.7547C15.3706 6.82332 15.9098 6.29974 15.9098 5.60442C15.9098 4.90798 15.3704 4.38462 14.7547 4.38462C13.8585 4.38462 13.2063 5.03889 12.7332 5.9289C12.5693 6.23733 12.4415 6.54918 12.3449 6.82332Z" fill="#FF0013"/>
<path fill-rule="evenodd" clip-rule="evenodd" d="M4.06036 8.05756C4.75809 7.26625 5.7574 6.82227 6.9334 6.82227H15.929C17.1047 6.82227 18.1038 7.26632 18.8013 8.05761C19.4909 8.83979 19.8393 9.9068 19.8393 11.0864V16.7338C19.8393 17.9147 19.4888 18.9818 18.7986 19.7638C18.1007 20.5545 17.102 20.9989 15.929 20.9989H6.93251C5.75685 20.9989 4.75775 20.5549 4.06017 19.7634C3.37064 18.9811 3.02222 17.9138 3.02222 16.7338V11.0864C3.02222 9.9068 3.37068 8.83975 4.06036 8.05756ZM5.09892 8.97329C4.67538 9.45363 4.40683 10.1726 4.40683 11.0864V16.7338C4.40683 17.6483 4.67543 18.3674 5.0989 18.8478C5.51431 19.3191 6.12421 19.6142 6.93251 19.6142H15.929C16.7337 19.6142 17.344 19.3195 17.7606 18.8474C18.1851 18.3666 18.4547 17.6474 18.4547 16.7338V11.0864C18.4547 10.1726 18.1862 9.45361 17.7627 8.97324C17.3473 8.502 16.7373 8.20688 15.929 8.20688H6.9334C6.12456 8.20688 5.51442 8.50206 5.09892 8.97329Z" fill="#FF0013"/>
<path fill-rule="evenodd" clip-rule="evenodd" d="M3.02222 13.6405C3.02223 13.2582 3.33219 12.9482 3.71453 12.9482H19.1497C19.532 12.9482 19.842 13.2582 19.842 13.6405C19.842 14.0229 19.532 14.3329 19.1497 14.3329H3.71452C3.33217 14.3329 3.02222 14.0229 3.02222 13.6405Z" fill="#FF0013"/>
<path fill-rule="evenodd" clip-rule="evenodd" d="M11.4291 6.82617C11.8115 6.82617 12.1214 7.13613 12.1214 7.51848V20.3051C12.1214 20.6874 11.8115 20.9974 11.4291 20.9974C11.0468 20.9974 10.7368 20.6874 10.7368 20.3051V7.51848C10.7368 7.13613 11.0468 6.82617 11.4291 6.82617Z" fill="#FF0013"/>
</svg>
