<svg width="25" height="24" viewBox="0 0 25 24" fill="none" xmlns="http://www.w3.org/2000/svg">
<path d="M16.9941 2.75L16.2131 3.531C15.8071 3.937 15.5791 4.487 15.5791 5.062V6.86" stroke="#959595" stroke-width="1.5" stroke-linecap="round" stroke-linejoin="round"/>
<path d="M11.29 11.6013L10.862 8.22035C10.763 7.50135 11.322 6.86035 12.048 6.86035H19.972C20.698 6.86035 21.258 7.50235 21.158 8.22235L19.495 20.2173C19.413 20.8093 18.907 21.2503 18.309 21.2503H12.805" stroke="#959595" stroke-width="1.5" stroke-linecap="round" stroke-linejoin="round"/>
<path fill-rule="evenodd" clip-rule="evenodd" d="M12.8061 21.2506H6.17405C4.88005 21.2506 3.83105 20.2016 3.83105 18.9076V16.7696C3.83105 13.9146 6.14505 11.6016 8.99905 11.6016H9.98105C12.8361 11.6016 15.1491 13.9146 15.1491 16.7696V18.9076C15.1491 20.2016 14.1001 21.2506 12.8061 21.2506Z" stroke="#959595" stroke-width="1.5" stroke-linecap="round" stroke-linejoin="round"/>
<path d="M9.14941 17.2295H15.1274" stroke="#959595" stroke-width="1.5" stroke-linecap="round" stroke-linejoin="round"/>
<path d="M3.83105 17.2295H5.96005" stroke="#959595" stroke-width="1.5" stroke-linecap="round" stroke-linejoin="round"/>
<path d="M11.2217 10.3545H20.8517" stroke="#959595" stroke-width="1.5" stroke-linecap="round" stroke-linejoin="round"/>
</svg>
