<svg width="90" height="90" viewBox="0 0 90 90" fill="none" xmlns="http://www.w3.org/2000/svg">
<path fill-rule="evenodd" clip-rule="evenodd" d="M45 0C20.1477 0 0 20.1477 0 45C0 69.8523 20.1477 90 45 90C69.8523 90 90 69.8523 90 45C90 20.1477 69.8523 0 45 0ZM60.165 35.6195C60.9102 34.848 61.3225 33.8146 61.3132 32.742C61.3039 31.6694 60.8737 30.6433 60.1152 29.8848C59.3567 29.1263 58.3306 28.6961 57.258 28.6868C56.1854 28.6775 55.152 29.0898 54.3805 29.835L45 39.2155L35.6195 29.835C35.2422 29.4443 34.7908 29.1326 34.2917 28.9182C33.7925 28.7038 33.2557 28.591 32.7125 28.5862C32.1694 28.5815 31.6307 28.685 31.1279 28.8907C30.6252 29.0964 30.1684 29.4002 29.7843 29.7843C29.4002 30.1684 29.0964 30.6252 28.8907 31.1279C28.685 31.6307 28.5815 32.1694 28.5862 32.7125C28.591 33.2557 28.7038 33.7925 28.9182 34.2917C29.1326 34.7908 29.4443 35.2422 29.835 35.6195L39.2155 45L29.835 54.3805C29.4443 54.7578 29.1326 55.2092 28.9182 55.7083C28.7038 56.2075 28.591 56.7443 28.5862 57.2874C28.5815 57.8306 28.685 58.3693 28.8907 58.8721C29.0964 59.3748 29.4002 59.8316 29.7843 60.2157C30.1684 60.5998 30.6252 60.9036 31.1279 61.1093C31.6307 61.315 32.1694 61.4185 32.7125 61.4138C33.2557 61.409 33.7925 61.2962 34.2917 61.0818C34.7908 60.8674 35.2422 60.5557 35.6195 60.165L45 50.7845L54.3805 60.165C55.152 60.9102 56.1854 61.3225 57.258 61.3132C58.3306 61.3039 59.3567 60.8737 60.1152 60.1152C60.8737 59.3567 61.3039 58.3306 61.3132 57.258C61.3225 56.1854 60.9102 55.152 60.165 54.3805L50.7845 45L60.165 35.6195Z" fill="#F12727"/>
</svg>
