<svg xmlns="http://www.w3.org/2000/svg" width="18.93" height="21.026" viewBox="0 0 18.93 21.026"><defs><style>.a{fill:none;stroke:#fff;stroke-linecap:round;stroke-linejoin:round;}</style></defs><g transform="translate(-4 -2.477)"><path class="a" d="M22.43,16.941V8.975a1.991,1.991,0,0,0-1-1.723L14.461,3.27a1.993,1.993,0,0,0-1.992,0L5.5,7.253a1.991,1.991,0,0,0-1,1.723v7.965a1.991,1.991,0,0,0,1,1.723l6.973,3.983a1.993,1.993,0,0,0,1.992,0l6.973-3.983a1.991,1.991,0,0,0,1-1.723Z" transform="translate(0 0)"/><path class="a" d="M4.905,10.44,13.573,16,22.24,10.44" transform="translate(-0.108 -2.674)"/><path class="a" d="M18,29.1V18" transform="translate(-4.535 -6.1)"/></g></svg>