<svg width="172" height="172" viewBox="0 0 172 172" fill="none" xmlns="http://www.w3.org/2000/svg">
<mask id="mask0_1346_42176" style="mask-type:luminance" maskUnits="userSpaceOnUse" x="0" y="0" width="172" height="172">
<path d="M171.083 0H0.917969V171.172H171.083V0Z" fill="white"/>
</mask>
<g mask="url(#mask0_1346_42176)">
<path d="M145.837 63.3864L145.898 63.536V63.5444C146.287 64.6166 146.233 65.7491 145.823 66.7292C145.395 67.7568 144.571 68.6224 143.458 69.0804L143.309 69.1411H143.3C142.235 69.5318 141.109 69.4785 140.135 69.0661C139.113 68.6349 138.252 67.8068 137.797 66.6864L137.737 66.5366V66.5284C137.348 65.4562 137.402 64.3237 137.811 63.3435C138.24 62.3153 139.064 61.4498 140.176 60.9924L140.325 60.9317H140.334C141.4 60.5408 142.526 60.5943 143.499 61.0065C144.522 61.4379 145.383 62.266 145.837 63.3864ZM144.394 63.9483C144.101 63.2461 143.551 62.7245 142.898 62.4489C142.237 62.1697 141.471 62.143 140.76 62.4347L140.736 62.4454C140.038 62.7394 139.519 63.2926 139.244 63.9489C138.967 64.6142 138.941 65.3842 139.231 66.1L139.24 66.122C139.533 66.8254 140.083 67.3481 140.737 67.6235C141.398 67.903 142.163 67.9297 142.875 67.638L142.896 67.6278C143.596 67.3344 144.115 66.7819 144.389 66.1237C144.668 65.4584 144.694 64.6886 144.403 63.9733L144.394 63.9483Z" fill="#9FBEFF"/>
<path d="M142.138 108.047C142.138 108.504 141.77 108.874 141.316 108.874C140.862 108.874 140.494 108.504 140.494 108.047V101.683C140.494 101.226 140.862 100.855 141.316 100.855C141.77 100.855 142.138 101.226 142.138 101.683V108.047ZM144.479 104.038C144.933 104.038 145.301 104.408 145.301 104.865C145.301 105.321 144.933 105.691 144.479 105.691H138.153C137.699 105.691 137.331 105.321 137.331 104.865C137.331 104.408 137.699 104.038 138.153 104.038H144.479Z" fill="#9FBEFF"/>
<path d="M26.9112 62.0069C26.9112 62.4638 26.5433 62.8339 26.0893 62.8339C25.6356 62.8339 25.2677 62.4638 25.2677 62.0069V55.6428C25.2677 55.1865 25.6356 54.8164 26.0893 54.8164C26.5433 54.8164 26.9112 55.1865 26.9112 55.6428V62.0069ZM29.2528 57.9986C29.7069 57.9986 30.0748 58.3689 30.0748 58.825C30.0748 59.2811 29.7069 59.6514 29.2528 59.6514H22.926C22.4724 59.6514 22.1045 59.2811 22.1045 58.825C22.1045 58.3689 22.4724 57.9986 22.926 57.9986H29.2528Z" fill="#9FBEFF"/>
<path d="M30.9483 107.579L31.0097 107.729V107.737C31.3984 108.81 31.3439 109.942 30.9353 110.922C30.506 111.95 29.6826 112.816 28.5696 113.273L28.4207 113.334H28.4119C27.3458 113.725 26.2202 113.671 25.2465 113.26C24.2241 112.828 23.3637 112 22.9083 110.88L22.8481 110.73V110.722C22.4591 109.649 22.5131 108.517 22.9225 107.537C23.3514 106.509 24.1751 105.643 25.2876 105.186L25.4365 105.125H25.4453C26.512 104.734 27.637 104.788 28.6109 105.2C29.6336 105.631 30.494 106.46 30.9483 107.579ZM29.505 108.142C29.2121 107.44 28.6629 106.918 28.0096 106.642C27.3483 106.363 26.5834 106.336 25.8718 106.628L25.8476 106.639C25.1494 106.932 24.6304 107.485 24.3564 108.143C24.0788 108.807 24.0523 109.577 24.3427 110.293L24.3517 110.316C24.6446 111.019 25.1939 111.542 25.8481 111.817C26.509 112.097 27.2744 112.123 27.986 111.831L28.0084 111.822C28.7071 111.528 29.2261 110.975 29.5008 110.317C29.7789 109.651 29.8055 108.882 29.5148 108.166L29.505 108.142Z" fill="#9FBEFF"/>
<path d="M17.4906 88.7242C18.1194 88.7242 18.6332 88.2079 18.6332 87.5747C18.6332 86.942 18.1194 86.4258 17.4906 86.4258C16.8615 86.4258 16.3477 86.942 16.3477 87.5747C16.3477 88.2079 16.8615 88.7242 17.4906 88.7242Z" fill="#9FBEFF"/>
<path d="M20.0199 129.114C20.6489 129.114 21.1625 128.597 21.1625 127.963C21.1625 127.331 20.6489 126.814 20.0199 126.814C19.3908 126.814 18.877 127.331 18.877 127.963C18.877 128.597 19.3908 129.114 20.0199 129.114Z" fill="#9FBEFF"/>
<path d="M43.1832 52.5543C43.8123 52.5543 44.3259 52.0381 44.3259 51.4048C44.3259 50.7714 43.8123 50.2559 43.1832 50.2559C42.5542 50.2559 42.041 50.7714 42.041 51.4048C42.041 52.0381 42.5542 52.5543 43.1832 52.5543Z" fill="#9FBEFF"/>
<path d="M130.918 56.8509C131.547 56.8509 132.061 56.3343 132.061 55.701C132.061 55.0682 131.547 54.5527 130.918 54.5527C130.289 54.5527 129.774 55.0682 129.774 55.701C129.774 56.3343 130.289 56.8509 130.918 56.8509Z" fill="#9FBEFF"/>
<path d="M151.881 89.3981C152.51 89.3981 153.024 88.8819 153.024 88.2487C153.024 87.616 152.51 87.0996 151.881 87.0996C151.252 87.0996 150.738 87.616 150.738 88.2487C150.738 88.8819 151.252 89.3981 151.881 89.3981Z" fill="#9FBEFF"/>
<path d="M143.668 125.65C144.297 125.65 144.811 125.134 144.811 124.501C144.811 123.868 144.297 123.352 143.668 123.352C143.039 123.352 142.525 123.868 142.525 124.501C142.525 125.134 143.039 125.65 143.668 125.65Z" fill="#9FBEFF"/>
<path d="M42.041 75.2852H127.319C127.32 75.2852 127.322 75.2858 127.322 75.2871V124.557C127.322 126.787 125.509 128.611 123.292 128.611H46.0703C43.8539 128.611 42.041 126.787 42.041 124.557V75.2852Z" fill="#9FBEFF"/>
<path d="M84.6807 75.2852H127.318C127.32 75.2852 127.321 75.2864 127.321 75.2877V124.557C127.321 126.787 125.508 128.611 123.291 128.611H88.7101C86.4935 128.611 84.6807 126.787 84.6807 124.557V75.2852Z" fill="#80B0FF"/>
<path d="M42.041 80.0751H84.6811V75.2852H42.041V80.0751Z" fill="#63A2FF"/>
<path d="M127.321 80.0751H84.6807V75.2852H127.321V80.0751Z" fill="#63A2FF"/>
<path d="M59.1064 75.5156H67.617V124.788C67.617 127.017 69.4307 128.842 71.6463 128.842H63.1359C60.9195 128.842 59.1064 127.017 59.1064 124.788V75.5156Z" fill="#FFF6E8"/>
<path d="M59.1064 80.0732H67.6169V75.2832H59.1064V80.0732Z" fill="#D3E1F6"/>
<path d="M110.257 75.5156H101.746V124.788C101.746 127.017 99.9332 128.842 97.7168 128.842H106.227C108.444 128.842 110.257 127.017 110.257 124.788V75.5156Z" fill="#E4DDD2"/>
<path d="M101.746 80.0732H110.257V75.2832H101.746V80.0732Z" fill="#B3CAEA"/>
<path d="M40.2249 62.3887H129.135C130.841 62.3887 132.237 63.7931 132.237 65.5103V73.0233C132.237 74.7409 130.841 76.1452 129.135 76.1452H40.2249C38.5181 76.1452 37.1221 74.7409 37.1221 73.0233V65.5103C37.1221 63.7931 38.5181 62.3887 40.2249 62.3887Z" fill="#9FBEFF"/>
<path d="M84.6806 62.3887H129.134C130.842 62.3887 132.238 63.7935 132.238 65.5103V73.0233C132.238 74.7409 130.842 76.1452 129.134 76.1452H84.6806C82.9738 76.1452 81.5771 74.7409 81.5771 73.0233V65.5103C81.5771 63.7935 82.9738 62.3887 84.6806 62.3887Z" fill="#80B0FF"/>
<path d="M59.1048 62.3887H67.6154C65.9085 62.3887 64.5126 63.7935 64.5126 65.5103V73.0233C64.5126 74.7409 65.9085 76.1452 67.6154 76.1452H59.1048C57.3979 76.1452 56.002 74.7409 56.002 73.0233V65.5103C56.002 63.7935 57.3979 62.3887 59.1048 62.3887Z" fill="#FFF6E8"/>
<path d="M110.256 62.3887H101.745C103.452 62.3887 104.849 63.7935 104.849 65.5103V73.0233C104.849 74.7409 103.452 76.1452 101.745 76.1452H110.256C111.963 76.1452 113.359 74.7409 113.359 73.0233V65.5103C113.359 63.7935 111.963 62.3887 110.256 62.3887Z" fill="#E4DDD2"/>
<path d="M85.4017 60.0992C84.7925 56.6018 83.2959 53.473 81.697 50.3636C79.7137 46.262 78.0201 42.0019 75.355 38.2348C71.5646 32.8642 66.459 27.834 59.8415 32.9416C57.2652 34.9069 55.8864 37.2405 55.4545 39.685C56.4984 39.4962 57.6675 39.6356 58.7322 39.9286C64.9767 41.7845 69.8641 47.3837 73.975 52.1662C75.7024 54.1922 77.4965 55.9932 79.3085 57.898C79.8952 58.5151 80.9407 59.6285 81.5126 60.7304C82.6557 60.7055 83.7959 60.5979 84.9247 60.3964L85.4017 60.0992Z" fill="#FFF6E8"/>
<path d="M73.9334 52.161C69.8223 47.3747 64.9344 41.7709 58.6928 39.9104C57.6287 39.6166 56.4599 39.4766 55.417 39.6649C54.7558 43.4217 56.3498 47.4442 59.4348 50.8158C64.9186 56.7321 73.2741 60.9085 81.4714 60.7322C80.899 59.6297 79.8536 58.5151 79.267 57.8977C77.4547 55.9912 75.661 54.1886 73.9334 52.161Z" fill="#E4DDD2"/>
<path d="M82.4248 60.0511C83.3418 56.6177 85.1087 53.6289 86.9763 50.6676C89.3148 46.7507 91.3787 42.6507 94.3654 39.1251C98.616 34.0984 104.143 29.525 110.276 35.1815C112.665 37.3617 113.83 39.8051 114.043 42.2784C113.021 42.0008 111.845 42.0386 110.759 42.2404C104.379 43.5539 99.018 48.7137 94.501 53.1263C92.6019 54.9971 90.6575 56.6383 88.6834 58.381C88.046 58.9445 86.9055 59.9656 86.2388 61.0139C85.1037 60.8908 83.978 60.6855 82.8728 60.3882L82.4248 60.0511Z" fill="#FFF6E8"/>
<path d="M94.5628 53.1795C99.0782 48.7672 104.437 43.6076 110.815 42.2953C111.902 42.0934 113.077 42.056 114.099 42.3339C114.426 46.1347 112.485 50.0049 109.117 53.097C103.135 58.5164 94.4493 61.9531 86.3038 61.0665C86.9702 60.0182 88.1102 58.9972 88.7473 58.4337C90.7207 56.6911 92.6645 55.0501 94.5628 53.1795Z" fill="#E4DDD2"/>
<path d="M84.093 58.8066C80.6897 58.8066 77.9307 60.5065 77.9307 62.6032H90.2553C90.2553 60.5065 87.4963 58.8066 84.093 58.8066Z" fill="#FFF6E8"/>
</g>
</svg>
