<svg width="53" height="45" viewBox="0 0 53 45" fill="none" xmlns="http://www.w3.org/2000/svg">
<mask id="mask0_1346_10785" style="mask-type:luminance" maskUnits="userSpaceOnUse" x="0" y="0" width="53" height="45">
<path d="M0 0H52.3678V45H0V0Z" fill="white"/>
</mask>
<g mask="url(#mask0_1346_10785)">
<path fill-rule="evenodd" clip-rule="evenodd" d="M47.6141 5.59198C45.7128 4.57714 43.5122 4.14942 41.3657 4.33185C40.2685 4.42571 39.1846 4.67898 38.1644 5.09165C37.5268 5.34934 36.8804 5.91875 36.1524 5.8541C35.2341 5.77263 35.1013 4.42217 34.7852 3.71993C34.4247 2.92294 34.0121 2.13215 33.4586 1.4485C32.9795 0.855186 32.3685 0.331828 31.6167 0.128152C30.7559 -0.102091 29.8677 0.140549 29.1026 0.551444C28.3481 0.956139 27.6468 1.45382 27.0074 2.02234C26.5442 2.43412 26.2033 2.93268 25.7968 3.40202C25.7428 3.4649 25.6879 3.52688 25.6304 3.58799C25.3098 3.93335 25.0379 4.26897 24.7882 4.68784C24.5845 5.03232 24.3995 5.40425 24.2117 5.74961C23.9762 6.18264 23.6379 6.52092 23.4599 6.98052C23.2792 7.4472 23.0933 7.92806 22.9232 8.4036C22.7311 8.94112 22.5407 9.49105 22.4291 10.0481C22.36 10.3872 22.3211 10.7538 22.0829 11.0399C21.8181 11.3578 21.2929 11.364 20.9308 11.5004C20.434 11.6881 20.3463 12.0423 19.9868 12.3027C19.6635 12.5373 19.2925 12.3 18.9958 12.1406C18.4858 11.8687 17.9376 11.5942 17.3824 11.4242C16.8679 11.2666 16.3153 11.0744 15.8017 10.8752C15.3164 10.6874 14.8329 10.4474 14.3325 10.2898C13.8083 10.126 13.2548 10.0622 12.7421 9.90637C11.9947 9.6779 11.2721 9.54684 10.4875 9.56012C9.65951 9.57429 8.83418 9.74166 8.07703 10.0791C6.69558 10.6945 6.06684 11.8519 6.54415 13.3033C6.7682 13.9887 7.15075 14.6184 7.5581 15.2081C7.822 15.5916 8.20101 15.9423 8.34801 16.3939C8.59154 17.1386 7.9442 17.2564 7.37745 17.4734C5.69757 18.1145 4.28955 19.302 3.06661 20.5887C1.80824 21.9126 0.173521 23.79 0.0167789 25.6921C0.000838921 25.8781 0.197431 26.0118 0.365685 25.9348C0.864248 25.7054 1.36458 25.4787 1.87377 25.2768C2.16158 25.1617 2.73452 24.8128 3.03738 24.8296C3.79541 24.8704 3.33316 25.9543 3.26143 26.3607C3.13479 27.0701 3.10026 27.79 3.19147 28.5064C3.21981 28.7225 3.52001 28.773 3.63601 28.6029C4.69247 27.0585 5.97032 25.724 7.42527 24.5462C8.17445 23.9396 8.99358 23.4375 9.84193 22.9824C10.244 22.7672 10.6593 22.5343 11.0976 22.4041C12.4375 22.0065 11.4775 24.0193 11.342 24.595C11.0357 25.8949 10.8098 27.2117 10.5796 28.5268C10.0828 31.3676 9.56918 34.305 8.47022 36.4569C7.78392 37.8038 6.93556 38.7203 5.87822 39.2614C5.58068 39.4119 5.36549 39.6298 5.25302 39.8901C5.02986 40.4188 5.27073 40.9351 5.93224 41.3433C6.11732 41.4576 6.30594 41.5381 6.50962 41.6223C6.88155 41.8082 7.38188 41.9907 7.99556 42.1624C8.41089 42.2882 8.90768 42.4113 9.47531 42.5273C12.0647 43.0622 15.861 43.4465 19.6325 43.5581L19.691 43.5598C20.0302 43.5696 20.3684 43.5758 20.7049 43.5811C21.3124 43.5899 21.9279 43.5917 22.5345 43.5873L22.7842 43.5829C22.8852 43.7378 22.9994 43.8831 23.1225 44.0141C23.6857 44.6066 24.4473 44.9466 25.2673 44.9705L25.3116 44.9723C26.4619 44.9891 27.5113 44.3692 28.0603 43.3535C30.833 43.1064 32.7874 42.684 33.5569 42.1669L33.6136 42.1394C33.6517 42.1217 33.6897 42.1031 33.7252 42.0827C34.3388 41.7392 34.5965 41.199 34.3805 40.7084C34.2777 40.4711 34.0696 40.2576 33.765 40.077C32.8246 39.5164 32.0763 38.5831 31.4785 37.2202C31.2164 36.6216 31.0092 35.9999 30.8321 35.3703C30.74 35.0418 30.3034 34.2076 30.6957 33.9224C31.0995 33.6284 32.3127 35.0639 32.62 35.357C33.4621 36.1637 34.268 37.0245 34.9153 37.9968C35.7522 39.2552 36.1356 40.4409 36.0878 41.6231C36.0719 41.9543 36.156 42.2483 36.3287 42.4742C36.6802 42.9284 37.2505 42.9745 37.9333 42.6043C38.1254 42.5007 38.2893 42.3776 38.4637 42.2421C38.81 42.0128 39.2156 41.671 39.6698 41.2247C39.9851 40.9271 40.3375 40.5587 40.7201 40.1266C42.4655 38.1509 44.6776 35.0577 46.6364 31.852L46.6674 31.8015C46.8428 31.5137 47.0155 31.2242 47.1864 30.9355C47.4945 30.4148 47.8001 29.8834 48.0958 29.3565L48.2154 29.1396C48.4005 29.129 48.5829 29.1006 48.7591 29.059C49.5561 28.8651 50.2291 28.3745 50.6551 27.6775L50.6781 27.6395C51.2608 26.6539 51.2377 25.4398 50.6196 24.4639C51.7744 21.9445 52.3686 20.0459 52.2969 19.1249L52.3013 19.062C52.3048 19.0204 52.3075 18.9797 52.3066 18.9372C52.3101 18.2376 51.9648 17.7479 51.429 17.6921C51.1704 17.6647 50.8809 17.739 50.5718 17.9126C49.6181 18.4501 48.4323 18.6361 46.9464 18.4794C44.5377 18.2252 41.7101 17.1014 38.9649 16.0131C38.1865 15.7032 37.2204 15.6066 37.4197 14.5847C37.5295 14.0268 37.641 13.5017 37.6322 12.927C37.618 12.0768 37.3453 11.2648 38.1361 10.6414C38.4717 10.3775 39.0172 10.2526 39.4219 10.1446C40.3083 9.90637 41.224 9.81604 42.129 9.66816C43.7921 9.39718 45.4817 9.28649 47.1589 9.1262C47.3918 9.10406 47.4078 8.80563 47.2554 8.68431C46.6922 8.23711 46.0723 7.84659 45.3993 7.58358C44.8255 7.35953 44.7715 6.98938 45.3887 6.75913C46.1264 6.48373 46.6949 6.07372 47.5167 6.03387C47.7274 6.02413 47.7956 5.68939 47.6141 5.59198Z" fill="#550000"/>
</g>
<path fill-rule="evenodd" clip-rule="evenodd" d="M24.4168 17.6932C23.5331 18.1979 22.3588 17.7977 21.3971 17.0086C19.9351 15.8105 18.9566 13.7153 20.2185 12.5295C20.3531 12.4056 20.5142 12.2488 20.7073 12.2488C21.1323 12.2488 21.0031 12.9325 21.0615 13.1972C21.1625 13.6418 21.3794 14.081 21.7026 14.4104C21.9355 14.6451 22.2712 14.2608 22.0409 14.0252C21.6389 13.6179 21.4086 12.9581 21.5468 12.3976C21.7088 11.7405 22.5094 11.7742 23.0664 11.961C23.1647 11.992 23.2559 12.0301 23.3329 12.0682C24.7542 12.7748 26.2446 16.6473 24.4168 17.6932Z" fill="#FF0005"/>
<path fill-rule="evenodd" clip-rule="evenodd" d="M28.0077 41.9962C27.9917 42.5036 27.8288 42.9774 27.5578 43.3741C27.0725 44.0949 26.2313 44.566 25.2802 44.5528C24.5709 44.5324 23.9156 44.2384 23.4276 43.7257C22.9423 43.2147 22.6855 42.5443 22.7068 41.8403C22.7094 41.7571 22.7148 41.6747 22.7263 41.5924C22.7688 41.2523 22.8812 40.9229 23.053 40.6245C23.1611 40.4438 23.2859 40.2747 23.4312 40.1224C23.5029 40.0453 23.5799 39.9727 23.6632 39.9081C23.7163 39.862 23.7739 39.8425 23.8403 39.8177L23.9076 39.792C24.0183 39.7487 24.0874 39.7292 24.1768 39.7309C24.1963 39.7292 24.2184 39.7327 24.2423 39.7354L24.7382 39.7929C25.0526 39.8328 25.3696 39.8753 25.684 39.9205C26.0568 39.9762 26.4332 40.0347 26.8042 40.102L26.9344 40.1215C27.0637 40.1418 27.1859 40.1596 27.2992 40.2056C27.4551 40.2694 27.5401 40.4146 27.6473 40.597C27.8961 41.0194 28.0227 41.5047 28.0077 41.9962Z" fill="#FFCA27"/>
<path fill-rule="evenodd" clip-rule="evenodd" d="M29.4845 30.8091C29.4367 30.3486 29.3818 29.8935 29.3172 29.4348L29.2791 29.1567C28.963 26.8649 28.6636 24.6988 28.1137 22.8959C27.5726 21.1186 26.8509 19.9514 25.9034 19.3333C25.6714 19.1881 25.4243 19.0526 25.1702 18.9286C25.0435 18.8649 24.9125 18.8046 24.7787 18.7471C24.6884 18.7072 24.5945 18.6674 24.498 18.6311C24.3935 18.5868 24.2864 18.5478 24.1757 18.508C24.0437 18.4611 23.9056 18.415 23.7648 18.3716C23.5044 18.291 23.2388 18.2193 22.9687 18.1564C22.4312 18.0298 22.1664 17.9988 21.8184 18.4788C21.5766 18.8135 21.4756 19.2315 21.3588 19.6193C21.2826 19.8646 21.1781 20.1108 21.0816 20.3499C20.3846 22.0635 19.2326 23.9771 17.3118 24.4828C16.3182 24.744 15.3202 24.5536 14.4665 24.0055C13.8945 23.6415 13.4428 23.1651 12.9886 22.6683C12.2535 21.8678 11.871 23.9098 11.7134 24.7945C11.6868 24.9379 11.6673 25.0504 11.6523 25.1168C11.4468 26.0458 11.2768 26.98 11.1121 27.9169C11.0713 28.1392 11.0341 28.365 10.9934 28.5882L10.8083 29.6455L10.7145 30.1609C10.7083 30.1884 10.7012 30.2211 10.6888 30.261C10.6684 30.3327 10.5365 30.8463 10.5754 30.8862L10.5976 30.8871C10.6604 30.8888 10.7189 30.8508 10.7579 30.8277C10.8969 30.7445 11.0156 30.6807 11.1351 30.6258C11.3645 30.5196 11.6195 30.4248 11.9126 30.3371C12.4687 30.1751 13.0408 30.0759 13.5341 29.9962L14.1185 29.9014C15.8108 29.619 17.6023 29.4888 19.4486 29.518C19.639 29.5189 19.833 29.5242 20.0233 29.5304C21.7962 29.5888 23.5186 29.7819 25.1542 30.1113C25.4234 30.1636 25.6873 30.2211 25.9521 30.2822L26.3054 30.3619C26.5082 30.4071 26.7119 30.4558 26.9156 30.5036C27.4557 30.632 27.9906 30.7808 28.4989 30.9969C28.6751 31.0721 29.3003 31.5123 29.4509 31.4086C29.5908 31.3112 29.5005 30.9482 29.4845 30.8091ZM33.9973 40.8743C33.93 40.7158 33.7794 40.5679 33.5519 40.4333C32.5317 39.8258 31.7285 38.8286 31.0945 37.3852C30.9537 37.0602 30.8341 36.7228 30.7208 36.3978L30.611 36.087C30.51 35.8089 30.3161 35.4414 30.0398 35.3431L29.9326 35.3051C28.7974 34.8791 27.585 34.6471 26.4117 34.423L26.2647 34.3929L26.2231 34.3841C25.3127 34.2096 24.4059 34.0671 23.5053 33.959C22.2133 33.7952 20.9328 33.6996 19.6744 33.6694L19.3255 33.6632C17.2463 33.6314 15.1821 33.7607 13.1905 34.0485L12.8114 34.0989C12.2217 34.1831 11.6089 34.2663 11.0129 34.4053C10.6906 34.4806 10.4045 34.5621 10.1415 34.6551C9.86523 34.7551 9.66332 34.826 9.53226 35.05C9.53226 35.05 9.39589 35.4848 9.37021 35.5335L9.31619 35.6256C9.21169 35.8027 9.12314 36.0091 9.04078 36.2039C8.97968 36.3535 8.91503 36.5032 8.84242 36.6458C8.11627 38.0724 7.2077 39.0474 6.06977 39.6318C5.85724 39.739 5.71289 39.8798 5.64028 40.0516C5.50922 40.3598 5.65887 40.6591 6.07774 40.938C6.10076 40.9549 6.12733 40.9708 6.15301 40.9876C6.21411 41.0248 6.27344 41.0434 6.33101 41.0461C6.47801 41.0478 6.61084 40.9327 6.73836 40.822C6.94469 40.6458 7.18379 40.5006 7.49373 40.3651C8.04011 40.1286 8.81497 39.8984 9.74036 39.7036C12.1836 39.1882 15.4327 38.9331 18.8943 38.9854C19.1803 38.9907 19.4725 38.9942 19.7665 39.004L19.8268 39.0066C20.862 39.0359 21.8795 39.0943 22.8509 39.1767C23.307 39.213 25.3535 39.4565 26.0238 39.5486C27.6709 39.7762 28.9603 40.079 29.93 40.3668C31.0174 40.6865 31.7064 40.9903 32.0464 41.1603C32.367 41.3215 32.6194 41.4791 32.7947 41.6296C32.8514 41.6783 32.8815 41.7403 32.9125 41.797C32.9382 41.8457 32.9621 41.8918 32.9949 41.9245C33.0152 41.9378 33.0356 41.9475 33.0604 41.9475C33.1392 41.9475 33.2384 41.8785 33.3128 41.8289L33.3526 41.7997C33.3526 41.7997 33.4881 41.735 33.5191 41.7191C33.8494 41.5331 34.1478 41.2143 33.9973 40.8743Z" fill="#FFCA27"/>
<path fill-rule="evenodd" clip-rule="evenodd" d="M50.2978 27.4641C49.9295 28.0654 49.3468 28.487 48.6587 28.657C48.2655 28.7517 47.8626 28.7579 47.4791 28.6729C47.1896 28.6118 46.9124 28.5038 46.6547 28.347C46.2907 28.1274 45.979 27.8139 45.7638 27.4482C45.6567 27.2658 45.5726 27.0745 45.5088 26.8717C45.4796 26.7717 45.4539 26.6716 45.4362 26.568C45.4238 26.4989 45.4344 26.4378 45.4468 26.3696L45.4557 26.2979C45.4743 26.1819 45.4893 26.1137 45.5336 26.0358C45.5451 26.0163 45.5566 25.9986 45.5717 25.9782L45.8675 25.5815C46.0578 25.3273 46.25 25.0758 46.4466 24.827C46.6786 24.5286 46.9168 24.2346 47.1577 23.9459L47.2409 23.844C47.3198 23.7413 47.395 23.6448 47.4942 23.5695C47.6253 23.4677 47.7935 23.465 48.006 23.4632C48.3815 23.457 48.7508 23.5323 49.0917 23.6802C49.1998 23.7271 49.3051 23.782 49.407 23.8423C50.6388 24.5861 51.047 26.1952 50.2978 27.4641Z" fill="#FFCA27"/>
<path fill-rule="evenodd" clip-rule="evenodd" d="M51.6258 20.0711C51.6072 20.049 51.5815 20.0321 51.5417 20.0197C51.3699 19.9631 51.1458 20.1207 50.9802 20.234L50.9094 20.2845C50.6765 20.4368 50.4383 20.6166 50.1593 20.8522C49.7892 21.1586 49.4093 21.5066 48.9975 21.9166C48.9753 21.9414 48.9505 21.9644 48.9284 21.9892C48.7274 22.1893 48.5326 22.3948 48.3377 22.6038C48.3085 22.6356 48.2687 22.6728 48.2262 22.7091C48.1536 22.7782 48.0712 22.8535 48.0313 22.9172L47.9738 22.8818L48.0216 22.9367C48.0349 23.0147 48.0783 23.0403 48.1279 23.0457C48.2031 23.0581 48.2766 23.0643 48.3537 23.0704C48.4467 23.0775 48.5397 23.0846 48.6344 23.1023L48.6486 23.1068C48.9931 23.1758 49.3207 23.3042 49.6244 23.4858C49.7573 23.5646 49.8839 23.6585 50.0052 23.7576C50.0256 23.7745 50.0469 23.7939 50.0681 23.8161C50.1372 23.8825 50.2151 23.9587 50.286 23.9525C50.3152 23.9489 50.3515 23.9383 50.3913 23.8666C50.4152 23.8285 50.433 23.7869 50.448 23.747C50.448 23.747 50.6003 23.391 50.6667 23.236C50.7863 22.9509 50.9049 22.664 51.0156 22.3744C51.1653 21.9865 51.3548 21.472 51.4992 20.9496C51.5487 20.7609 51.5957 20.5723 51.6258 20.3802C51.6515 20.2261 51.6692 20.1269 51.6258 20.0711ZM47.5806 29.1294C47.5505 29.1046 47.5018 29.0993 47.4487 29.0904L47.3822 29.0807C47.2733 29.0559 47.1644 29.0258 47.0581 28.9903C46.8412 28.9195 46.6331 28.823 46.4365 28.7043C46.3984 28.6804 46.3612 28.6574 46.3267 28.6335C45.9999 28.4183 45.7174 28.1376 45.4996 27.8126C45.3827 27.6399 45.2791 27.4495 45.2003 27.2485L45.179 27.1971C45.1338 27.0767 45.0718 26.9146 44.9629 26.9137C44.8894 26.9128 44.8416 26.9828 44.7832 27.0802L44.7433 27.144C44.1952 27.9383 43.6461 28.7822 43.1112 29.6536L43.0802 29.7059C42.9279 29.9556 42.78 30.2 42.6357 30.4444C40.8983 33.3835 39.5283 36.2934 38.7827 38.6286C38.7632 38.6844 38.7473 38.7402 38.7304 38.796C38.4798 39.5974 38.3222 40.2944 38.27 40.8159L38.262 40.8762C38.2452 41.0356 38.2257 41.1994 38.3036 41.3304C38.3302 41.3738 38.3603 41.4031 38.4125 41.4385C38.5321 41.5217 38.6383 41.5164 38.7871 41.427C38.8075 41.411 38.8296 41.396 38.8526 41.3774C39.0687 41.2153 39.2653 41.0338 39.43 40.877C41.3136 39.0147 43.8941 35.5142 46.3364 31.5177C46.5543 31.1582 46.7694 30.8022 46.9775 30.4488C47.1405 30.1734 47.3017 29.8954 47.4619 29.6173C47.5558 29.4588 47.6931 29.2241 47.5806 29.1294ZM31.9401 41.5775L31.8604 41.5394C31.6115 41.4146 31.3361 41.2986 30.9943 41.171C30.5418 41.0046 30.0503 40.8487 29.488 40.6946C29.4552 40.684 29.4189 40.6769 29.3844 40.6672C29.1107 40.5928 28.838 40.5273 28.5626 40.4626C28.5201 40.4529 28.4696 40.436 28.4138 40.4201C28.3182 40.3882 28.211 40.3555 28.1349 40.3546L28.1366 40.2837L28.1127 40.3546C28.0525 40.4033 28.0525 40.4546 28.0711 40.5016C28.0959 40.5724 28.1269 40.6371 28.1614 40.7044C28.1986 40.7814 28.2358 40.8593 28.2606 40.9408L28.2712 40.9638C28.3855 41.3021 28.4368 41.6546 28.4253 42.0105C28.4209 42.1646 28.4041 42.3205 28.3748 42.4746C28.3695 42.5003 28.3642 42.5277 28.3536 42.5587C28.3323 42.6499 28.3049 42.7553 28.3456 42.8137C28.3616 42.8368 28.3881 42.8607 28.4705 42.8633C28.5165 42.8642 28.5626 42.8571 28.6024 42.8536C28.6024 42.8536 28.9903 42.8075 29.1568 42.7889C29.4694 42.7509 29.7784 42.7101 30.0839 42.6641C30.4975 42.603 31.0403 42.5127 31.5699 42.3798C31.7603 42.3285 31.9489 42.278 32.1296 42.2089C32.2775 42.154 32.3713 42.1212 32.4005 42.0557C32.4112 42.0274 32.4112 41.9946 32.4041 41.9548C32.3678 41.7803 32.1198 41.6634 31.9401 41.5775ZM23.1253 39.6727C23.0917 39.6081 23.0067 39.6027 22.8898 39.5983L22.8163 39.5948C21.8528 39.5151 20.8424 39.4557 19.816 39.4247L19.7531 39.423C19.4609 39.4159 19.1722 39.4088 18.888 39.4035C15.6477 39.3574 12.597 39.5797 10.2353 40.0331C10.0962 40.0597 9.96253 40.0862 9.82881 40.1155C8.92733 40.3032 8.17904 40.5237 7.66276 40.7531L7.60786 40.7743C7.4582 40.8381 7.30677 40.9036 7.23062 41.0356C7.20759 41.0781 7.19519 41.1206 7.18988 41.1834C7.1766 41.3278 7.23239 41.4172 7.3847 41.4996C7.4095 41.5111 7.43252 41.5226 7.46174 41.5332C7.70881 41.6395 7.96651 41.7192 8.18258 41.7847C10.7418 42.4905 15.0783 42.9962 19.7788 43.1343C20.1995 43.1449 20.6192 43.1556 21.031 43.1618C21.3524 43.1653 21.6739 43.1671 21.9954 43.168C22.1804 43.1724 22.4558 43.175 22.4797 43.0298C22.4868 42.9935 22.4682 42.9466 22.4505 42.897L22.4284 42.8341C22.393 42.7296 22.3655 42.618 22.3443 42.5091C22.3009 42.2859 22.2814 42.0584 22.2894 41.8325C22.292 41.7785 22.2947 41.7236 22.2973 41.6696C22.331 41.2924 22.4364 40.9195 22.6046 40.5813C22.6985 40.3935 22.8136 40.212 22.9491 40.042L22.9854 39.9977C23.066 39.9003 23.1784 39.7683 23.1253 39.6727Z" fill="#EB6E1B"/>
<path fill-rule="evenodd" clip-rule="evenodd" d="M29.9753 33.8765C29.9062 33.4497 29.9062 32.8626 29.7521 32.3791C29.6538 32.0665 29.4891 31.799 29.1995 31.6485C28.5026 31.2606 27.7269 31.041 26.9503 30.8586C26.8865 30.8435 26.8192 30.8258 26.7545 30.8099C26.6323 30.7842 26.5128 30.755 26.3906 30.7293L26.039 30.6496C24.1546 30.2201 22.1541 29.9677 20.0979 29.8986C19.8907 29.8916 19.6799 29.8845 19.4727 29.8827C17.6467 29.8544 15.865 29.9801 14.1745 30.2529L13.7857 30.3113C13.5174 30.3538 13.2464 30.3937 12.9763 30.4441C12.5353 30.5221 11.9588 30.6425 11.4107 30.8524C10.8058 31.0897 10.4321 31.281 10.2169 31.9186C10.1009 32.2622 9.91054 32.6217 9.86538 32.9998C9.8459 33.1645 9.80339 33.401 9.78568 33.6303C9.77151 33.8181 9.7724 33.9996 9.81225 34.1307C9.92205 34.4991 10.2798 34.3379 10.5844 34.2617C11.3 34.0873 11.9827 33.8889 12.7266 33.7862L13.3553 33.6985C15.2716 33.4267 17.2464 33.3027 19.2256 33.3337C19.4815 33.3355 19.7383 33.3434 19.9978 33.3532C21.9717 33.4196 23.9925 33.6516 26.0071 34.0412L26.279 34.0961C26.3153 34.1032 26.3516 34.1103 26.387 34.1183C27.1282 34.26 27.8712 34.4043 28.5991 34.608C28.8533 34.6779 29.8398 35.1021 30.0789 34.8763C30.2525 34.7098 30.0089 34.0811 29.9753 33.8765ZM44.253 18.4335C44.237 18.3839 44.2114 18.3405 44.1804 18.2997C44.0245 18.0961 43.6933 18.0004 43.4737 17.9216C42.9096 17.7241 42.1268 17.3726 41.4839 17.4726C41.328 17.4983 41.1801 17.5479 41.0473 17.6338L40.9472 17.6976C40.0989 18.205 39.4179 18.9533 38.7564 19.675L38.5155 19.9362C37.2067 21.3567 35.997 22.9595 34.9211 24.704C34.8139 24.8794 34.7059 25.0582 34.6005 25.2389C33.6733 26.8037 32.902 28.4047 32.3069 29.9996L32.1661 30.3644V30.3671C32.105 30.5247 32.0448 30.685 31.9872 30.8453C31.9501 30.9409 31.9155 31.0366 31.8819 31.1313C31.7349 31.552 31.5524 32.1107 31.4674 32.6872C31.4046 33.1291 31.3231 33.494 31.5622 33.904C31.7845 34.283 32.1546 34.5557 32.4592 34.8648C32.7497 35.1588 33.4891 35.8256 33.9071 35.4174C34.1232 35.2075 34.1002 34.6168 34.1905 34.3344C34.2507 34.1448 34.3162 33.9545 34.3853 33.7658C34.4792 33.5081 34.5792 33.2522 34.6829 32.9954L34.9166 32.4127C35.6224 30.6204 36.4929 28.8528 37.4962 27.1526C37.6246 26.9347 37.7584 26.7142 37.8921 26.4981C38.9291 24.8218 40.1299 23.1906 41.4617 21.6436L41.645 21.4328C42.1604 20.8315 42.6785 20.2293 43.2443 19.6706C43.5056 19.4155 44.384 18.8541 44.253 18.4335Z" fill="#FFCA27"/>
<path fill-rule="evenodd" clip-rule="evenodd" d="M40.3565 17.0404C40.0129 16.8898 39.6666 16.7473 39.3213 16.61C39.2389 16.5746 39.1539 16.54 39.0716 16.5073L38.8085 16.4028C38.519 16.2868 38.1506 16.076 37.7981 15.9565C37.6325 15.8989 37.4678 15.8644 37.3182 15.8653C36.8125 15.8706 36.5663 16.3603 36.2661 16.687C35.8854 17.1024 35.4355 17.4522 34.9422 17.732C33.5068 18.5529 31.5966 18.6104 30.0186 18.2279C29.3243 18.0596 28.6673 17.8577 28.0562 17.4787C27.5833 17.1865 27.1344 16.8801 26.6367 16.633C26.1585 16.393 25.9672 16.5197 25.6369 16.9279C25.5342 17.051 25.435 17.1776 25.3367 17.306C25.2428 17.4318 25.1463 17.5628 25.0533 17.693C24.7567 18.1172 24.878 18.3218 25.3562 18.56C25.6245 18.691 25.884 18.8336 26.1302 18.9859C27.1654 19.6625 27.9455 20.9022 28.5149 22.777C29.0737 24.618 29.3739 26.7973 29.6954 29.1042C29.8344 30.1111 29.9035 31.179 30.1497 32.1673C30.2134 32.4294 30.4401 32.905 30.6969 33.0272C31.2681 33.2964 31.1831 32.3488 31.2663 31.9999C31.3965 31.4403 31.5931 30.8965 31.7658 30.4307L31.772 30.4166L31.9721 29.8773C32.1014 29.5239 32.2404 29.1688 32.391 28.8164C32.9108 27.5642 33.5395 26.3129 34.2683 25.0811C34.3666 24.9173 34.4649 24.7535 34.5632 24.5897C35.6436 22.8363 36.8479 21.237 38.1506 19.8334L38.3941 19.5686C38.9113 19.0098 39.4249 18.4457 40.0324 17.9835C40.1847 17.8692 40.8772 17.5478 40.8621 17.368C40.8453 17.1962 40.484 17.0953 40.3565 17.0404ZM51.3842 18.1083C51.2133 18.0897 51.0096 18.1473 50.7776 18.2784C49.7424 18.8602 48.4752 19.0612 46.9016 18.8965C46.5474 18.8584 46.1922 18.7946 45.8513 18.7335L45.5245 18.6733C45.2341 18.6228 44.8161 18.6087 44.5921 18.7982L44.507 18.8743C43.5755 19.6439 42.774 20.5764 41.9974 21.4823L41.8725 21.6275C40.4087 23.3304 39.1088 25.1157 38.0133 26.9355L37.8353 27.2339C36.9941 28.6526 36.2475 30.1164 35.6082 31.5961C35.4435 31.9716 35.2876 32.3497 35.1397 32.7296L34.9998 33.0812C34.9759 33.1405 34.9538 33.1963 34.9299 33.2556C34.7306 33.7542 34.5331 34.266 34.3773 34.7894C34.2834 35.1047 34.2134 35.3898 34.1639 35.6652C34.116 35.9521 34.0797 36.1638 34.2108 36.3869C34.2108 36.3869 34.5234 36.719 34.5526 36.7677L34.6049 36.8572C34.7093 37.0369 34.8466 37.2132 34.9777 37.3814C35.0769 37.5098 35.176 37.6382 35.2655 37.7702C36.1528 39.1056 36.5601 40.371 36.5052 41.6427C36.4955 41.8791 36.5469 42.0748 36.6593 42.2227C36.7558 42.3467 36.8825 42.4175 37.0366 42.4326C37.2261 42.4521 37.4599 42.3892 37.7335 42.2404C37.7955 42.205 37.8406 42.166 37.8716 42.1164C37.9434 41.9907 37.9106 41.8207 37.8778 41.6533C37.8238 41.3876 37.8159 41.1096 37.8513 40.7757C37.9106 40.1851 38.0957 39.4022 38.3808 38.5052C39.1371 36.1399 40.5203 33.2016 42.2737 30.2333C42.4189 29.9889 42.5686 29.7418 42.7218 29.4921L42.7546 29.4398C43.2912 28.5596 43.8447 27.7077 44.3955 26.9071C44.6558 26.5326 45.8734 24.8828 46.287 24.3506C48.4398 21.5708 50.0727 20.3382 50.6731 19.937C50.9715 19.7395 51.2328 19.5978 51.4515 19.5234C51.5224 19.4969 51.5914 19.5013 51.6561 19.5031C51.711 19.5057 51.7632 19.5066 51.8084 19.4933C51.8314 19.4836 51.8491 19.4712 51.8606 19.4482C51.9005 19.3818 51.8881 19.2613 51.8828 19.1728L51.8775 19.1214C51.8775 19.1214 51.8872 18.9992 51.8854 18.9505L51.8872 18.9399C51.8881 18.5626 51.7579 18.1482 51.3842 18.1083Z" fill="#FFCA27"/>
<path fill-rule="evenodd" clip-rule="evenodd" d="M21.347 17.7511C21.3267 18.2381 21.1044 18.7765 20.9477 19.2379C20.6085 20.243 20.1489 21.2207 19.5166 22.0752C19.0375 22.7172 18.4593 23.2875 17.7827 23.7179C16.4942 24.5406 15.3289 24.15 14.306 23.2618C12.7802 21.9397 11.5662 19.5133 10.716 18.3665C9.20972 16.328 4.25153 11.9463 8.8555 10.3187C10.5761 9.71296 12.3755 10.2399 14.0218 10.7924C14.0475 10.8013 14.0749 10.8093 14.1006 10.8208C14.3574 10.9147 14.6124 11.0386 14.8746 11.1024C15.1163 11.1608 15.3289 11.2458 15.5591 11.3176C16.0851 11.4867 16.6067 11.6762 17.1185 11.8675C17.3869 11.9667 17.6534 12.049 17.9173 12.1615C18.2494 12.3023 18.5877 12.4192 18.8321 12.6875C19.0517 12.931 19.2775 13.597 18.724 13.4172C18.4655 13.3349 18.1812 13.3508 17.9147 13.3039C17.502 13.2277 17.0982 13.1604 16.6758 13.1312C16.21 13.0984 15.7344 13.0249 15.2677 13.032C15.0632 13.0355 14.6036 13.0099 14.453 13.1923C14.1803 13.5244 15.1801 13.4792 15.3085 13.4863C15.8664 13.5102 16.4287 13.496 16.9831 13.5456C17.4249 13.581 17.9324 13.5616 18.3557 13.7183C18.6266 13.8192 18.9304 14.0256 18.9286 14.3453C18.9321 15.1918 17.804 15.4797 17.185 15.6913C16.6997 15.8542 16.1861 15.9933 15.7442 16.2616C15.5848 16.3581 15.3085 16.5414 15.2713 16.7451C15.1916 17.1781 16.0532 16.7486 16.2233 16.6805C16.8759 16.4245 17.5365 16.1934 18.1856 15.9331C18.508 15.8038 18.9073 15.6895 19.227 15.8941C20.2197 16.5211 18.9012 18.0663 18.4601 18.626C18.276 18.858 18.0253 19.191 18.0067 19.4983C17.9784 19.9853 18.5319 19.3043 18.6133 19.1848C18.7931 18.9111 18.9994 18.6605 19.2005 18.4028C19.4378 18.1018 19.6362 17.7626 19.8877 17.4677C20.0444 17.2871 20.2197 17.1082 20.4491 17.032C20.9335 16.8629 21.3665 17.2569 21.347 17.7511Z" fill="#C50000"/>
<path fill-rule="evenodd" clip-rule="evenodd" d="M11.6866 21.577C11.3802 22.119 10.1731 22.2678 9.63297 22.5423C8.86077 22.931 8.1355 23.4021 7.44301 23.9158C6.7018 24.4613 6.00753 25.0687 5.36374 25.7267C5.03254 26.065 4.70755 26.413 4.40558 26.7805C4.15851 27.086 3.73699 27.6466 3.67323 26.9187C3.62275 26.3395 3.86362 25.6346 4.07527 25.013C4.14522 24.8137 4.2081 24.6242 4.26212 24.4506C4.31348 24.2806 4.17799 24.0902 3.98848 24.1283C3.35532 24.2487 2.73366 24.4329 2.12883 24.6543C1.83217 24.7615 1.46024 25.0493 1.13259 25.0156C0.502966 24.9527 0.917403 24.2602 1.1016 23.9175C1.75513 22.6955 2.71861 21.6629 3.66526 20.6649C4.41089 19.8812 5.24153 19.1648 6.17224 18.6034C6.3157 18.5166 6.46979 18.4263 6.63804 18.3315C7.36065 17.9259 8.27011 17.5133 9.02814 17.5558C10.1067 17.6169 10.6885 19.225 11.1366 20.0176C11.3872 20.4674 12.0036 21.0138 11.6866 21.577Z" fill="#C50000"/>
<path fill-rule="evenodd" clip-rule="evenodd" d="M37.1107 13.0397C37.1063 14.9179 36.374 16.6058 34.1379 17.5409C32.6741 18.1546 30.9668 17.9784 29.48 17.5595C28.4333 17.2628 27.5415 16.6377 26.6675 16.0187C26.2521 15.7255 25.743 15.474 25.3728 15.1366C25.062 14.8533 25.1222 14.5221 25.3808 14.2157C25.6447 13.9084 26.0051 13.8358 26.4151 13.834C27.2316 13.8278 28.0401 13.9722 28.8415 14.1192C29.2435 14.1962 29.6456 14.2715 30.0485 14.3317C30.2061 14.3547 30.9146 14.53 31.0306 14.3857C31.1404 14.2484 30.8703 14.1307 30.7746 14.0997C30.5028 14.0147 30.1893 13.9854 29.9095 13.9642C29.3303 13.9173 28.7609 13.8809 28.1853 13.8119C27.6974 13.7561 27.2192 13.7074 26.7365 13.6135C26.4594 13.5595 26.1565 13.5232 25.8988 13.3939C25.6234 13.2531 25.4073 13.1034 25.4649 12.7705C25.5844 12.0718 26.2008 11.6954 26.8162 11.4271C27.5707 11.0994 28.3553 10.8772 29.1488 10.6735C29.3879 10.6124 31.3857 9.85878 30.9615 9.41778C30.7676 9.21765 30.3611 9.40007 30.1494 9.46649C29.8041 9.57895 29.4711 9.73304 29.1532 9.9066C28.683 10.1634 28.1835 10.4264 27.6894 10.639C27.0863 10.9002 26.5152 11.1853 25.874 11.3341C25.4826 11.4235 24.7839 11.5484 24.8087 10.9613C24.822 10.654 25.0053 10.3795 25.1452 10.1191C25.3825 9.6737 25.603 9.2575 25.8917 8.84218C26.1654 8.44722 26.6781 7.8973 26.6958 7.38899C26.7162 6.78416 25.8342 7.62189 25.7252 7.75472C25.3223 8.25594 25.0416 8.8404 24.7095 9.3921C24.3721 9.95265 24.1339 10.5495 23.8311 11.1233C23.5273 11.6936 22.9021 11.5891 22.8224 10.9418C22.764 10.4548 22.9588 9.96771 23.0961 9.51076C23.3334 8.73502 23.615 7.97168 23.9506 7.23048C24.1702 6.74608 24.4093 6.27409 24.675 5.81272C25.5464 4.29312 26.6692 2.9152 28.0516 1.82332C28.8273 1.2123 29.7111 0.728787 30.6949 0.580015C32.0658 0.373682 33.07 1.5736 33.704 2.59464C34.6418 4.11158 35.1076 5.98274 35.7753 7.62809C36.443 9.27964 37.1098 11.2482 37.1107 13.0397Z" fill="#C50000"/>
<path fill-rule="evenodd" clip-rule="evenodd" d="M45.4461 8.79483C44.1594 8.88693 42.8665 9.05252 41.5939 9.26063C40.7288 9.40054 39.8485 9.50947 39.0081 9.7645C38.5875 9.89202 38.143 10.2082 37.6896 10.1683C37.0033 10.1072 36.9661 9.39169 36.7828 8.86213C36.5437 8.17052 36.2142 7.55063 36.5392 6.83954C36.7137 6.45698 37.0254 6.16741 37.3761 5.93628C37.4761 5.87164 37.5762 5.81142 37.6789 5.75474C38.6513 5.22784 39.7927 5.01708 40.8775 4.8692C41.8879 4.73282 42.9143 4.73991 43.9203 4.88602C44.4224 4.95864 44.9201 5.0649 45.408 5.21013C45.6489 5.27832 46.0544 5.44746 46.1333 5.7025C45.934 5.93805 45.8366 6.00447 45.5222 6.15944C44.8191 6.50923 44.0814 6.65357 43.4678 7.16808C43.2942 7.31154 43.4058 7.56126 43.605 7.5958C43.9433 7.65247 44.2771 7.72509 44.6048 7.82073C44.8014 7.88006 44.9953 7.94559 45.1875 8.02175C45.748 8.24579 46.4591 8.72398 45.4461 8.79483Z" fill="#C50000"/>
<path fill-rule="evenodd" clip-rule="evenodd" d="M21.3473 17.7487C21.3269 18.2357 21.1046 18.7741 20.9479 19.2355C20.6087 20.2406 20.1491 21.2182 19.5168 22.0728C19.0377 22.7148 18.4595 23.2851 17.7829 23.7155C16.4945 24.5382 15.3291 24.1476 14.3063 23.2594C14.3541 23.2488 14.4019 23.2391 14.4533 23.2311C15.6789 23.023 16.6246 22.6696 17.72 22.0409C18.4179 21.638 20.1969 20.2636 18.5817 20.2769C17.744 20.2822 15.7612 21.4892 16.2695 19.402C16.5308 18.3207 18.2939 17.3085 15.9702 17.5928C15.1281 17.6929 12.5617 18.1985 13.3844 16.3982C13.9715 15.1097 16.0579 15.8279 14.2558 14.3402C13.0497 13.3448 12.7875 13.2182 13.6448 11.9961C13.8812 11.6587 14.0371 11.2514 14.1008 10.8184C14.3576 10.9122 14.6127 11.0362 14.8748 11.1C15.1165 11.1584 15.3291 11.2434 15.5593 11.3152C16.0853 11.4843 16.6069 11.6738 17.1188 11.8651C17.3871 11.9643 17.6536 12.0466 17.9175 12.1591C18.2496 12.2999 18.5879 12.4168 18.8323 12.6851C19.0519 12.9286 19.2777 13.5946 18.7243 13.4148C18.4657 13.3324 18.1814 13.3484 17.9149 13.3014C17.5022 13.2253 17.0984 13.158 16.676 13.1288C16.2102 13.096 15.7347 13.0225 15.268 13.0296C15.0634 13.0331 14.6038 13.0074 14.4533 13.1899C14.1805 13.5219 15.1803 13.4768 15.3087 13.4839C15.8666 13.5078 16.4289 13.4936 16.9833 13.5432C17.4252 13.5786 17.9326 13.5591 18.3559 13.7159C18.6269 13.8168 18.9306 14.0232 18.9288 14.3428C18.9324 15.1894 17.8042 15.4772 17.1852 15.6889C16.6999 15.8518 16.1863 15.9908 15.7444 16.2592C15.585 16.3557 15.3087 16.539 15.2715 16.7427C15.1918 17.1757 16.0534 16.7462 16.2235 16.678C16.8761 16.4221 17.5367 16.191 18.1858 15.9306C18.5082 15.8013 18.9076 15.6871 19.2273 15.8917C20.22 16.5186 18.9014 18.0639 18.4604 18.6236C18.2762 18.8556 18.0256 19.1886 18.007 19.4958C17.9786 19.9829 18.5321 19.3019 18.6136 19.1824C18.7933 18.9087 18.9997 18.6581 19.2007 18.4004C19.438 18.0993 19.6364 17.7602 19.8879 17.4653C20.0446 17.2846 20.22 17.1057 20.4493 17.0296C20.9337 16.8605 21.3667 17.2545 21.3473 17.7487Z" fill="#960000"/>
<path fill-rule="evenodd" clip-rule="evenodd" d="M37.1107 13.0396C37.1063 14.9178 36.374 16.6057 34.1379 17.5408C32.6741 18.1545 30.9668 17.9783 29.48 17.5594C28.4333 17.2627 27.5415 16.6375 26.6675 16.0186C26.2521 15.7254 25.743 15.4739 25.3728 15.1365C25.062 14.8532 25.1222 14.522 25.3808 14.2156C25.6447 13.9083 26.0051 13.8357 26.4151 13.8339C27.2316 13.8277 28.0401 13.972 28.8415 14.1191C29.2435 14.1961 29.6456 14.2714 30.0485 14.3316C30.2061 14.3546 30.9146 14.5299 31.0306 14.3856C31.1404 14.2483 30.8703 14.1306 30.7746 14.0996C30.5028 14.0146 30.1893 13.9853 29.9095 13.9641C29.3303 13.9171 28.7609 13.8808 28.1853 13.8118C27.6974 13.756 27.2192 13.7073 26.7365 13.6134C26.4594 13.5594 26.1565 13.5231 25.8988 13.3938C25.6234 13.253 25.4073 13.1033 25.4649 12.7704C25.5844 12.0717 26.2008 11.6953 26.8162 11.427C27.5707 11.0993 28.3553 10.8771 29.1488 10.6734C29.3879 10.6123 31.3857 9.85868 30.9615 9.41768C30.7676 9.21754 30.3611 9.39997 30.1494 9.46638C29.8041 9.57885 29.4711 9.73293 29.1532 9.9065C28.683 10.1633 28.1835 10.4263 27.6894 10.6388C27.0863 10.9001 26.5152 11.1852 25.874 11.334C25.4826 11.4234 24.7839 11.5483 24.8087 10.9612C24.822 10.6539 25.0053 10.3794 25.1452 10.119C25.3825 9.6736 25.603 9.25739 25.8917 8.84207C26.1654 8.44712 26.6781 7.89719 26.6958 7.38889C26.7162 6.78406 25.8342 7.62179 25.7252 7.75462C25.3223 8.25584 25.0416 8.8403 24.7095 9.392C24.3721 9.95255 24.1339 10.5494 23.8311 11.1232C23.5273 11.6935 22.9021 11.589 22.8224 10.9417C22.764 10.4547 22.9588 9.9676 23.0961 9.51066C23.3334 8.73492 23.615 7.97158 23.9506 7.23037C24.1702 6.74598 24.4093 6.27398 24.675 5.81261C25.162 6.84516 26.563 5.49647 27.3626 5.57351C29.217 5.74885 27.437 7.45265 27.7638 8.28241C28.188 9.35923 29.9821 8.44623 30.7419 8.33819C31.6779 8.20359 33.0567 8.60563 32.8282 9.9189C32.6095 11.1879 30.7817 11.086 30.3142 11.93C29.665 13.106 32.0295 12.6003 32.1605 13.8304C32.3305 15.4297 30.5639 15.0073 30.1043 15.7609C29.3135 17.0555 31.9285 16.6269 32.4395 16.4826C33.6048 16.1558 34.6321 15.5501 35.584 14.738C35.94 14.4325 36.5112 13.6444 37.1107 13.0396Z" fill="#960000"/>
<path fill-rule="evenodd" clip-rule="evenodd" d="M24.4169 17.695C23.5332 18.1998 22.3589 17.7995 21.3972 17.0105C22.0481 17.3479 22.7973 17.2478 23.6642 16.3171C24.4577 15.4635 24.4284 14.2264 23.9742 13.2478C23.8325 12.945 23.403 12.4553 23.0665 11.9629C23.1648 11.9939 23.256 12.032 23.333 12.07C24.7543 12.7767 26.2447 16.6492 24.4169 17.695Z" fill="#960000"/>
<path fill-rule="evenodd" clip-rule="evenodd" d="M45.4461 8.7941C44.1594 8.88619 42.8665 9.05179 41.5939 9.25989C40.7288 9.39981 39.8485 9.50873 39.0081 9.76377C38.5875 9.89129 38.143 10.2074 37.6896 10.1676C37.0033 10.1065 36.9661 9.39095 36.7828 8.8614C36.5437 8.16978 36.2142 7.5499 36.5392 6.83881C36.7137 6.45625 37.0254 6.16667 37.3761 5.93555C37.2308 6.47042 36.8129 7.54016 37.8366 7.2311C38.5742 7.00883 39.2765 6.61919 40.0416 6.48901C40.3285 6.43942 40.6907 6.35264 40.7633 6.73874C40.843 7.16292 40.2603 7.30195 39.969 7.45338C39.5474 7.67299 38.3387 8.11754 38.9639 8.66835C39.6085 9.23421 40.9679 8.78258 41.6666 8.5913C42.1864 8.44962 42.6991 8.28491 43.218 8.13968C43.5404 8.04935 44.278 7.72081 44.6048 7.81999C44.8014 7.87932 44.9953 7.94485 45.1875 8.02101C45.748 8.24506 46.4591 8.72325 45.4461 8.7941Z" fill="#960000"/>
<path fill-rule="evenodd" clip-rule="evenodd" d="M11.6866 21.577C11.3802 22.119 10.1732 22.2678 9.63302 22.5423C8.86083 22.931 8.13556 23.4021 7.44306 23.9158C6.70186 24.4613 6.00759 25.0687 5.3638 25.7267C5.0326 26.065 4.70761 26.413 4.40564 26.7805C4.15857 27.086 3.73705 27.6466 3.67329 26.9187C3.62281 26.3395 3.86368 25.6346 4.07533 25.013C4.1134 24.9846 4.15414 24.9563 4.19222 24.9279C5.56925 23.9158 7.06139 23.2693 8.13822 21.8994C8.34012 21.6426 8.90333 20.881 8.48358 20.5711C8.03727 20.2425 7.23673 21.2264 6.72577 20.943C6.10854 20.5976 7.57767 19.7094 7.82562 19.5181C8.91662 18.6751 7.22345 18.3235 6.6381 18.3315C7.36071 17.9259 8.27017 17.5133 9.0282 17.5558C10.1068 17.6169 10.6886 19.225 11.1367 20.0176C11.3873 20.4674 12.0036 21.0138 11.6866 21.577Z" fill="#960000"/>
<path d="M5.99515 19.2063C3.8902 20.0077 2.64158 22.2163 1.53287 24.0396C1.46026 24.1592 1.64445 24.3133 1.74806 24.2159C3.20567 22.853 4.37637 20.8588 6.44589 20.3752C7.21278 20.1964 6.77532 18.9097 5.99515 19.2063Z" fill="#FF0005"/>
<path d="M44.0614 5.75468C43.3246 5.28003 42.2637 5.34379 41.4136 5.36416C40.2305 5.39161 38.9996 5.63779 37.9582 6.20189C37.5154 6.44187 37.9254 7.19281 38.3788 6.97497C39.2679 6.54725 40.1499 6.18506 41.116 5.96367C42.1087 5.73697 43.0669 5.88486 44.0543 5.77682C44.064 5.77594 44.0711 5.76088 44.0614 5.75468Z" fill="#FF0005"/>
<path d="M34.4855 7.93923C33.5796 7.13338 31.812 6.32222 32.2796 4.88763C32.5842 3.95338 33.0252 3.1679 32.4328 2.23188C30.6626 -0.569112 26.8538 2.86504 26.063 4.86727C26.0577 4.88143 26.0745 4.89118 26.0852 4.88143C26.9043 4.08798 27.7659 3.39726 28.8631 3.03595C29.4033 2.85707 29.9072 2.70653 30.4793 2.788C30.7874 2.83139 31.2213 4.16503 31.2727 4.3997C31.3666 4.82565 31.0655 5.43225 31.3949 5.82277C31.8882 6.40812 32.4124 6.85709 33.0172 7.32555C34.0312 8.11368 34.3571 9.00809 34.2685 10.2824C34.2065 11.1839 33.4609 11.9614 33.1988 12.8142C32.8897 13.8219 34.3526 14.2992 34.9504 13.6129C36.1724 12.2102 35.8917 9.19051 34.4855 7.93923Z" fill="#FF0005"/>
<path d="M16.1171 21.5535C15.2103 21.5464 14.5993 21.5765 14.1326 20.644C13.9475 20.2756 14.1441 19.7877 14.0033 19.3892C13.8484 18.9544 13.6721 18.6932 13.3144 18.4045C12.8131 18.0033 11.5831 17.6332 11.7514 16.7706C11.8886 16.0719 11.9887 15.3874 11.3874 14.8561C11.0491 14.5577 10.6622 14.3487 10.2858 14.0998C9.5623 13.6216 10.4452 13.0372 10.926 13.0239C12.3633 12.9858 12.1384 10.7799 10.71 10.8189C9.42327 10.8534 7.57956 12.149 8.34556 13.6641C8.68738 14.3425 9.0416 14.6551 9.69956 15.0288C10.1521 15.2856 10.9624 15.5282 10.8428 16.2632C10.7737 16.6901 10.6648 16.9885 10.6816 17.4268C10.702 17.9546 11.3051 18.4514 11.6672 18.7569C12.3562 19.3387 12.6431 20.0808 13.2302 20.7361C14.006 21.6031 14.9739 22.6215 16.1614 21.6713C16.2154 21.6288 16.1818 21.5544 16.1171 21.5535Z" fill="#FF0005"/>
<path fill-rule="evenodd" clip-rule="evenodd" d="M33.9967 40.8743C33.9294 40.7158 33.7789 40.5679 33.5513 40.4333C32.5311 39.8258 31.7279 38.8286 31.0939 37.3852C30.9531 37.0602 30.8335 36.7228 30.7202 36.3978L30.6104 36.087C30.5094 35.8089 30.3155 35.4414 30.0392 35.3431L29.932 35.3051C28.7968 34.8791 27.5844 34.6471 26.4111 34.423L26.2641 34.3929L26.2225 34.3841C25.3121 34.2096 24.4053 34.0671 23.5047 33.959C23.6039 35.1377 24.5576 36.7857 24.0812 37.6172C23.0885 39.3538 17.0792 38.5497 15.3843 38.6108C12.5142 38.7126 8.78073 38.4133 6.56863 40.4244C6.3862 40.5909 6.22326 40.7609 6.07715 40.938C6.10017 40.9549 6.12674 40.9708 6.15242 40.9876C6.21352 41.0248 6.27285 41.0434 6.33042 41.0461C6.47742 41.0478 6.61025 40.9327 6.73777 40.822C6.9441 40.6458 7.1832 40.5006 7.49314 40.3651C8.03952 40.1286 8.81438 39.8984 9.73977 39.7036C12.183 39.1882 15.4321 38.9331 18.8937 38.9854C19.1797 38.9907 19.4719 38.9942 19.7659 39.004L19.8262 39.0066C20.8614 39.0359 21.8789 39.0943 22.8503 39.1767C23.3064 39.213 25.3529 39.4565 26.0232 39.5486C27.6703 39.7762 28.9597 40.079 29.9294 40.3668C31.0168 40.6865 31.7058 40.9903 32.0458 41.1603C32.3664 41.3215 32.6188 41.4791 32.7941 41.6296C32.8508 41.6783 32.8809 41.7403 32.9119 41.797C32.9376 41.8457 32.9615 41.8918 32.9943 41.9245C33.0146 41.9378 33.035 41.9475 33.0598 41.9475C33.1386 41.9475 33.2378 41.8785 33.3122 41.8289L33.352 41.7997C33.352 41.7997 33.4875 41.735 33.5185 41.7191C33.8488 41.5331 34.1472 41.2143 33.9967 40.8743ZM11.8934 27.2802C11.6065 27.468 11.347 27.6823 11.1115 27.9169C11.2762 26.98 11.4462 26.0458 11.6517 25.1168C11.6667 25.0504 11.6862 24.9379 11.7128 24.7945C11.8704 23.9098 12.253 21.8678 12.988 22.6683C13.4422 23.1651 13.8939 23.6415 14.4659 24.0055C15.3196 24.5536 16.3176 24.744 17.3112 24.4828C19.232 23.9771 20.3841 22.0635 21.081 20.3499C21.1775 20.1108 21.282 19.8646 21.3582 19.6193C21.4751 19.2315 21.576 18.8135 21.8178 18.4788C22.1658 17.9988 22.4306 18.0298 22.9681 18.1564C23.2382 18.2193 23.5038 18.291 23.7642 18.3716C23.905 18.415 24.0431 18.4611 24.1751 18.508C24.2858 18.5478 24.3929 18.5868 24.4974 18.6311C24.594 18.6674 24.6878 18.7072 24.7781 18.7471C24.9119 18.8046 25.0429 18.8649 25.1696 18.9286C25.4237 19.0526 25.6708 19.1881 25.9028 19.3333C26.8503 19.9514 27.572 21.1186 28.1131 22.8959C28.663 24.6988 28.9624 26.8649 29.2785 29.1567L29.3166 29.4348C29.3812 29.8935 29.4361 30.3486 29.4839 30.8091C29.4999 30.9482 29.5902 31.3112 29.4503 31.4086C29.2998 31.5123 28.6746 31.0721 28.4983 30.9969C27.99 30.7808 27.4552 30.632 26.915 30.5036C26.7113 30.4558 26.5076 30.4071 26.3048 30.3619L25.9515 30.2822C25.6867 30.2211 25.4228 30.1636 25.1536 30.1113C25.9302 28.0949 25.6292 24.1294 23.2621 23.3626C20.3168 22.4053 18.7635 27.1438 15.7394 27.1465C14.4199 27.15 13.1854 26.4381 11.8934 27.2802Z" fill="#FFAB00"/>
<path fill-rule="evenodd" clip-rule="evenodd" d="M51.8314 18.9558C48.8675 19.3207 46.2117 23.4916 44.5885 25.6302C42.4889 28.3993 40.6452 31.3898 39.0468 34.4653C38.4942 35.528 38.1169 37.7843 37.0392 36.1806C36.3706 35.1844 36.4468 33.4877 36.0014 32.3542C35.8916 32.0717 35.7587 31.8219 35.6082 31.5961C35.4435 31.9716 35.2876 32.3497 35.1397 32.7296L34.9998 33.0812C34.9759 33.1405 34.9538 33.1963 34.9299 33.2556C34.7306 33.7542 34.5331 34.266 34.3773 34.7894C34.2834 35.1047 34.2134 35.3898 34.1639 35.6652C34.116 35.9521 34.0797 36.1638 34.2108 36.3869C34.2108 36.3869 34.5234 36.719 34.5526 36.7677L34.6049 36.8572C34.7093 37.0369 34.8466 37.2132 34.9777 37.3814C35.0769 37.5098 35.176 37.6382 35.2655 37.7702C36.1528 39.1056 36.5601 40.371 36.5052 41.6427C36.4955 41.8791 36.5469 42.0748 36.6593 42.2227C36.7558 42.3467 36.8825 42.4175 37.0366 42.4326C37.2261 42.4521 37.4599 42.3892 37.7335 42.2404C37.7955 42.205 37.8406 42.166 37.8716 42.1164C37.9434 41.9907 37.9106 41.8207 37.8778 41.6533C37.8238 41.3876 37.8159 41.1096 37.8513 40.7757C37.9106 40.1851 38.0957 39.4022 38.3808 38.5052C39.1371 36.1399 40.5203 33.2016 42.2737 30.2333C42.4189 29.9889 42.5686 29.7418 42.7218 29.4921L42.7546 29.4398C43.2912 28.5596 43.8447 27.7077 44.3955 26.9071C44.6558 26.5326 45.8734 24.8828 46.287 24.3506C48.4398 21.5708 50.0727 20.3382 50.6731 19.937C50.9715 19.7395 51.2328 19.5978 51.4515 19.5234C51.5224 19.4969 51.5914 19.5013 51.6561 19.5031C51.711 19.5057 51.7632 19.5066 51.8084 19.4933C51.8314 19.4836 51.8491 19.4712 51.8606 19.4482C51.9005 19.3818 51.8881 19.2613 51.8828 19.1728L51.8775 19.1214C51.8775 19.1214 51.8872 18.9992 51.8854 18.9505L51.8314 18.9558ZM31.1503 26.7601C31.393 27.6793 31.8455 28.3063 32.391 28.8164C32.2404 29.1688 32.1014 29.5239 31.9721 29.8773L31.772 30.4166L31.7658 30.4307C31.5931 30.8965 31.3965 31.4403 31.2663 31.9999C31.1831 32.3488 31.2681 33.2964 30.6969 33.0272C30.4401 32.905 30.2134 32.4294 30.1497 32.1673C29.9035 31.179 29.8344 30.1111 29.6954 29.1042C29.3739 26.7973 29.0737 24.618 28.5149 22.777C27.9455 20.9022 27.1654 19.6625 26.1302 18.9859C25.884 18.8336 25.6245 18.691 25.3562 18.56C24.878 18.3218 24.7567 18.1172 25.0533 17.693C25.1463 17.5628 25.2428 17.4318 25.3367 17.306C25.435 17.1776 25.5342 17.051 25.6369 16.9279C25.9672 16.5197 26.1585 16.393 26.6367 16.633C27.1344 16.8801 27.5833 17.1865 28.0562 17.4787C28.6673 17.8577 29.3243 18.0596 30.0186 18.2279C31.5966 18.6104 33.5068 18.5529 34.9422 17.732C35.4355 17.4522 35.8854 17.1024 36.2661 16.687C36.5663 16.3603 36.8125 15.8706 37.3182 15.8653C37.4678 15.8644 37.6325 15.8989 37.7981 15.9565C38.1506 16.076 38.519 16.2868 38.8085 16.4028L39.0716 16.5073C39.1539 16.54 39.2389 16.5746 39.3213 16.61C38.774 16.9686 38.2631 17.4274 37.737 18.0003C36.6416 19.1861 35.7357 19.5739 34.2639 20.0574C31.1813 21.0714 30.379 23.8573 31.1503 26.7601Z" fill="#FFAB00"/>
<path fill-rule="evenodd" clip-rule="evenodd" d="M33.9971 40.8743C33.9298 40.7158 33.7792 40.5679 33.5516 40.4333C32.5315 39.8258 31.7283 38.8286 31.0942 37.3852C30.9534 37.0602 30.8339 36.7228 30.7205 36.3978L30.6107 36.087C30.5098 35.8089 30.3158 35.4414 30.0395 35.3431L29.9324 35.3051C28.7971 34.8791 27.5848 34.6471 26.4115 34.423L26.2645 34.3929C26.2423 34.6719 26.229 34.9517 26.2299 35.2386C26.2397 37.7306 28.5642 38.4824 29.8474 40.2446C29.8757 40.2854 29.9041 40.3252 29.9297 40.3668C31.0172 40.6865 31.7061 40.9903 32.0462 41.1603C32.3668 41.3215 32.6191 41.4791 32.7945 41.6296C32.8512 41.6783 32.8813 41.7403 32.9123 41.797C32.9379 41.8457 32.9619 41.8918 32.9946 41.9245C33.015 41.9378 33.0354 41.9475 33.0602 41.9475C33.139 41.9475 33.2381 41.8785 33.3125 41.8289L33.3524 41.7997C33.3524 41.7997 33.4879 41.735 33.5189 41.7191C33.8492 41.5331 34.1476 41.2143 33.9971 40.8743ZM26.9844 27.6823C26.7063 25.5357 26.2025 20.829 23.2678 20.69C20.5722 20.5616 19.5423 24.6156 17.1141 25.3922C15.7734 25.82 14.2919 25.7279 13.0503 25.1629C12.5146 24.9194 12.0789 24.8078 11.7131 24.7945C11.8708 23.9098 12.2533 21.8678 12.9883 22.6683C13.4426 23.1651 13.8942 23.6415 14.4663 24.0055C15.32 24.5536 16.318 24.744 17.3116 24.4828C19.2323 23.9771 20.3844 22.0635 21.0813 20.3499C21.1779 20.1108 21.2824 19.8646 21.3585 19.6193C21.4754 19.2315 21.5764 18.8135 21.8181 18.4788C22.1661 17.9988 22.4309 18.0298 22.9684 18.1564C23.2385 18.2193 23.5042 18.291 23.7646 18.3716C23.9054 18.415 24.0435 18.4611 24.1754 18.508C24.2861 18.5478 24.3933 18.5868 24.4978 18.6311C24.5943 18.6674 24.6882 18.7072 24.7785 18.7471C24.9122 18.8046 25.0433 18.8649 25.1699 18.9286C25.4241 19.0526 25.6711 19.1881 25.9032 19.3333C26.8507 19.9514 27.5724 21.1186 28.1135 22.8959C28.6634 24.6988 28.9627 26.8649 29.2789 29.1567L29.3169 29.4348C29.3816 29.8935 29.4365 30.3486 29.4843 30.8091C29.5002 30.9482 29.5906 31.3112 29.4507 31.4086C29.3001 31.5123 28.6749 31.0721 28.4987 30.9969C27.9904 30.7808 27.4555 30.632 26.9153 30.5036C27.0499 29.6021 27.1146 28.6732 26.9844 27.6823Z" fill="#FF8500"/>
<path fill-rule="evenodd" clip-rule="evenodd" d="M37.3182 15.8653C36.8125 15.8706 36.5663 16.3603 36.2661 16.687C35.8854 17.1024 35.4355 17.4522 34.9422 17.732C33.5068 18.5529 31.5966 18.6104 30.0186 18.2279C29.3243 18.0596 28.6673 17.8577 28.0562 17.4787C27.5833 17.1865 27.1344 16.8801 26.6367 16.633C26.1585 16.393 25.9672 16.5197 25.6369 16.9279C25.5342 17.051 25.435 17.1776 25.3367 17.306C25.2428 17.4318 25.1463 17.5628 25.0533 17.693C24.7567 18.1172 24.878 18.3218 25.3562 18.56C25.6245 18.691 25.884 18.8336 26.1302 18.9859C27.1654 19.6625 27.9455 20.9022 28.5149 22.777C29.0737 24.618 29.3739 26.7973 29.6954 29.1042C29.8344 30.1111 29.9035 31.179 30.1497 32.1673C30.2134 32.4294 30.4401 32.905 30.6969 33.0272C31.2681 33.2964 31.1831 32.3488 31.2663 31.9999C31.3965 31.4403 31.5931 30.8965 31.7658 30.4307L31.772 30.4166C31.5648 30.2147 31.3744 29.9951 31.2114 29.7506C29.8619 27.7484 29.7343 24.6348 29.5661 22.25C29.3358 18.9841 32.3024 19.6793 34.588 18.7513C35.842 18.2429 36.9586 17.2228 37.7981 15.9565C37.6325 15.8989 37.4678 15.8644 37.3182 15.8653ZM36.3458 36.6809C36.8347 38.53 37.3483 40.5269 37.0366 42.4326C36.8825 42.4175 36.7558 42.3467 36.6593 42.2227C36.5469 42.0748 36.4955 41.8791 36.5052 41.6427C36.5601 40.371 36.1528 39.1056 35.2655 37.7702C35.176 37.6382 35.0769 37.5098 34.9777 37.3814C34.8466 37.2132 34.7093 37.0369 34.6049 36.8572L34.5526 36.7677C34.5234 36.719 34.2108 36.3869 34.2108 36.3869C34.0797 36.1638 34.116 35.9521 34.1639 35.6652C34.2134 35.3898 34.2834 35.1047 34.3773 34.7894C34.5331 34.266 34.7306 33.7542 34.9298 33.2556C35.5843 34.2696 36.0518 35.5669 36.3458 36.6809Z" fill="#FF8500"/>
<path fill-rule="evenodd" clip-rule="evenodd" d="M30.0789 34.875C29.8398 35.1008 28.8533 34.6767 28.5991 34.6067C27.8712 34.403 27.1282 34.2587 26.387 34.117C26.3516 34.109 26.3153 34.1019 26.279 34.0949L26.0071 34.04C23.9925 33.6503 21.9717 33.4183 19.9978 33.3519C19.7383 33.3421 19.4815 33.3342 19.2256 33.3324C17.2464 33.3014 15.2716 33.4254 13.3553 33.6973L12.7266 33.7849C11.9827 33.8876 11.3 34.086 10.5844 34.2605C10.2798 34.3366 9.92205 34.4978 9.81225 34.1294C9.7724 33.9983 9.77151 33.8168 9.78568 33.6291C10.6641 33.3138 11.7799 33.1518 12.3467 33.0428C15.037 32.5336 17.807 32.4956 20.4698 32.6434C22.0054 32.7276 23.7658 33.3935 25.2898 32.9481C26.5978 32.5673 26.5464 31.6817 26.7545 30.8086C26.8192 30.8245 26.8865 30.8422 26.9503 30.8573C27.7269 31.0397 28.5026 31.2593 29.1995 31.6472C29.4891 31.7978 29.6538 32.0652 29.7521 32.3778C29.9062 32.8613 29.9062 33.4484 29.9753 33.8752C30.0089 34.0798 30.2525 34.7085 30.0789 34.875Z" fill="#FF8500"/>
<path fill-rule="evenodd" clip-rule="evenodd" d="M43.2442 19.6716C42.6783 20.2304 42.1603 20.8326 41.6449 21.4338L41.4616 21.6446C40.1297 23.1917 38.9289 24.8228 37.8919 26.4992C37.7582 26.7153 37.6245 26.9358 37.4961 27.1536C36.4928 28.8539 35.6223 30.6214 34.9165 32.4138L34.6827 32.9964C34.5791 33.2533 34.479 33.5092 34.3852 33.7669C34.3161 33.9555 34.2506 34.1459 34.1903 34.3354C34.1 34.6179 34.123 35.2085 33.907 35.4184C33.489 35.8267 32.7496 35.1598 32.4591 34.8658C32.1545 34.5568 31.7843 34.284 31.562 33.905C31.3229 33.495 31.4044 33.1302 31.4673 32.6883C31.5523 32.1118 31.7347 31.553 31.8817 31.1324C31.9154 31.0376 31.9499 30.942 31.9871 30.8463C32.0447 30.6861 32.1049 30.5258 32.166 30.3681C32.4361 30.8189 32.6282 31.3927 33.1171 31.5539C34.077 31.8727 34.6623 30.8224 35.1476 30.137C36.0916 28.7928 36.5362 27.1633 37.458 25.8155C38.9502 23.63 41.2216 19.413 43.8313 18.4132C43.9597 18.3628 44.0766 18.3273 44.1802 18.3008C44.2112 18.3415 44.2369 18.3849 44.2528 18.4345C44.3839 18.8551 43.5054 19.4166 43.2442 19.6716Z" fill="#FF8500"/>
<path fill-rule="evenodd" clip-rule="evenodd" d="M47.2145 20.1569C44.7846 21.3657 43.2083 24.3659 42.0004 26.6497C41.1964 28.1702 40.5127 29.7598 39.7635 31.3086C39.0746 32.7334 38.414 34.1742 38.1058 35.7301C38.1023 35.7479 38.1279 35.7514 38.1324 35.7346C39.0232 32.6688 40.9156 30.2362 42.631 27.5964C43.4058 26.4036 44.1514 25.2222 45.0547 24.1197C45.8021 23.2076 46.6363 22.0059 47.7308 21.4958C48.5721 21.1044 48.0417 19.7451 47.2145 20.1569Z" fill="#FFDF7D"/>
<path fill-rule="evenodd" clip-rule="evenodd" d="M24.5353 38.3494C22.263 37.347 19.9083 36.8404 17.435 36.6075C14.9413 36.372 12.2829 36.3144 9.87774 37.076C8.89655 37.3868 9.50227 38.9755 10.4498 38.561C12.6061 37.6179 15.0741 37.4807 17.404 37.4231C19.7711 37.3638 22.2798 37.5807 24.5247 38.3742C24.5406 38.3795 24.5522 38.3565 24.5353 38.3494Z" fill="#FFDF7D"/>
<path fill-rule="evenodd" clip-rule="evenodd" d="M40.6541 17.7956C38.7608 19.3843 37.2589 21.4901 35.8907 23.5269C34.5216 25.5645 33.1225 27.9387 32.8037 30.4093C32.7886 30.5271 32.9578 30.6325 33.0339 30.5147C34.2808 28.5931 35.308 26.59 36.7461 24.7852C38.2463 22.9034 40.0147 21.011 41.8832 19.4861C42.9255 18.636 41.6875 16.9287 40.6541 17.7956Z" fill="#FFDF7D"/>
<path fill-rule="evenodd" clip-rule="evenodd" d="M24.6644 31.5852C22.8251 30.4907 20.2437 30.5341 18.1644 30.4623C15.6654 30.3755 13.2558 30.5766 10.8472 31.2726C9.6986 31.6047 10.5452 33.4882 11.6645 32.7736C13.3887 31.672 16.2694 31.7154 18.2707 31.548C20.4058 31.3691 22.5373 31.8464 24.652 31.6605C24.6936 31.6569 24.6962 31.6047 24.6644 31.5852Z" fill="#FFDF7D"/>
<path fill-rule="evenodd" clip-rule="evenodd" d="M28.0077 41.9962C27.9918 42.5036 27.8288 42.9774 27.5579 43.3741C27.4507 42.8436 27.3648 42.299 27.1408 41.9776C26.3323 40.8379 23.8155 40.5944 22.7263 41.5924C22.7688 41.2523 22.8813 40.9229 23.0531 40.6245C23.1611 40.4438 23.286 40.2747 23.4312 40.1224C23.5029 40.0453 23.58 39.9727 23.6632 39.9081C23.7164 39.862 23.7739 39.8425 23.8403 39.8177L23.9076 39.792C24.0183 39.7487 24.0874 39.7292 24.1768 39.7309C24.1963 39.7292 24.2185 39.7327 24.2424 39.7354L24.7383 39.7929C25.0527 39.8328 25.3697 39.8753 25.684 39.9205C26.0569 39.9762 26.4332 40.0347 26.8043 40.102L26.9344 40.1215C27.0637 40.1418 27.1859 40.1596 27.2993 40.2056C27.4551 40.2694 27.5402 40.4146 27.6473 40.597C27.8961 41.0194 28.0228 41.5047 28.0077 41.9962Z" fill="#FFAB00"/>
<path fill-rule="evenodd" clip-rule="evenodd" d="M49.0917 23.6802C48.772 23.8901 48.4391 24.0796 48.2142 24.2549C47.0612 25.152 46.5821 26.4838 47.0125 27.8821C47.101 28.1717 47.2702 28.4312 47.4791 28.6729C47.1896 28.6118 46.9124 28.5038 46.6547 28.347C46.2907 28.1274 45.979 27.8139 45.7638 27.4482C45.6567 27.2658 45.5726 27.0745 45.5088 26.8717C45.4796 26.7717 45.4539 26.6716 45.4362 26.568C45.4238 26.4989 45.4344 26.4378 45.4468 26.3696L45.4557 26.2979C45.4743 26.1819 45.4893 26.1137 45.5336 26.0358C45.5451 26.0163 45.5566 25.9986 45.5717 25.9782L45.8675 25.5815C46.0578 25.3273 46.25 25.0758 46.4466 24.827C46.6786 24.5286 46.9168 24.2346 47.1577 23.9459L47.2409 23.844C47.3198 23.7413 47.395 23.6448 47.4942 23.5695C47.6253 23.4677 47.7935 23.465 48.006 23.4632C48.3815 23.457 48.7508 23.5323 49.0917 23.6802Z" fill="#FFAB00"/>
<path fill-rule="evenodd" clip-rule="evenodd" d="M50.1421 25.3443C49.8809 24.1284 48.1762 24.9396 48.8395 25.8331C48.9856 26.0297 49.0414 26.4574 48.9661 26.8072C48.8793 27.2119 48.5596 27.5414 48.2851 27.8362C48.2674 27.8566 48.2789 27.8841 48.2993 27.8965C49.4824 28.596 50.3192 26.1696 50.1421 25.3443Z" fill="#FFEFD6"/>
<path fill-rule="evenodd" clip-rule="evenodd" d="M26.2381 43.5571C25.9618 43.3862 25.6306 43.3959 25.3446 43.2117C25.0523 43.024 24.7929 42.7167 24.7247 42.3678C24.5422 41.4389 23.2263 41.7444 23.4601 42.6645C23.6301 43.3339 24.188 43.8112 24.8354 44.0185C25.2356 44.146 26.1628 44.1761 26.2761 43.6279C26.2823 43.5961 26.2629 43.5722 26.2381 43.5571Z" fill="#FFEFD6"/>
<path fill-rule="evenodd" clip-rule="evenodd" d="M28.5624 40.4635C28.5199 40.4538 28.4694 40.4369 28.4136 40.421C28.318 40.3891 28.2108 40.3564 28.1347 40.3555L28.1365 40.2846L28.1125 40.3555C28.0523 40.4042 28.0523 40.4555 28.0709 40.5025C28.0957 40.5733 28.1267 40.638 28.1613 40.7053C28.1984 40.7823 28.2356 40.8602 28.2604 40.9417C28.6465 40.8585 29.0211 40.7655 29.3842 40.6681C29.1106 40.5937 28.8378 40.5281 28.5624 40.4635ZM23.1251 39.6736C23.1783 39.7692 23.0658 39.9012 22.9852 39.9986L22.9489 40.0429C22.8134 40.2129 22.6983 40.3944 22.6044 40.5822C22.4362 40.9204 22.3308 41.2933 22.2972 41.6705C21.8172 41.69 21.331 41.6988 20.8387 41.7006C16.6916 41.7068 12.9378 41.0683 10.2351 40.034C12.5969 39.5806 15.6476 39.3583 18.8878 39.4044C19.1721 39.4097 19.4607 39.4168 19.753 39.4239L19.8158 39.4256C20.8422 39.4566 21.8526 39.516 22.8161 39.5957L22.8896 39.5992C23.0065 39.6036 23.0915 39.6089 23.1251 39.6736Z" fill="#BE5000"/>
<path fill-rule="evenodd" clip-rule="evenodd" d="M48.3373 22.6009C48.3081 22.6328 48.2682 22.67 48.2257 22.7063C48.1531 22.7754 48.0707 22.8506 48.0309 22.9144L47.9733 22.879L48.0211 22.9339C48.0344 23.0118 48.0778 23.0375 48.1274 23.0428C48.2027 23.0552 48.2762 23.0614 48.3532 23.0676C48.4462 23.0747 48.5392 23.0818 48.6339 23.0995L48.6481 23.1039C48.7668 22.7027 48.8606 22.3281 48.9279 21.9863C48.7269 22.1865 48.5321 22.3919 48.3373 22.6009ZM46.3262 28.6306C45.9826 29.2948 45.6107 29.9722 45.2122 30.6603C42.8974 34.6488 40.3656 37.7632 38.73 38.7931C38.7468 38.7374 38.7627 38.6816 38.7822 38.6258C39.5279 36.2906 40.8978 33.3807 42.6352 30.4415C42.7796 30.1971 42.9275 29.9527 43.0798 29.703L43.1108 29.6507C43.6457 28.7794 44.1947 27.9354 44.7428 27.1411L44.7827 27.0773C44.8411 26.9799 44.889 26.91 44.9625 26.9109C45.0714 26.9117 45.1334 27.0738 45.1785 27.1942L45.1998 27.2456C45.2786 27.4466 45.3822 27.637 45.4991 27.8097C45.717 28.1347 45.9994 28.4154 46.3262 28.6306Z" fill="#BE5000"/>
</svg>
