<svg width="98" height="104" viewBox="0 0 98 104" fill="none" xmlns="http://www.w3.org/2000/svg">
<path d="M33.6346 83.0583C33.1224 83.0005 29.9846 82.1889 30.8877 81.324C31.3449 80.9022 32.0372 81.3452 32.3852 81.6682C32.8661 82.0959 33.2802 82.5868 33.5859 83.1593C33.6917 83.3573 34.0383 83.2491 33.9525 83.0405C33.7209 82.2745 33.2033 81.6377 32.9119 80.9037C32.634 80.2394 32.5923 79.1196 33.4838 78.8979C34.4144 78.6534 34.7028 79.9985 34.6521 80.6607C34.557 81.5242 34.0495 82.2766 33.5813 82.9586C33.7022 82.9966 33.8236 83.0836 33.9645 83.111C34.1845 82.4333 34.5062 81.8058 34.8982 81.2138C35.2801 80.6548 35.9523 79.6862 36.775 79.8564C37.2273 79.9462 37.3981 80.3619 37.2802 80.7543C37.1616 81.149 36.8198 81.4065 36.4852 81.5852C35.7678 81.9447 34.9652 82.1445 34.2122 82.3928C34.2577 82.5224 34.3208 82.6406 34.3334 82.7601C35.1591 82.3191 36.0274 81.9579 36.9562 81.9945C37.7863 82.0344 38.7687 82.5 39.062 83.3335C39.4091 84.3159 37.1943 83.6702 36.792 83.53C35.9936 83.2206 35.271 82.717 34.5481 82.2647C34.3961 82.1684 34.1733 82.3643 34.2577 82.5224C34.6737 83.1129 35.2741 83.528 35.8361 83.9636C36.4281 84.4108 37.0836 85.0253 37.1772 85.8136C37.214 86.0228 37.2186 86.2235 37.0533 86.3867C36.8888 86.5515 36.5787 86.5396 36.3577 86.4545C35.9956 86.3934 35.641 86.2021 35.3646 85.969C34.6492 85.3865 34.3133 84.4731 34.0399 83.6289C33.9217 83.692 33.8036 83.7551 33.7053 83.8076C34.31 84.323 34.2149 85.1865 33.7609 85.7583C33.52 86.0645 33.2083 86.2823 32.8325 86.4317C32.656 86.526 32.4595 86.6309 32.2902 86.6463C31.9715 86.6627 31.7868 86.5089 31.5509 86.3035C31.3357 86.089 30.6607 85.5342 30.8106 85.2017C30.8648 85.0189 31.2008 84.8908 31.3176 84.7771C31.4834 84.6629 31.6415 84.5784 31.798 84.4948C32.5654 84.085 33.4064 83.8647 34.2444 83.8235C34.4835 83.7984 34.5324 83.4172 34.2521 83.413C33.0471 83.4727 31.87 83.8725 30.8818 84.5779C30.5807 84.8156 30.2488 85.0954 30.3905 85.501C30.5533 85.9979 31.1181 86.5346 31.5382 86.8448C32.3226 87.4161 33.5371 86.6136 34.0373 85.9914C34.6158 85.2761 34.6936 84.1438 33.9262 83.5121C33.7941 83.4051 33.5059 83.4821 33.5917 83.6908C33.9004 84.6936 34.3087 85.6946 35.1757 86.3243C35.5309 86.5647 35.9063 86.7468 36.3165 86.8059C36.648 86.8577 37.1573 86.8658 37.3598 86.5801C37.8407 85.9662 37.3214 84.9496 36.9365 84.4174C36.2535 83.5632 35.1928 83.1394 34.5375 82.2448C34.4315 82.327 34.3346 82.43 34.247 82.5024C35.1914 83.0889 36.1779 83.7061 37.2543 84.0189C37.848 84.185 39.5854 84.5018 39.4318 83.3648C39.3137 82.3864 38.2071 81.7328 37.3232 81.544C36.1883 81.3138 35.0333 81.7512 34.0111 82.2971C33.8147 82.402 33.9236 82.7501 34.1308 82.6651C34.7044 82.4613 35.2679 82.2866 35.8615 82.0722C36.2856 81.9206 36.7504 81.7494 37.0802 81.4213C37.6143 80.9072 37.8247 79.9309 37.1141 79.4978C36.2698 78.9585 35.4132 79.6704 34.9009 80.2734C34.244 81.0306 33.7499 81.904 33.4277 82.8631C33.3649 83.0742 33.6485 83.2284 33.8116 83.0131C34.3655 82.1591 34.9977 81.2119 34.9666 80.1121C34.9435 79.3117 34.474 78.2922 33.5656 78.294C32.7569 78.294 32.2116 79.1197 32.2426 79.8389C32.2368 81.0098 33.1589 81.8389 33.4796 82.9123C33.6085 82.8691 33.7267 82.806 33.8454 82.7919C33.4339 82.0215 32.8246 81.3054 32.072 80.8453C31.5333 80.4978 30.8321 80.4147 30.398 80.976C29.3207 82.364 32.7388 83.1797 33.541 83.3115C33.8666 83.4927 33.8955 83.1222 33.6346 83.0583Z" fill="#010101"/>
<path d="M33.7515 82.6157C33.2297 82.8687 33.2733 83.7074 33.7424 84.017C34.2292 84.3153 34.8923 84.1387 35.2699 83.7082C35.5552 83.2008 35.2433 82.4284 34.6573 82.2325C34.0836 82.0556 33.408 82.4934 33.336 83.1157" fill="#010101"/>
<path d="M33.656 82.4386C33.1542 82.6809 33.0729 83.3339 33.2956 83.7988C33.5502 84.3236 34.2136 84.4762 34.7168 84.2845C34.8456 84.2413 34.9837 84.1675 35.1203 84.0946C35.2385 84.0315 35.3859 83.9271 35.4522 83.8148C35.5855 83.5917 35.5868 83.2616 35.5793 83.0111C35.4732 82.4839 35.0208 82.0135 34.4511 81.9883C33.8223 81.9928 33.2477 82.4791 33.1756 83.1015C33.1591 83.2109 33.2606 83.3086 33.3724 83.3258C33.4826 83.3439 33.5795 83.2408 33.5952 83.1299C33.584 83.0609 33.6503 82.9486 33.6979 82.8975C33.7466 82.7965 33.7743 82.7561 33.8712 82.6531C34.0157 82.499 34.1538 82.4252 34.3623 82.3908C34.5324 82.3769 34.7123 82.3814 34.8444 82.4884C34.907 82.5575 34.978 82.5945 35.0497 82.6844L35.0604 82.7044C35.071 82.7243 35.0915 82.7627 35.0915 82.7627C35.1235 82.8226 35.1342 82.8425 35.1653 82.9008C35.176 82.9208 35.176 82.9208 35.1653 82.9008L35.176 82.9208C35.1866 82.9407 35.1866 82.9407 35.1895 82.9905C35.2002 83.0104 35.2002 83.0104 35.2015 83.061L35.2127 83.13C35.2354 83.2204 35.2082 83.3099 35.1803 83.4017C35.171 83.4323 35.171 83.4323 35.154 83.4927C35.154 83.4927 35.104 83.5431 35.1439 83.5218L35.1239 83.5325C35.104 83.5431 35.0656 83.5636 35.0563 83.5942C34.9887 83.656 34.8904 83.7084 34.8106 83.7511C34.6341 83.8453 34.4464 83.8706 34.2258 83.8859C34.1568 83.8971 34.0261 83.8407 33.9755 83.842C33.9449 83.8327 33.8746 83.7934 33.8541 83.755C33.8328 83.7151 33.8647 83.7749 33.8541 83.755L33.8434 83.735C33.8328 83.7151 33.8115 83.6752 33.7809 83.6659L33.7702 83.6459C33.7604 83.6275 33.739 83.5876 33.739 83.5876C33.7284 83.5677 33.7071 83.5277 33.6964 83.5078C33.7071 83.5277 33.6858 83.4878 33.6858 83.4878C33.6426 83.359 33.632 83.3391 33.6777 83.1884C33.6777 83.1884 33.6671 83.1684 33.687 83.1578C33.6948 83.128 33.6948 83.128 33.7134 83.0668L33.7235 83.0377C33.7434 83.027 33.7328 83.0071 33.7712 82.9866C33.8111 82.9653 33.7804 82.956 33.8204 82.9347C33.8004 82.9453 33.8388 82.9248 33.8388 82.9248L33.8587 82.9142C33.8787 82.9035 33.9186 82.8822 33.937 82.8724C34.0168 82.8298 34.0724 82.6975 34.0199 82.5993C33.8636 82.4026 33.7542 82.3861 33.656 82.4386Z" fill="#010101"/>
<mask id="mask0_1461_12734" style="mask-type:luminance" maskUnits="userSpaceOnUse" x="13" y="62" width="14" height="14">
<path d="M13.2197 66.9297L22.06 62.2084L26.6764 70.8522L17.8361 75.5735L13.2197 66.9297Z" fill="white"/>
</mask>
<g mask="url(#mask0_1461_12734)">
<path d="M20.1221 68.3581C20.4211 67.6402 20.8602 66.948 21.4016 66.3551C21.8668 65.8522 22.8677 65.2664 23.331 66.0861C23.5518 66.4514 23.3387 66.7171 23.0454 66.9251C22.7619 67.1514 22.4715 67.4091 22.1781 67.617C21.4938 68.1344 20.7264 68.5442 19.8181 68.5461C19.8229 68.6954 19.8669 68.8258 19.8488 68.936C20.5718 68.7274 21.3281 68.6293 22.065 68.5908C22.415 68.5813 22.8048 68.602 23.1546 68.644C23.5366 68.6944 24.338 68.8247 23.865 69.3573C23.4203 69.8986 22.4915 69.8621 21.8792 69.7571C21.2271 69.6221 20.5994 69.3479 20.0117 69.0009C19.7886 68.8676 19.6074 69.1932 19.7921 69.347C20.3641 69.8049 20.9446 70.2306 21.5279 70.7061C21.8349 70.9485 22.2122 71.2303 22.3426 71.6183C22.4318 71.9257 22.3842 72.3574 21.9886 72.4662C21.4727 72.5898 21.0242 71.8904 20.8035 71.525C20.3953 70.9047 19.9779 70.2636 19.591 69.6832C19.4669 69.4951 19.1794 69.5736 19.2268 69.8028C19.3944 70.449 19.594 71.1551 19.3441 71.8211C19.0965 72.5392 18.4677 72.9243 17.7412 72.6535C17.4177 72.5206 16.9017 72.2635 16.9998 71.8305C17.0706 71.5382 17.3134 71.3316 17.5178 71.1455C18.0932 70.6607 18.7297 70.2458 19.4095 69.9084C19.6443 69.783 19.4648 69.4469 19.23 69.5723C18.6284 69.8679 18.0191 70.1933 17.4085 70.4682C17.0832 70.6162 16.7472 70.7444 16.3982 70.7039C16.0162 70.6535 15.5479 70.3454 15.806 69.9274C16.0699 69.3801 17.1384 69.7741 17.6093 69.8027C18.2081 69.8379 18.8376 69.8311 19.4039 69.7575C19.6123 69.7231 19.5835 69.4328 19.4328 69.387C17.9009 68.8343 16.1101 68.0371 15.8089 66.2432C15.7413 66.3049 15.6644 66.3973 15.6172 66.4974C16.335 66.4711 16.9447 66.8556 17.4575 67.3431C18.0636 67.9091 18.5791 68.4977 19.126 69.0932C19.2901 69.2601 19.594 69.0721 19.4279 68.857C18.9693 68.1867 18.5685 67.4362 18.3462 66.6397C18.1891 66.0648 18.0603 65.0664 18.8032 64.8472C19.6841 64.6055 20.163 65.5945 20.0929 66.3164C20.0648 67.0691 19.6555 67.7689 19.3666 68.4578C19.2639 68.6902 19.6555 68.8105 19.7598 68.5772C20.1017 67.6589 20.6451 66.7335 20.455 65.7166C20.3039 64.9609 19.6164 64.2866 18.8109 64.4367C17.9971 64.5676 17.7398 65.3638 17.8106 66.1131C17.8917 67.1625 18.4614 68.2292 19.0656 69.0762C19.1731 68.9931 19.2913 68.93 19.3682 68.8376C18.7204 68.1934 18.1204 67.4467 17.4234 66.8544C16.882 66.4058 16.2737 66.0719 15.565 66.119C15.4172 66.1229 15.3302 66.2444 15.3742 66.3747C15.7292 68.3174 17.5831 69.2328 19.2857 69.8206C19.3037 69.7104 19.2989 69.5611 19.3162 69.4493C18.7883 69.5024 18.328 69.4938 17.7996 69.4979C17.3593 69.4786 16.9064 69.3397 16.4661 69.3204C15.8274 69.3065 15.1569 69.6133 15.3181 70.3399C15.4482 71.0081 16.1542 71.2406 16.7809 71.184C17.2169 71.103 17.5899 70.9039 17.995 70.7132C18.4967 70.4708 18.948 70.2298 19.442 70.0173C19.3789 69.8991 19.3149 69.7794 19.2625 69.6812C18.4261 70.1022 17.384 70.6587 16.8587 71.4738C16.3711 72.2155 16.8483 72.8247 17.5755 73.1484C18.334 73.479 19.1166 73.2899 19.5757 72.5871C20.1125 71.7935 19.8934 70.7664 19.6783 69.891C19.5495 69.9342 19.4313 69.9973 19.3118 70.0099C19.8242 70.829 20.2988 71.7176 20.9387 72.443C21.3208 72.8741 21.9313 73.2601 22.4781 72.8655C23.0271 72.4717 22.9122 71.6435 22.5594 71.1711C22.2691 70.7679 21.8412 70.4875 21.4632 70.2081C21.0241 69.8587 20.5254 69.49 20.0863 69.1406C19.9993 69.262 19.9514 69.3645 19.8659 69.4851C20.6455 69.9071 21.456 70.2869 22.3564 70.3662C23.047 70.4294 24.1796 70.2308 24.4161 69.4437C24.7276 68.4647 23.4971 68.3841 22.8769 68.3603C21.8471 68.2751 20.8219 68.3907 19.7931 68.6877C19.586 68.7726 19.6047 69.092 19.8238 69.0776C20.9014 69.0603 21.824 68.5163 22.6941 67.8741C23.2802 67.4092 24.2398 66.7941 23.6763 65.9273C23.1743 65.1795 22.2503 65.2924 21.5646 65.7592C20.7344 66.3801 20.1234 67.3672 19.7225 68.319C19.6368 68.491 20.03 68.6105 20.1221 68.3581Z" fill="#010101"/>
</g>
<path d="M24.1509 69.5614C27.0613 70.1393 29.9805 70.6376 32.9255 70.9959C35.8206 71.3532 38.7166 71.712 41.5852 72.2117C43.1397 72.4742 44.7362 72.7637 46.2206 73.3675C47.3822 73.8399 48.5393 74.4922 49.6738 75.0541C52.1544 76.2935 54.6174 77.5444 57.1087 78.8038C57.8792 79.205 58.6681 79.5963 59.391 80.0486C61.6473 81.4848 63.8117 83.122 65.7025 85.0078C67.5827 86.8737 69.0729 88.9991 70.5727 91.1943C72.5513 93.9979 74.4807 96.8533 75.9773 99.94C77.3023 102.609 78.3412 105.408 79.1211 108.242C79.3561 109.107 79.5711 109.982 79.7662 110.868C79.8349 111.137 80.2113 111.037 80.1434 110.769C79.4329 107.592 78.4349 104.494 77.1394 101.503C75.8668 98.5511 74.1799 95.7693 72.3946 93.0914C70.7051 90.5891 69.0335 88.0279 66.9917 85.7671C65.4768 84.1125 63.798 82.6716 62.0231 81.3353C60.8094 80.4331 59.5581 79.6043 58.1997 78.9076C56.1214 77.8083 54.0159 76.7985 51.9099 75.7397C50.2173 74.89 48.5243 73.9913 46.8355 73.193C45.7841 72.7386 44.684 72.3852 43.5499 72.1526C40.7377 71.5222 37.8417 71.1634 34.9763 70.8139C32.0016 70.4479 29.056 70.0405 26.0849 69.493C25.4726 69.3881 24.8704 69.254 24.2091 69.1496C24.0376 69.113 23.919 69.5077 24.1509 69.5614Z" fill="#010101"/>
<path d="M38.5677 82.4563C39.8384 81.1938 41.2645 80.1264 42.827 79.2663C44.7425 78.2176 46.8728 77.2831 49.086 76.8881C50.4272 76.6551 51.7439 76.6127 53.096 76.7289C53.3556 76.7421 53.3739 76.3517 53.1036 76.3185C50.751 76.0758 48.4153 76.4336 46.1942 77.2904C44.2784 78.0098 42.4079 78.9062 40.7454 80.0999C39.8646 80.7221 39.0464 81.4136 38.2701 82.1833C38.1048 82.3465 38.3825 82.6302 38.5677 82.4563Z" fill="#010101"/>
<path d="M60.0453 87.5191C63.3725 87.6475 66.6645 88.6075 69.7356 89.863C69.968 89.9658 70.0859 89.5734 69.8542 89.4683C66.7626 88.1744 63.4307 87.2358 60.0529 87.1086C59.7934 87.0954 59.7857 87.5058 60.0453 87.5191Z" fill="#010101"/>
<path d="M41.891 63.7936C43.5258 67.187 45.3094 70.5267 47.2005 73.7833C47.3268 74.0196 47.7012 73.8196 47.5351 73.6046C45.624 70.3586 43.8604 67.0083 42.2256 63.6149C42.1369 63.3565 41.7639 63.5557 41.891 63.7936Z" fill="#010101"/>
<path d="M30.1005 61.684C33.2407 64.9599 36.4277 68.1832 39.256 71.7283C39.4406 71.9335 39.7227 71.6566 39.5464 71.4706C36.6899 67.917 33.5326 64.7014 30.3924 61.4255C30.2263 61.2104 29.9151 61.4772 30.1005 61.684Z" fill="#010101"/>
<mask id="mask1_1461_12734" style="mask-type:luminance" maskUnits="userSpaceOnUse" x="31" y="42" width="57" height="80">
<path d="M31.5649 52.5859L50.8171 42.304L87.8531 111.651L68.601 121.933L31.5649 52.5859Z" fill="white"/>
</mask>
<g mask="url(#mask1_1461_12734)">
<path d="M32.1291 53.1309C34.4239 53.4537 36.6951 53.9686 38.8336 54.7557C41.1142 55.6207 43.3139 56.807 45.4256 58.0167C48.7135 59.8665 52.0611 61.7357 55.0538 64.0745C56.3293 65.0444 57.5391 66.1242 58.5431 67.3909C59.4237 68.471 60.1667 69.6739 61.0066 70.7738C62.5125 72.7882 64.1651 74.7007 65.9643 76.5073C68.2253 78.7537 69.705 81.6204 71.3216 84.3629C74.041 88.982 76.7489 93.5796 79.4597 98.2269C81.5701 101.85 83.5922 105.492 85.7132 109.135C86.1873 109.974 86.6911 110.822 87.224 111.679C87.3511 111.917 87.7256 111.717 87.5586 111.5C85.0933 107.357 82.7555 103.12 80.3485 98.9456C77.8891 94.6729 75.3598 90.4099 72.862 86.1577C71.8833 84.4692 70.8977 82.812 69.932 81.1442C69.1861 79.8915 68.3925 78.69 67.4729 77.5814C66.6962 76.5997 65.7725 75.7714 64.9388 74.8714C64.1774 74.059 63.4836 73.2362 62.8005 72.382C61.734 71.0461 60.7058 69.6897 59.7277 68.283C58.9453 67.1504 58.0684 66.1216 57.0126 65.1863C54.2946 62.7008 51.0479 60.8802 47.9109 59.0248C45.3118 57.5192 42.7134 56.0113 39.9338 54.8289C38.0443 54.0351 36.1011 53.4732 34.1044 53.0918C33.4508 52.9576 32.7589 52.8438 32.1274 52.7511C31.9069 52.7149 31.8978 53.1262 32.1291 53.1309Z" fill="#010101"/>
</g>
<path d="M50.097 55.5501C50.9509 57.8102 51.8241 60.062 52.6688 62.3527C52.7759 62.6013 53.1105 62.4226 53.0034 62.174C52.1494 59.9139 51.2762 57.6622 50.4315 55.3714C50.3934 55.1117 50.0205 55.3109 50.097 55.5501Z" fill="#010101"/>
<path d="M44.6617 35.7226C47.6665 38.1319 50.6428 40.5802 53.6361 42.968C53.8201 43.1242 54.0397 42.7781 53.8557 42.6219C50.8517 40.2141 47.8754 37.7659 44.8812 35.3766C44.6874 35.202 44.4785 35.568 44.6617 35.7226Z" fill="#010101"/>
<path d="M52.8309 25.8497C52.6018 27.5481 52.5409 29.2809 52.5514 31.0032C52.5794 32.3336 52.6886 33.6718 52.8561 34.9789C53.1687 37.8358 53.45 40.6819 53.7618 43.5372C53.9984 45.8233 54.3943 48.1268 54.9382 50.375C55.526 52.7536 56.5972 54.8996 57.4112 57.181C58.8354 61.2216 59.775 65.3927 60.277 69.6456C60.3036 69.8839 60.7021 69.8249 60.6534 69.5452C60.202 65.6716 59.353 61.8584 58.1476 58.135C57.7085 56.7442 57.179 55.3759 56.6111 54.0282C56.2041 53.0778 55.8264 52.0862 55.5368 51.0712C54.2225 46.3388 53.9583 41.3493 53.4096 36.4881C53.1891 34.801 52.9909 33.104 52.9229 31.4144C52.8785 29.5326 52.975 27.6782 53.1993 25.8305C53.273 25.5879 52.8641 25.5795 52.8309 25.8497Z" fill="#010101"/>
<path d="M73.6666 10.7346C72.5877 12.1235 71.6731 13.6278 70.9717 15.2471C70.3179 16.8152 69.9067 18.457 69.5552 20.1183C69.3009 21.3448 69.0289 22.6342 68.6759 23.8642C68.4479 24.6192 68.1901 25.3664 67.9429 26.1335C66.9419 29.4632 66.2223 32.8951 65.5717 36.3157C65.0901 38.9597 64.6973 41.6332 64.3459 44.2845C63.8966 47.7496 63.7068 51.2279 64.0384 54.7335C64.3488 58.1992 65.0761 61.596 65.7626 65.0127C66.4473 68.3297 67.3313 71.5916 68.5212 74.7651C69.9045 78.4448 71.6631 81.926 73.7063 85.2789C75.7175 88.5719 77.7309 91.9171 80.1046 94.9396C82.4775 97.9645 85.2907 100.628 88.3788 102.865C88.9195 103.26 89.4902 103.668 90.09 104.034C90.3131 104.167 90.5327 103.821 90.3096 103.688C87.2985 101.739 84.5448 99.3755 82.1306 96.702C79.532 93.8232 77.4838 90.6012 75.4319 87.328C73.3823 84.0554 71.4392 80.7496 69.9397 77.2326C68.5074 73.9341 67.4296 70.4976 66.6086 66.9733C65.8576 63.7686 65.214 60.5322 64.7506 57.2489C64.2099 53.7287 64.1252 50.1168 64.4921 46.5932C65.1288 40.31 66.2442 34.0255 67.8736 27.8985C68.3697 26.0831 69.008 24.3457 69.4452 22.5125C69.8008 21.0029 70.0754 19.4341 70.4502 17.9123C70.9471 16.0985 71.6748 14.3883 72.648 12.8014C73.0586 12.1521 73.5089 11.5289 73.9507 10.9379C74.1759 10.7427 73.8106 10.5314 73.6666 10.7346Z" fill="#010101"/>
<path d="M71.9704 27.663C70.336 29.5261 68.4694 31.2351 66.4438 32.6463C66.2181 32.7925 66.4083 33.1486 66.6233 32.9824C68.7088 31.5392 70.5967 29.8702 72.2665 27.9369C72.4227 27.7529 72.125 27.4799 71.9704 27.663Z" fill="#010101"/>
<path d="M77.6455 47.8997C76.8246 48.49 76.0953 49.1596 75.5109 50.0043C74.9443 50.7901 74.5697 51.651 74.1865 52.5401C73.6397 53.9762 72.9998 55.3338 72.3109 56.692C70.9407 59.3785 70.3376 62.3674 69.5335 65.2606C68.9307 67.5373 68.2782 69.8169 67.5845 72.0672C67.5031 72.3395 67.8947 72.4597 67.9761 72.1874C69.0702 68.5556 69.9815 64.8695 71.0221 61.1892C71.3732 59.8596 71.8353 58.5457 72.4172 57.3196C72.9752 56.1853 73.5799 55.0497 74.0452 53.8859C74.4549 52.8544 74.8141 51.8242 75.3652 50.8691C75.9848 49.8538 76.8183 48.951 77.7667 48.2669C78.0507 48.0896 77.8605 47.7336 77.6455 47.8997Z" fill="#010101"/>
<path d="M58.0941 87.6997C58.6242 88.0754 59.1073 88.5551 59.4237 89.1476C59.5614 89.4054 60.3273 91.028 59.5436 90.8864C59.2933 90.8425 58.9552 90.5418 58.7712 90.3856C58.5872 90.2295 58.4011 90.0251 58.2463 89.8276C57.8813 89.3361 57.646 88.7517 57.528 88.1539C57.3992 88.1971 57.2825 88.2594 57.1614 88.2727C57.2826 88.64 57.4635 89.0267 57.4359 89.4478C57.4083 89.8688 57.0049 90.4394 56.54 90.23C55.7111 89.86 56.0024 88.5623 56.506 88.0389C56.6529 87.8855 56.5045 87.6077 56.2681 87.734C55.9336 87.9127 55.5912 88.1211 55.2566 88.2998C54.9221 88.4785 54.5491 88.6777 54.1453 88.5383C53.6298 88.3303 53.2138 87.7398 52.9712 87.2855C52.8974 87.1474 52.8024 86.9694 52.8175 86.8094C52.8286 86.4977 53.2277 86.4878 53.4667 86.4627C53.7662 86.4546 54.0457 86.4572 54.3266 86.5104C55.0385 86.6134 55.686 86.9284 56.268 87.3533C56.4414 87.4896 56.6929 87.2034 56.5073 87.048C55.6891 86.3173 54.991 84.9622 55.2671 83.8245C55.3314 83.6126 55.44 83.2508 55.7933 83.3916C55.895 83.4379 55.9978 83.5861 56.091 83.6646C56.2862 83.8897 56.4337 84.166 56.5544 84.4842C56.8508 85.0873 57.0213 85.7833 57.0708 86.4926C57.2209 86.4894 57.3497 86.4462 57.4592 86.4627C57.3512 85.8359 57.2805 85.0867 57.6227 84.4975C57.9362 83.9987 58.6147 83.6107 59.1547 84.0088C59.7687 84.4935 59.4065 85.0933 58.9181 85.4567C58.3519 85.911 57.7858 86.3652 57.229 86.7888C57.3128 86.8979 57.4143 86.9956 57.4867 87.0832C58.1021 86.577 58.7883 86.1592 59.5078 85.8519C60.0309 85.6494 61.2818 85.3877 61.0904 86.4032C60.9401 87.0674 60.0832 87.45 59.46 87.6053C58.8552 87.7508 58.2035 87.7162 57.675 87.3396C57.4511 87.2048 57.2715 87.5295 57.4546 87.6842C58.1589 88.1977 59.026 88.1666 59.7966 87.9069C60.5497 87.6586 61.4523 87.1252 61.4769 86.2738C61.5121 85.4422 60.6945 85.1412 59.9803 85.2702C58.9479 85.4645 57.959 86.1208 57.1686 86.7718C56.9649 86.9555 57.232 87.2192 57.4279 87.0653C57.8963 86.7125 58.335 86.352 58.8035 85.9992C59.1453 85.7417 59.5077 85.4712 59.7166 85.1052C60.0482 84.4962 59.7483 83.7943 59.1703 83.5172C58.5236 83.2037 57.804 83.5111 57.4 84.0326C56.8598 84.7274 56.8877 85.6771 57.0309 86.514C57.0783 86.7431 57.4361 86.7039 57.4193 86.484C57.353 85.5549 57.118 84.6901 56.6775 83.9096C56.3936 83.426 55.8421 82.6298 55.2361 83.1053C54.6699 83.5596 54.7803 84.5677 54.9266 85.1741C55.1105 85.9911 55.5419 86.7509 56.177 87.327C56.2632 87.204 56.3707 87.121 56.4171 87.0193C55.6817 86.4475 54.7852 86.1392 53.8564 86.1027C53.1565 86.0701 52.0914 86.207 52.3895 87.1899C52.5877 87.8454 53.229 88.6213 53.8168 88.9169C54.7074 89.3545 55.6539 88.5709 56.4213 88.1611C56.3382 88.0536 56.2743 87.9339 56.1819 87.857C55.7659 88.3079 55.5525 88.8539 55.5908 89.4943C55.6263 90.0335 55.9134 90.6672 56.4951 90.7629C56.9986 90.9003 57.4864 90.4879 57.6833 90.0514C57.9345 89.4359 57.6766 88.761 57.4604 88.2157C57.3746 88.007 57.0586 88.1245 57.0938 88.3345C57.2287 89.1521 57.5989 89.8933 58.165 90.4806C58.5152 90.8518 59.3761 91.6623 59.9363 91.3374C60.5549 90.9814 60.1772 89.9898 59.9424 89.5057C59.5694 88.6634 58.9815 87.9872 58.2665 87.4537C58.1204 87.228 57.8902 87.5541 58.0941 87.6997Z" fill="#010101"/>
<path d="M64.112 87.6565C63.6441 88.0582 63.1989 88.5505 62.8042 89.0414C62.6125 89.2956 62.43 89.5706 62.2703 89.8847C62.1354 90.1086 61.9744 90.3722 62.0323 90.6726C62.0802 90.9508 62.2962 91.1668 62.5587 91.2298C62.8302 91.3136 63.1177 91.235 63.3725 91.099C63.8252 90.8572 64.1707 90.4182 64.3763 89.902C64.5906 89.3576 64.6213 88.7061 64.4066 88.1599C64.2777 88.2031 64.1595 88.2662 64.04 88.2788C64.072 88.3386 64.0826 88.3586 64.1138 88.4169C64.2408 88.6548 64.6138 88.4556 64.4484 88.2382C64.4172 88.1799 64.4066 88.1599 64.3746 88.1001C64.2697 87.9036 63.9231 88.0118 64.0089 88.2205C64.2915 89.0341 64.0875 89.93 63.4352 90.5073C63.2707 90.672 63.0742 90.777 62.8458 90.822C62.6757 90.8359 62.4441 90.7308 62.4379 90.531C62.4219 90.3127 62.6249 90.076 62.749 89.8835C62.8823 89.6604 63.0148 89.4358 63.1695 89.2526C63.5336 88.7524 63.9218 88.3419 64.4097 87.9295C64.5955 87.8046 64.3255 87.4911 64.112 87.6565Z" fill="#010101"/>
<path d="M71.5225 91.2693C71.4842 90.6289 71.4367 90.0192 71.4192 89.3697C71.4057 89.3 71.4136 89.2188 71.4024 89.1498C71.4117 89.1192 71.4181 89.0389 71.387 88.9805C71.3963 88.9499 71.3963 88.9499 71.387 88.9805C71.4069 88.9699 71.4567 88.967 71.4567 88.967C71.4873 88.9763 71.547 88.9957 71.5776 89.005C71.7589 89.0601 71.9016 89.187 71.9967 89.365C72.5895 90.1905 72.0091 91.1869 71.5423 91.9195C71.409 92.1426 71.7543 92.3645 71.8876 92.1414C72.3759 91.3974 72.8885 90.5141 72.5632 89.6207C72.442 89.2534 72.1837 88.9101 71.8184 88.6988C71.6265 88.6238 71.3933 88.5196 71.1862 88.6045C70.9314 88.7406 70.9589 88.9804 70.964 89.2301C70.9945 89.9003 71.054 90.5806 71.073 91.2292C71.1402 91.4991 71.53 91.5197 71.5225 91.2693Z" fill="#010101"/>
<path d="M76.1758 87.8199C76.0378 87.2328 75.9597 86.6137 75.952 85.9827C75.944 85.6832 75.9642 85.3923 76.016 85.0609C76.0391 84.8197 76.1112 84.578 76.3262 84.4119C76.6502 84.2132 77.0488 84.5349 77.207 84.8311C77.419 85.2761 77.175 85.8128 76.9462 86.1894C76.5946 86.8092 76.1621 87.3696 75.78 87.98C75.6467 88.2031 75.992 88.425 76.1269 88.2011C76.5274 87.5808 76.9692 86.9898 77.3301 86.3395C77.6153 85.8321 77.8273 85.2356 77.5706 84.6625C77.3578 84.216 76.8988 83.8773 76.3937 83.9695C75.7171 84.0764 75.6015 84.9015 75.5787 85.4719C75.5419 86.3043 75.6155 87.1033 75.7879 87.8988C75.8551 88.1687 76.2422 88.0882 76.1758 87.8199Z" fill="#010101"/>
<path d="M71.4497 80.1087C71.5691 79.7155 71.6969 79.3416 71.8674 78.996C71.9409 78.8049 72.0771 78.6316 72.1711 78.4788C72.2573 78.3558 72.3799 78.1128 72.55 78.0989C72.6789 78.0557 72.8003 78.1427 72.8634 78.2609C72.9572 78.3884 72.9535 78.5699 72.9567 78.72C72.9171 79.0706 72.7879 79.4453 72.6175 79.7395C72.4078 80.104 72.1683 80.4607 71.8579 80.729C71.6527 80.9136 71.9504 81.1866 72.1157 81.0233C72.446 80.7444 72.7254 80.3663 72.9323 79.9521C73.1198 79.5462 73.3175 79.1112 73.3345 78.6701C73.3621 78.2491 73.1593 77.7735 72.7078 77.6852C72.2249 77.5861 71.922 78.1049 71.7123 78.4693C71.4172 78.9583 71.2102 79.4239 71.0474 79.9685C70.9645 80.2416 71.347 80.3411 71.4497 80.1087Z" fill="#010101"/>
<path d="M71.9457 58.6111C71.4455 58.2432 71.1426 57.7204 70.868 57.2063C70.7311 56.95 70.6119 56.6823 70.5348 56.394C70.4277 56.1455 70.3292 55.8687 70.2727 55.6188C70.2141 55.3207 70.5951 55.421 70.7393 55.5471C70.9447 55.7432 71.0723 56.0301 71.1993 56.268C71.4851 56.8511 71.6934 57.4775 71.8213 58.0937C71.89 58.3628 72.2649 58.2632 72.1985 57.9948C72.0898 57.3665 71.8729 56.7722 71.6077 56.2274C71.3956 55.7824 71.1163 55.1189 70.6042 55.0097C70.403 54.9653 70.1754 55.0119 70.0101 55.1751C69.8456 55.3399 69.8332 55.601 69.9181 55.8081C70.1145 56.3641 70.2908 56.9307 70.5455 57.4555C70.8312 58.0386 71.2153 58.5693 71.7063 58.9678C71.9501 59.0921 72.1697 58.746 71.9457 58.6111Z" fill="#010101"/>
<path d="M65.2891 75.5744C64.7098 75.8601 64.1488 76.1834 63.5866 76.4087C63.3795 76.4937 63.1511 76.5387 62.9378 76.4238C62.7269 76.3096 62.5613 76.1436 62.4569 75.9962C62.3943 75.927 62.3312 75.8088 62.2894 75.7306C62.2468 75.6508 62.144 75.5025 62.1411 75.4528C62.1271 75.2827 62.4937 75.1638 62.6119 75.1007C63.0359 74.9492 63.504 74.9281 63.9563 75.0179C64.4384 75.1154 64.9251 75.4137 65.2276 75.836C65.2702 75.9159 65.401 75.9723 65.4992 75.9198C65.5775 75.878 65.6538 75.7366 65.5806 75.6475C64.8957 74.6937 63.6265 74.3044 62.5306 74.7122C62.2836 74.8184 61.9676 74.9359 61.8151 75.1712C61.6525 75.4356 61.8107 75.7318 61.9263 75.9482C62.2501 76.4104 62.6349 76.9426 63.2629 76.9366C63.6327 76.9679 63.9859 76.728 64.3602 76.5794C64.7653 76.3887 65.1582 76.1789 65.5924 75.9983C65.7156 75.8042 65.5254 75.4482 65.2891 75.5744Z" fill="#010101"/>
<path d="M61.4965 80.7265C61.3877 80.0982 61.2385 79.4421 61.1399 78.7847C61.1252 78.613 61.082 78.4842 61.0666 78.3149C61.0447 78.226 61.0527 78.1448 61.0186 78.0368C61.0279 78.0062 60.9746 77.9064 61.0039 77.8651C61.1173 77.6527 61.4874 78.0133 61.5499 78.0824C61.8602 78.475 61.9447 79.0137 61.9491 79.4946C61.9554 80.0751 61.8814 80.5979 61.6774 81.1132C61.5731 81.3464 61.9663 81.4658 62.069 81.2335C62.4125 80.3143 62.488 79.1298 62.0917 78.1994C61.9109 77.8127 61.57 77.4109 61.1097 77.4023C60.8502 77.389 60.5939 77.5259 60.583 77.7862C60.5506 78.0579 60.6489 78.3861 60.6862 78.6443C60.7686 79.3637 60.8764 80.0419 61.0469 80.7379C61.1545 81.0354 61.5424 80.9565 61.4965 80.7265Z" fill="#010101"/>
<path d="M49.718 76.9325C49.9718 77.4558 49.998 78.0256 49.9561 78.6082C49.9442 78.9184 49.9133 79.1893 49.861 79.4717C49.8278 79.7419 49.7863 79.9929 49.6338 80.2282C49.5375 80.3802 49.3331 80.5663 49.132 80.4705C48.9784 80.375 48.8727 80.1771 48.8082 80.0083C48.675 79.5705 48.7606 79.0179 48.8664 78.555C49.0002 78.0003 49.2839 77.4937 49.7446 77.1708C49.8229 77.129 49.8793 76.9982 49.826 76.8985C49.7736 76.8002 49.6428 76.7438 49.5553 76.8162C49.0554 77.1582 48.7118 77.6967 48.5182 78.2834C48.3461 78.8586 48.2648 79.5115 48.4105 80.0688C48.4784 80.3363 48.6161 80.5942 48.8392 80.7275C49.0845 80.9023 49.3746 80.9248 49.6081 80.7489C50.1684 80.424 50.2036 79.5925 50.2863 78.9901C50.3734 78.2078 50.3504 77.4075 50.0312 76.7139C49.9745 76.5154 49.6415 76.6933 49.718 76.9325Z" fill="#010101"/>
<path d="M44.0915 78.0836C43.4842 77.8478 42.9086 77.5713 42.3984 77.185C42.1426 76.9902 41.8875 76.797 41.6617 76.5626C41.5288 76.4541 41.3746 76.3095 41.3599 76.1379C41.3152 76.0099 41.3503 75.8393 41.5005 75.836C41.6285 75.7913 41.8417 75.9062 41.9243 75.9647C42.0657 76.0411 42.2065 76.0684 42.3479 76.1448C42.6122 76.3074 42.8668 76.4516 43.1019 76.6554C43.5729 77.0646 43.9471 77.5769 44.1916 78.1308C44.2987 78.3793 44.6532 78.19 44.5262 77.9521C44.0362 76.8942 43.1326 76.0038 42.0214 75.5815C41.7506 75.4992 41.4564 75.325 41.1602 75.4832C40.9253 75.6086 40.824 75.8916 40.8606 76.1521C40.9192 76.4502 41.1663 76.7246 41.383 76.9383C41.599 77.1543 41.8234 77.3382 42.038 77.5037C42.5796 77.9009 43.2263 78.2143 43.8725 78.4787C44.2345 78.5398 44.314 78.1679 44.0915 78.0836Z" fill="#010101"/>
<path d="M45.6354 70.0462C45.1381 69.0671 45.2821 67.8225 45.9653 66.9744C45.8963 66.9855 45.8365 67.0175 45.7577 67.0103C46.3242 67.2659 46.4761 68.0231 46.3415 68.5763C46.1322 69.2739 45.5879 69.8171 45.1136 70.2992C44.9092 70.4853 45.2069 70.7583 45.3714 70.5936C45.9532 70.0284 46.6143 69.3715 46.7507 68.5373C46.8967 67.7729 46.5728 66.93 45.8747 66.6164C45.8252 66.5679 45.7269 66.6204 45.6671 66.6523C44.8157 67.614 44.6579 69.0692 45.2318 70.2361C45.4079 70.4735 45.7624 70.2841 45.6354 70.0462Z" fill="#010101"/>
<path d="M35.0299 71.2399C34.9607 72.344 34.378 73.5685 33.3955 74.1445C33.1408 74.2805 32.8525 74.3575 32.5511 74.266C32.3194 74.1609 32.1432 73.975 32.1556 73.7139C32.192 73.2131 32.6492 72.7914 32.9782 72.4619C33.5609 71.8982 34.1349 71.3628 34.9255 71.0924C35.171 70.987 35.0713 70.6083 34.8243 70.7145C34.0031 70.9756 33.36 71.5222 32.729 72.1393C32.2917 72.5504 31.7575 73.0645 31.6977 73.7059C31.6569 74.3866 32.2965 74.7827 32.8949 74.7176C33.6104 74.6392 34.201 73.9944 34.5944 73.4529C35.0149 72.822 35.2727 72.0748 35.3399 71.3031C35.4612 71.0095 35.0515 70.9995 35.0299 71.2399Z" fill="#010101"/>
<path d="M30.9959 69.5089C30.141 68.9496 29.1923 68.2629 28.8452 67.2805C28.7776 67.3423 28.7489 67.4326 28.672 67.5249C29.2597 67.4398 29.8077 67.7567 30.1805 68.2184C30.667 68.7969 30.8378 69.5933 30.9991 70.3199C31.0678 70.5889 31.4426 70.4893 31.3763 70.221C31.1924 69.4039 30.956 68.4887 30.4093 67.8417C29.9548 67.3231 29.2873 67.0188 28.6 67.1057C28.5111 67.1276 28.4142 67.2306 28.4291 67.3509C28.8101 68.4927 29.8093 69.178 30.7458 69.8456C30.9896 69.9698 31.2198 69.6437 30.9959 69.5089Z" fill="#010101"/>
<path d="M33.9286 64.5912C33.8273 64.2133 33.7247 63.7848 33.694 63.3949C33.6573 63.1857 33.6633 63.0049 33.6664 62.7744C33.6709 62.5945 33.6342 62.3853 33.6786 62.1841C33.7166 62.0632 33.8886 62.1489 33.9304 62.2271C34.0226 62.3554 34.0793 62.5539 34.1345 62.7533C34.2037 63.0713 34.1834 63.4136 34.1637 63.7535C34.1148 64.1347 33.9749 64.4895 33.7447 64.8156C33.6113 65.0387 33.9582 65.2598 34.0916 65.0367C34.5384 64.3148 34.7118 63.4095 34.4997 62.5839C34.3984 62.206 34.1432 61.6321 33.6266 61.7542C33.399 61.8008 33.2856 62.0133 33.2625 62.2544C33.2394 62.4956 33.2261 62.7551 33.2536 62.9949C33.2599 63.5754 33.3672 64.1532 33.5223 64.6799C33.6094 64.9391 33.9965 64.8587 33.9286 64.5912Z" fill="#010101"/>
<path d="M40.8202 61.9784C40.2457 61.8039 39.6932 61.667 39.1472 61.4497C38.6938 61.2619 37.8806 60.7809 38.2827 60.1598C38.637 59.6412 39.3125 60.245 39.5703 60.5393C40.0142 61.038 40.3519 61.6703 40.6385 62.255C40.7566 62.1919 40.8748 62.1288 40.973 62.0763C40.6359 61.493 40.1595 60.8854 39.8622 60.2808C39.5978 59.7376 40.2135 58.2903 40.99 58.5107C41.7238 58.7027 41.6455 59.7861 41.5623 60.3394C41.4703 60.9724 41.2375 61.578 40.8948 62.1181C41.0148 62.1546 41.1655 62.2003 41.2864 62.2383C41.3772 60.8939 42.3899 58.9565 43.9412 59.0689C44.3102 59.0987 44.6356 59.3312 44.6984 59.7296C44.7718 60.1994 44.4447 60.6285 44.1043 60.9366C43.3737 61.5556 42.3453 61.9016 41.4431 62.1034C41.5042 62.1733 41.6072 62.2702 41.669 62.3378C41.9007 61.4014 45.32 62.9285 45.073 64.0763C44.8982 64.931 43.3154 64.0504 42.9011 63.8397C42.2599 63.4444 41.6859 62.9383 41.2095 62.3307C41.102 62.4138 41.0058 62.5144 40.9167 62.5877C41.4245 63.2061 42.0199 63.7521 42.467 64.4009C42.9967 65.1082 42.7447 65.7261 42.1629 66.2913C41.9976 66.4545 41.8651 66.6791 41.5781 66.4261C41.4543 66.3383 41.3986 66.09 41.3346 65.9703C41.1871 65.694 41.0872 65.3666 40.9995 65.0584C40.8383 64.3318 40.7966 63.5927 40.9549 62.8474C40.9993 62.6462 40.7234 62.4621 40.5725 62.6966C40.2599 63.3448 39.9126 64.0648 39.2634 64.4115C38.5559 64.7894 37.8285 64.5171 37.4205 63.8454C37.273 63.5691 37.1241 63.2423 37.2347 62.9287C37.3805 62.4446 37.8749 62.3324 38.3245 62.3211C39.1021 62.2628 39.9128 62.3625 40.7016 62.3732C40.9611 62.3864 40.9703 61.9752 40.7108 61.9619C40.1203 61.9459 39.4816 61.9319 38.892 61.9174C38.4133 61.9186 37.8926 61.8929 37.4507 62.1033C36.6727 62.4932 36.6587 63.3646 37.066 64.0347C37.4867 64.7746 38.2479 65.2064 39.0891 64.9347C40.0283 64.6619 40.5219 63.7394 40.9476 62.9262C40.826 62.8906 40.7046 62.8035 40.5637 62.7762C40.3811 63.7121 40.4409 64.7216 40.7462 65.6257C40.9319 66.1617 41.3682 67.4514 42.1322 66.9428C42.7295 66.5469 43.3144 65.7512 43.1732 65.014C43.0793 64.5059 42.7185 64.1147 42.4088 63.7712C42.0169 63.3217 41.6135 62.8507 41.23 62.3691C41.0455 62.1639 40.7939 62.4501 40.938 62.6276C41.6333 63.5009 42.5008 64.1797 43.5415 64.6141C43.9651 64.7942 44.5005 64.9915 45.0052 64.7989C45.3694 64.6794 45.5783 64.3134 45.5276 63.9341C45.4244 63.0759 44.4052 62.4012 43.6866 62.0493C43.1101 61.7713 41.5886 61.2899 41.337 62.237C41.3005 62.3571 41.414 62.5253 41.5628 62.4714C42.6635 62.213 44.0462 61.729 44.7794 60.8305C45.3202 60.1846 45.2968 59.055 44.4096 58.7161C43.5928 58.4166 42.7677 58.9066 42.1843 59.4727C41.438 60.2026 40.987 61.2049 40.9273 62.227C40.9228 62.4069 41.1851 62.5213 41.3189 62.3472C41.7575 61.6061 42.0325 60.7471 42.0672 59.8666C42.0966 59.1644 41.8483 58.1786 41.0283 58.1096C40.1671 58.0113 39.6471 59.0248 39.4769 59.6996C39.3681 60.1127 39.537 60.4289 39.7471 60.7743C40.0416 61.2778 40.3546 61.7714 40.6882 62.2521C40.8352 62.4793 41.1498 62.3113 41.0228 62.0734C40.6404 61.3131 40.1764 60.4444 39.4908 59.8697C39.0517 59.5203 38.3685 59.3269 37.9928 59.857C37.6287 60.3572 37.8575 61.022 38.3179 61.4113C38.963 61.9544 39.9758 62.1 40.7614 62.3412C40.9747 62.4561 41.0519 62.0835 40.8202 61.9784Z" fill="#010101"/>
<path d="M27.4238 59.8875C26.8852 59.54 26.3159 59.1833 25.7864 58.8566C25.5419 58.6833 25.2078 58.5304 25.209 58.2003C25.1922 57.9805 25.3761 57.756 25.5726 57.6511C26.053 57.3689 26.6039 57.7355 26.8436 58.14C27.1488 58.6635 27.1173 59.3135 27.0554 59.9068C27.2047 59.902 27.3335 59.8588 27.4438 59.8769C27.0279 58.6255 28.4487 57.3597 29.6508 57.8598C30.2679 58.1141 30.635 59.0858 29.9487 59.5036C29.2703 59.8916 28.3909 59.5229 27.6559 59.661C27.7014 59.7905 27.7246 59.93 27.7571 60.0389C28.3513 59.8735 29.0445 59.6571 29.6924 59.6405C30.231 59.6073 31.0166 59.8485 30.9957 60.5185C31.0046 60.8195 30.8037 61.1044 30.4736 61.1031C30.214 61.0899 29.998 60.8738 29.7954 60.7788C29.2363 60.393 28.6258 60.007 28.0443 59.6311C27.8227 59.4969 27.6416 59.8225 27.8248 59.9771C28.2939 60.2868 28.6255 60.7192 28.8103 61.2537C28.9528 61.6609 29.1479 62.5469 28.6155 62.7799C27.9934 63.0372 27.8063 62.07 27.7955 61.6694C27.7877 61.0897 27.7722 60.5398 27.7757 59.9777C27.789 59.7181 27.3992 59.6975 27.3668 59.9692C27.2749 60.6022 27.1645 61.245 27.0726 61.878C27.0237 62.2592 26.6598 63.5206 26.0732 62.895C25.662 62.4538 26.0242 61.854 26.322 61.4662C26.6781 61.0471 27.0585 60.7178 27.2748 60.2216C27.3474 60.0289 27.086 59.9161 26.9484 60.0389C26.4799 60.3916 25.9702 60.7151 25.3888 60.9487C25.1418 61.055 24.6706 61.3066 24.4619 61.0118C24.3561 60.8138 24.4277 60.5231 24.5218 60.3189C25.0418 59.3055 26.3309 59.6842 27.206 59.9525C27.4776 60.0363 27.5571 59.6644 27.3255 59.5593C26.6301 59.3469 25.875 59.115 25.172 59.3129C24.6169 59.4555 24.1211 59.9491 24.018 60.5131C23.914 61.0755 24.2411 61.6879 24.8858 61.5211C25.7389 61.3199 26.554 60.859 27.2184 60.3523C27.1167 60.306 26.9944 60.2174 26.8928 60.1711C26.5937 60.8891 25.7667 61.2795 25.5195 62.0466C25.3538 62.5415 25.5038 63.1991 26.0091 63.4362C26.6076 63.7517 27.0899 63.1884 27.2842 62.6546C27.4028 62.2599 27.4304 61.8388 27.5192 61.4363C27.5944 60.9641 27.6619 60.5217 27.7265 60.0296C27.5787 60.0336 27.467 60.0163 27.3168 60.0196C27.3212 60.5005 27.3242 60.9309 27.3286 61.4119C27.338 61.7619 27.3197 62.1524 27.4409 62.5196C27.645 63.0458 28.1963 63.4614 28.7671 63.2079C29.358 62.8923 29.3733 62.0715 29.2581 61.5234C29.0863 60.7769 28.629 60.1571 27.998 59.7327C27.9118 59.8557 27.8647 59.9558 27.7785 60.0788C28.1856 60.3683 28.6227 60.6181 29.0307 60.9092C29.376 61.1311 29.7141 61.4318 30.1082 61.5527C30.7131 61.7879 31.289 61.3521 31.361 60.7297C31.4219 60.0384 30.8172 59.5231 30.1651 59.388C29.3303 59.1987 28.4322 59.5522 27.6296 59.752C27.3612 59.8184 27.4625 60.1963 27.7308 60.1299C28.6335 59.9772 29.958 60.5145 30.5475 59.5389C30.9384 58.8488 30.5825 57.9461 29.8951 57.6524C28.406 56.8993 26.4939 58.4787 27.0309 60.0974C27.1105 60.1061 27.41 60.0981 27.4238 59.8875C27.513 59.1534 27.4871 58.3033 26.9923 57.7056C26.5995 57.2545 25.9014 56.9409 25.3411 57.2658C24.8607 57.5481 24.5903 58.1757 24.9224 58.6572C25.1219 58.9826 25.5668 59.2026 25.8924 59.3838C26.3387 59.6544 26.7657 59.9332 27.2242 60.2229C27.4574 60.3272 27.6264 59.9825 27.4238 59.8875Z" fill="#010101"/>
<path d="M28.4743 51.3524C27.7055 51.331 26.9732 51.5702 26.2368 51.6578C25.6506 51.742 24.1507 51.6298 24.2842 50.7458C24.3073 50.5047 24.3286 50.5446 24.5357 50.4596C24.594 50.4285 24.6845 50.4058 24.7633 50.413C24.9718 50.3786 25.2002 50.3335 25.3894 50.3074C25.8255 50.2264 26.2347 50.1874 26.6941 50.1945C27.4843 50.2558 28.25 50.5076 28.7676 51.1445C28.8547 51.023 28.9622 50.94 29.0085 50.8383C28.1762 50.3695 27.3817 49.8273 26.5574 49.2773C25.9982 48.8915 24.8216 47.9182 25.6994 47.2462C26.393 46.6982 27.335 47.1361 27.7715 47.7649C28.3019 48.4738 28.4392 49.44 28.5433 50.2997C28.6721 50.2565 28.8116 50.2333 28.9197 50.1993C28.795 49.3526 29.0913 48.5336 29.6207 47.8701C30.0255 47.3502 31.2032 46.3385 31.7941 47.0644C32.4567 47.8803 31.6239 48.7807 30.9683 49.2078C30.2528 49.6668 29.4933 49.9955 28.9837 50.6996C28.8291 50.8828 29.1254 51.1053 29.2907 50.942C29.9245 50.426 30.6826 50.0468 31.478 49.9258C32.0642 49.8415 33.8661 49.6662 33.8243 50.6294C33.8002 51.5299 32.4357 51.6748 31.7664 51.6515C30.9976 51.6302 30.2319 51.3783 29.5902 50.934C29.5545 51.0556 29.4675 51.177 29.4425 51.3186C30.0738 51.4627 30.6504 51.6893 31.1712 52.0956C31.67 52.4644 32.219 53.1121 32.1271 53.7451C32.0181 54.4384 31.4427 53.8818 31.1769 53.6686C30.9503 53.4327 30.6739 53.1996 30.4665 52.9553C30.0135 52.4358 29.5577 51.8666 29.2 51.2449C29.0818 51.308 28.9637 51.3711 28.8654 51.4236C29.2417 51.9841 29.1439 52.7464 28.7093 53.2586C28.3452 53.7588 27.5778 54.1686 26.9992 53.8425C26.786 53.7276 26.59 53.5009 26.5726 53.232C26.482 52.874 26.6957 52.6573 26.9691 52.4601C27.5856 52.0558 28.2761 51.7384 28.9253 51.3916C29.1601 51.2662 28.9806 50.9301 28.7458 51.0555C28.2041 51.3192 27.693 51.5921 27.1527 51.9063C26.8181 52.085 26.4053 52.3055 26.2368 52.6993C25.9864 53.3163 26.3659 54.0269 26.9317 54.2849C28.5896 54.9735 30.1286 52.6032 29.2298 51.2527C29.0836 51.027 28.7291 51.2163 28.8952 51.4314C29.4411 52.3095 30.0922 53.1039 30.821 53.8074C31.2231 54.2279 32.0614 54.9479 32.519 54.1946C32.8714 53.5764 32.4066 52.7062 31.9832 52.2458C31.3753 51.5803 30.5159 51.201 29.6499 50.9534C29.4395 50.8882 29.2876 51.1725 29.5014 51.3365C30.3164 51.917 31.3432 52.1813 32.3591 52.0964C33.1942 52.0054 34.4217 51.6556 34.362 50.5947C34.3016 49.5361 32.8023 49.4729 32.0455 49.5221C30.999 49.5977 29.9726 50.0433 29.1637 50.7041C29.2875 50.7919 29.369 50.9002 29.4707 50.9465C30.1719 49.9881 31.5131 49.7551 32.2327 48.7869C32.7131 48.124 32.7288 46.9716 31.8795 46.5632C31.0187 46.1333 29.937 47.0404 29.446 47.6833C28.8275 48.42 28.517 49.3492 28.6634 50.3362C28.7122 50.6159 29.0885 50.5154 29.0406 50.2373C28.9006 49.17 28.6953 47.9324 27.8342 47.1732C27.209 46.6195 26.2149 46.4127 25.5319 46.9806C24.7616 47.5695 25.1295 48.5428 25.7147 49.1178C26.0939 49.4992 26.5929 49.8166 27.0804 50.1164C27.6795 50.4809 28.29 50.867 28.8891 51.2315C29.1023 51.3464 29.2955 51.0913 29.1299 50.9253C28.5001 50.1709 27.5318 49.824 26.533 49.8486C25.9755 49.8425 25.449 49.9462 24.9118 50.0299C24.5341 50.0798 24.0184 50.152 23.859 50.5665C23.5642 51.3848 24.7 51.9972 25.3017 52.0822C26.3839 52.2656 27.4061 51.7197 28.4957 51.7729C28.7262 51.7761 28.7339 51.3657 28.4743 51.3524Z" fill="#010101"/>
<path d="M39.1525 54.7387C38.6596 54.2405 38.2237 53.6607 37.7984 53.1007C37.6514 52.8735 37.011 52.0991 37.4729 51.8781C37.6693 51.7731 37.9244 51.9663 38.058 52.0725C38.274 52.2885 38.4508 52.5235 38.5983 52.7998C38.8836 53.3339 39.0006 53.9815 38.9898 54.6224C38.9774 54.8835 39.3871 54.8935 39.3995 54.6324C39.4316 54.0314 39.3151 53.4328 39.0997 52.8891C38.9161 52.4013 38.5704 51.8501 38.1035 51.5926C37.6891 51.3818 37.1307 51.4257 36.9742 51.8899C36.8284 52.3741 37.1416 52.8164 37.4212 53.1996C37.8692 53.85 38.3756 54.4178 38.8805 54.9865C39.0267 55.2122 39.3394 54.9446 39.1525 54.7387Z" fill="#010101"/>
<path d="M48.2309 59.013C47.9256 59.531 47.6433 60.0882 47.3274 60.5863C47.0986 60.963 46.6753 61.4928 46.1778 61.2259C45.7022 60.9966 46.1084 60.5272 46.3511 60.3206C46.8219 59.9686 47.3301 59.6459 47.8825 59.4022C48.1188 59.276 47.9393 58.9399 47.703 59.0661C47.1812 59.3191 46.6808 59.612 46.2115 59.9632C45.9089 60.2018 45.5195 60.5104 45.5422 60.9815C45.5666 61.4517 46.0136 61.7199 46.4339 61.7499C46.9531 61.7764 47.3199 61.3773 47.5894 60.9809C47.9521 60.4302 48.2539 59.8133 48.5578 59.2447C48.6981 58.9903 48.3634 58.7883 48.2309 59.013Z" fill="#010101"/>
<path d="M50.096 53.1355C50.2292 53.5732 50.2735 54.0329 50.3154 54.4918C50.3184 54.9221 50.3047 55.5133 50.0788 55.9397C49.8499 56.3164 49.5189 55.933 49.4297 55.6256C49.3439 55.4169 49.2989 55.1885 49.2621 54.9793C49.1674 54.4697 49.2145 53.9889 49.3203 53.5261C49.2101 53.508 49.0599 53.5113 48.9505 53.4947C49.043 53.9523 49.0474 54.4332 48.9016 54.9174C48.8109 55.2203 48.3525 56.3528 47.9857 55.7103C47.7857 55.3359 47.8091 54.8145 47.8367 54.3934C47.893 53.882 48.0387 53.3978 48.2356 52.9613C48.3304 52.8101 48.1743 52.5621 47.9778 52.667C47.4069 52.9719 46.8033 52.7873 46.2567 52.521C45.7093 52.2532 45.069 51.8594 45.0401 51.1884C44.9709 51.251 44.8727 51.3034 44.8157 51.3851C45.936 51.4476 47.0478 51.919 47.8674 52.7003C48.0224 52.8464 48.337 52.6783 48.1708 52.4633C47.7549 51.8728 47.4172 51.2405 47.1101 50.6174C46.9817 50.329 46.8512 49.9923 46.8631 49.6822C46.9027 49.3316 47.1116 48.9656 47.492 49.0169C48.0617 49.042 48.4042 49.8237 48.5865 50.2609C48.9042 50.9039 49.0654 51.6305 49.1164 52.339C49.265 52.3366 49.393 52.2919 49.5048 52.3091C49.3362 51.7127 49.2788 51.0845 49.3606 50.4806C49.4383 50.0092 49.7254 48.5598 50.4134 48.9025C50.9914 49.1797 51.0244 49.9984 50.86 50.5438C50.6202 51.1808 50.0541 51.635 49.5263 52.0688C49.6094 52.1763 49.7132 52.2747 49.7857 52.3623C50.4944 51.6543 51.6624 50.6242 52.5991 51.6211C52.8257 51.8571 53.0151 52.2116 52.8233 52.5172C52.6431 52.793 52.3257 52.8599 52.0063 52.8786C51.4478 52.9224 50.8583 52.8565 50.3257 52.7603C50.0754 52.7165 49.956 53.1096 50.2078 53.1527C50.9303 53.2757 51.913 53.461 52.6048 53.1941C53.236 52.9576 53.5164 52.3009 53.1609 51.7274C52.8046 51.1563 52.2553 50.7889 51.5474 50.8375C50.7123 50.9285 50.0898 51.5134 49.5186 52.0986C49.3142 52.2847 49.5919 52.5683 49.7764 52.3929C50.45 51.8556 51.17 51.2166 51.3035 50.3327C51.4125 49.6393 51.1804 48.8243 50.4929 48.5306C49.6242 48.1819 49.2451 49.2227 49.0842 49.8669C48.8597 50.7245 48.8556 51.6143 49.089 52.4799C49.1764 52.6877 49.5049 52.6898 49.4774 52.45C49.4112 51.5208 49.1855 50.6255 48.7221 49.8058C48.4483 49.2932 47.9833 48.7032 47.3253 48.7489C46.6174 48.7975 46.3503 49.5753 46.4484 50.1837C46.6158 51.1102 47.2318 52.0752 47.7934 52.8424C47.8994 52.7602 48.0176 52.6971 48.0945 52.6047C47.2024 51.7359 46.0003 51.2357 44.7699 51.1552C44.6589 51.1395 44.5612 51.241 44.5455 51.3519C44.5793 52.1722 45.2627 52.6948 45.9409 53.0191C46.6006 53.3532 47.3932 53.5631 48.0725 53.1766C47.9886 53.0676 47.8856 52.9707 47.8147 52.8823C47.5036 53.5298 47.3241 54.2351 47.3437 54.9367C47.3481 55.4177 47.4097 56.1462 47.8951 56.3939C48.4524 56.6801 48.8816 55.9696 49.0585 55.5437C49.3497 54.9069 49.3698 54.2354 49.2421 53.5679C49.2053 53.3587 48.8952 53.3468 48.8707 53.5374C48.7204 54.2015 48.7003 54.873 48.868 55.5193C49.0012 55.957 49.2255 56.8018 49.8516 56.6962C50.4378 56.612 50.5547 55.8374 50.6116 55.3751C50.7001 54.6433 50.627 53.8934 50.4274 53.1873C50.4273 52.8066 50.0509 52.907 50.096 53.1355Z" fill="#010101"/>
<path d="M41.2988 32.6423C40.5832 32.7207 39.8527 32.6789 39.1666 32.4358C38.5098 32.1514 37.7254 31.5801 37.9512 30.7731C38.2042 29.8766 39.0623 30.2053 39.5844 30.6622C40.1292 31.2096 40.5694 31.8898 40.9596 32.6203C41.0653 32.8183 41.4119 32.7101 41.3261 32.5015C41.0513 31.6581 41.1727 30.7036 41.7527 30.0388C42.3142 29.3839 43.4165 28.8958 44.2653 29.2551C44.6904 29.4344 44.8626 29.9007 44.8059 30.3117C44.7291 30.7847 44.4313 31.1725 44.061 31.4728C43.3688 32.0714 42.4264 32.5746 41.4902 32.6683C41.5334 32.7971 41.5965 32.9153 41.6114 33.0356C42.2071 32.6405 42.8643 32.2126 43.6006 32.1251C44.1975 32.0608 44.9605 32.2115 45.2862 32.7733C45.7496 33.593 44.6587 33.8698 44.0983 33.8141C43.4077 33.7509 42.7994 33.417 42.1824 33.1113C41.9905 33.0363 41.756 33.2621 41.9416 33.4175C42.6597 34.101 44.0106 34.5473 44.1996 35.6141C44.2238 35.7038 44.2689 35.9322 44.1827 36.0551C43.991 36.3094 43.6622 35.9781 43.5472 35.8107C43.4002 35.5835 43.2832 35.3165 43.1463 35.0602C42.8718 34.546 42.5958 33.9813 42.322 33.4687C42.2163 33.2707 41.9203 33.3776 41.9555 33.5876C42.048 34.0451 42.0523 34.526 41.9358 34.969C41.8172 35.3637 41.5048 35.9606 41.102 36.152C40.6003 36.3943 40.6479 35.3017 40.7294 35.0294C40.8751 34.5452 41.173 34.1574 41.659 34.026C41.6151 33.8956 41.5918 33.7561 41.5578 33.6481C40.9458 33.8724 40.304 34.0889 39.6798 34.294C39.1069 34.4994 38.2737 34.6899 37.8101 34.1505C37.6133 33.9262 37.5227 33.5682 37.7045 33.2916C37.9453 32.9855 38.5265 33.0321 38.8444 33.0142C39.5522 32.9656 40.2486 32.8994 40.9764 32.8401C41.2155 32.815 41.2431 32.394 40.984 32.4297C40.4562 32.4828 39.9376 32.5053 39.4203 32.5784C38.9531 32.6011 38.4545 32.6129 37.9863 32.6855C37.383 32.8301 37.0691 33.4278 37.2867 34.0237C37.5461 34.6978 38.3318 34.939 38.9685 34.8534C39.8833 34.7712 40.7986 34.306 41.6689 34.0444C41.9159 33.9381 41.8146 33.5602 41.5685 33.668C40.9564 33.8923 40.4912 34.3952 40.3196 35.0194C40.2138 35.4823 40.2196 36.3944 40.7662 36.6608C41.3128 36.9271 41.9065 36.0517 42.0941 35.6458C42.4465 35.0276 42.5634 34.2531 42.3838 33.5363C42.255 33.5795 42.1368 33.6426 42.0172 33.6552C42.4295 34.4272 42.754 35.319 43.2637 36.037C43.5563 36.441 44.2137 36.7743 44.5373 36.2464C44.8532 35.7483 44.4729 35.0362 44.152 34.6237C43.6343 33.9869 42.8154 33.6353 42.2408 33.0801C42.1537 33.2016 42.0462 33.2847 41.9999 33.3863C42.7904 33.7768 43.661 34.2251 44.5573 34.1528C45.2154 34.1071 46.0012 33.6874 45.828 32.8903C45.6761 32.1331 44.8871 31.7418 44.1966 31.6786C43.1852 31.5836 42.2826 32.1169 41.4995 32.6377C41.3137 32.7626 41.4107 33.0402 41.6191 33.0058C42.2764 32.9585 42.907 32.673 43.4873 32.3375C43.9877 32.0446 44.4774 31.7318 44.8237 31.2943C45.364 30.5995 45.4851 29.3157 44.5447 28.8771C43.6022 28.3902 42.2899 28.9136 41.5917 29.6415C40.8353 30.4005 40.5989 31.5683 40.9489 32.6004C41.0778 32.5572 41.1944 32.4949 41.3155 32.4815C40.8614 31.6313 40.2718 30.5753 39.4089 30.0972C38.7586 29.6811 37.9063 29.8838 37.6285 30.6417C37.305 31.5502 37.9356 32.3062 38.7061 32.7074C39.5661 33.1357 40.5269 33.2321 41.4533 33.12C41.6284 32.9752 41.5671 32.576 41.2988 32.6423Z" fill="#010101"/>
<path d="M51.4993 23.2603C50.3052 22.679 49.2726 21.8832 48.3657 20.8941C48.3484 21.0059 48.3221 21.0969 48.3162 21.2263C49.7731 20.5488 50.7351 22.3981 51.2052 23.4667C51.3123 23.7152 51.6668 23.5259 51.5398 23.288C51.2186 22.5463 51.1052 21.7172 51.1618 20.9256C51.2218 20.2328 51.5133 19.2644 52.3618 19.2945C53.3811 19.3083 53.0572 20.5485 52.7854 21.1256C52.3988 21.9159 51.9204 22.6784 51.5438 23.4397C51.4105 23.6628 51.7559 23.8847 51.8907 23.6608C52.6492 22.3404 54.508 21.7028 55.8954 22.4096C56.3313 22.6088 56.7717 23.0088 56.746 23.5294C56.706 24.2116 56.129 24.2653 55.5958 24.12C54.5998 23.8137 53.5902 23.4376 52.5721 23.0937C52.4299 23.0158 52.2469 23.2418 52.3206 23.3799C52.7997 24.0886 53.6484 24.0673 54.3914 24.2287C54.9332 24.3457 55.3412 24.6367 55.6756 25.1189C55.9382 25.5626 56.4678 26.2699 56.3234 26.8047C56.1947 27.2285 55.6623 27.4615 55.2313 27.4116C54.6631 27.3856 54.2198 26.9359 53.8984 26.4744C53.2694 25.4888 53.0654 24.3017 52.1455 23.5247C51.9921 23.3778 51.6775 23.5459 51.8421 23.7617C52.5299 24.7653 53.5638 26.6531 52.12 27.4991C51.4232 27.897 50.3625 27.4732 50.427 26.6005C50.487 25.9076 51.1713 25.3903 51.6703 25.0468C51.8945 24.9014 51.7052 24.5469 51.4908 24.7107C50.9982 24.9738 50.5576 25.2347 50.0849 25.4872C49.6337 25.7282 49.1181 26.1811 48.5636 25.9959C47.6549 25.6685 46.8366 24.9378 46.1675 24.2537C46.1787 24.3227 46.1829 24.423 46.1941 24.4919C46.5914 23.7215 47.7181 23.7037 48.4651 23.6361C49.3814 23.5531 50.249 23.571 51.1496 23.599C51.4091 23.6122 51.4168 23.2018 51.1572 23.1885C50.1274 23.1034 49.1087 23.1385 48.0859 23.2548C47.2591 23.365 46.2538 23.4698 45.8473 24.2709C45.8209 24.3619 45.7946 24.4529 45.8747 24.5106C46.5865 25.2746 47.5384 26.1115 48.5253 26.3971C49.0088 26.5452 49.4203 26.2741 49.8132 26.0643C50.4318 25.7083 51.0211 25.3935 51.6299 25.0191C51.566 24.8994 51.5029 24.7812 51.4504 24.683C50.7847 25.1391 50.0035 25.7595 49.9589 26.6216C49.9357 27.5236 50.8032 28.2024 51.6484 28.0824C52.5634 27.9488 53.1669 27.0919 53.171 26.2021C53.1623 25.2402 52.6187 24.3628 52.1183 23.6142C52.0108 23.6972 51.8926 23.7604 51.8157 23.8527C52.8891 24.7766 52.9474 26.3965 54.0123 27.3525C54.7 27.9754 55.8805 28.1064 56.4785 27.3314C56.7763 26.9435 56.7413 26.4533 56.5293 26.0083C56.3024 25.443 55.9442 24.7723 55.4731 24.3631C55.0852 24.0614 54.6522 23.9119 54.1808 23.8343C53.6595 23.7557 52.9902 23.7324 52.6459 23.2318C52.5384 23.3149 52.4913 23.415 52.3944 23.518C53.1111 23.7704 53.8156 24.0037 54.5323 24.2561C55.0464 24.4135 55.7144 24.7668 56.2793 24.6427C56.7177 24.5624 56.9956 24.1852 57.083 23.7321C57.1569 23.2094 56.9143 22.7551 56.5442 22.3945C54.999 21.0598 52.4757 21.8236 51.5132 23.4304C51.6362 23.5166 51.7363 23.5637 51.8601 23.6515C52.1824 23.073 52.514 22.464 52.8163 21.8962C53.0531 21.4383 53.2998 21.0028 53.3965 20.5191C53.5732 19.764 53.2186 18.9118 52.3617 18.9139C51.4733 18.9051 50.9573 19.6896 50.8196 20.4732C50.629 21.4903 50.7705 22.5568 51.156 23.5186C51.2742 23.4555 51.3923 23.3924 51.4906 23.3399C51.1389 22.5375 50.7738 21.6654 50.0213 21.154C49.4598 20.7674 48.7274 20.626 48.0875 20.9421C47.9693 21.0052 47.9542 21.1652 48.0372 21.2727C48.9748 22.2711 50.0263 23.1061 51.2326 23.7065C51.5228 23.729 51.7317 23.363 51.4993 23.2603Z" fill="#010101"/>
<path d="M48.3462 38.1751C48.0181 37.8415 47.7861 37.4071 47.6708 36.9105C47.6249 36.6805 47.5975 36.4408 47.6006 36.2103C47.5974 36.0601 47.6263 35.6896 47.7829 35.606C47.9316 35.5522 48.0733 35.9578 48.1165 36.0866C48.2023 36.2953 48.2497 36.5244 48.2266 36.7656C48.2408 37.2649 48.1747 37.7579 48.0595 38.2514C48.1378 38.2096 48.187 38.1576 48.2852 38.1052C47.7573 38.1583 47.6514 38.6212 47.4425 38.9872C47.1743 39.4342 46.5618 39.6095 46.0583 39.472C45.8464 39.4076 45.6041 39.2826 45.6456 39.0316C45.69 38.8304 45.8753 38.6565 46.0717 38.5516C46.5522 38.2693 47.0987 38.155 47.6085 38.2121C47.8787 38.2453 47.8879 37.8341 47.6162 37.8017C46.9455 37.7279 46.2717 37.8845 45.7328 38.2493C45.3135 38.5501 44.9713 39.1393 45.4216 39.5576C45.8343 39.998 46.5911 39.9488 47.0836 39.7371C47.3705 39.6095 47.604 39.4335 47.7759 39.1386C47.8893 38.9261 48.0164 38.5032 48.2547 38.4765C48.3252 38.4645 48.4434 38.4014 48.4804 38.3303C48.6107 37.6769 48.7027 37.0439 48.5934 36.3665C48.5321 35.9673 48.2638 34.9921 47.6512 35.1674C47.077 35.3222 47.1419 36.2008 47.2046 36.6506C47.2934 37.2896 47.5805 37.9233 48.023 38.3714C48.2404 38.638 48.5217 38.3596 48.3462 38.1751Z" fill="#010101"/>
<path d="M53.3167 37.7801C52.8791 37.8619 52.4587 37.832 52.0471 37.7224C51.6646 37.6229 51.2308 37.4719 51.0308 37.0974C50.9131 36.8289 51.0019 36.4264 51.3304 36.4285C51.6405 36.4404 51.909 36.7546 52.0666 37.0018C52.3186 37.4255 52.5 37.8612 52.9571 38.1003C53.0572 38.1475 53.1568 38.1456 53.243 38.0226C53.2901 37.9225 53.2669 37.783 53.1644 37.7351C52.7088 37.4952 52.5844 36.9778 52.2926 36.5754C52.0334 36.2305 51.6263 35.941 51.2286 36.0015C50.762 36.0732 50.5166 36.5593 50.6091 37.0169C50.7136 37.545 51.2027 37.8439 51.6968 38.012C52.2698 38.1873 52.8302 38.2431 53.4563 38.1375C53.6661 38.1537 53.6048 37.7544 53.3167 37.7801Z" fill="#010101"/>
<path d="M53.3424 34.8438C53.3087 34.0235 53.6021 33.1547 54.1741 32.5711C54.2803 32.4375 54.4748 32.233 54.6746 32.2782C54.7946 32.3147 54.9389 32.4408 54.9722 32.5512C55.1517 32.8873 54.8837 33.2829 54.6607 33.5302C54.2647 33.9706 53.7648 34.3125 53.2332 34.5471C52.9969 34.6733 53.1756 35.0079 53.4119 34.8817C53.9536 34.618 54.4827 34.2348 54.9371 33.7633C55.2562 33.4154 55.5513 32.9264 55.3686 32.4401C55.2162 32.0146 54.7479 31.7064 54.3244 31.907C54.059 32.0231 53.8551 32.2582 53.6736 32.4834C53.5174 32.6674 53.3841 32.8905 53.2614 33.1335C52.9974 33.6808 52.8759 34.2547 52.8821 34.8352C52.9203 35.0949 53.33 35.1049 53.3424 34.8438Z" fill="#010101"/>
<path d="M55.7938 50.274C55.7524 49.8641 55.7907 49.463 55.9077 49.0691C55.9521 48.8678 56.0271 48.6759 56.1022 48.4839C56.1961 48.3312 56.2897 48.078 56.4556 47.9638C56.6321 47.8695 56.7977 48.0355 56.8792 48.1439C56.9729 48.2713 57.0267 48.4201 57.0324 48.571C57.083 48.9503 56.9239 49.3134 56.6825 49.5705C56.3235 49.9398 55.8507 50.1923 55.3889 50.4133C55.1525 50.5395 55.332 50.8756 55.5684 50.7494C56.0702 50.5071 56.5812 50.2341 56.968 49.8244C57.2886 49.4756 57.4826 48.9893 57.4301 48.5105C57.3658 48.0615 57.0814 47.5289 56.5814 47.4902C56.2713 47.4783 56.0591 47.6942 55.9058 47.928C55.7725 48.1511 55.6682 48.3843 55.5855 48.606C55.392 49.1413 55.3094 49.7437 55.3564 50.3044C55.3782 50.3933 55.4797 50.491 55.5992 50.4785C55.7494 50.4752 55.8156 50.3629 55.7938 50.274Z" fill="#010101"/>
<path d="M57.8905 58.5484C57.3634 58.603 56.8712 58.5345 56.377 58.3664C55.9335 58.197 55.4452 57.8995 55.3221 57.4327C55.2224 57.0539 55.4265 56.5386 55.8455 56.518C56.2339 56.4881 56.513 56.8223 56.7402 57.1073C56.8864 57.333 57.032 57.5097 57.1476 57.7261C57.3364 58.0316 57.4847 58.3094 57.692 58.6051C57.8381 58.8308 58.1927 58.6414 58.0265 58.4264C57.7 57.863 57.3943 57.2906 56.9909 56.8196C56.7019 56.4669 56.2828 56.1069 55.7948 56.1387C55.2363 56.1825 54.8417 56.6734 54.8373 57.234C54.8464 57.8643 55.249 58.3337 55.7565 58.6229C56.3649 58.9568 57.1258 59.0593 57.8336 59.0107C57.9226 58.9888 58.0407 58.9257 58.0573 58.8163C58.0838 58.6739 57.9794 58.5265 57.8905 58.5484Z" fill="#010101"/>
<path d="M65.265 38.1548C63.891 37.569 62.7689 36.3654 62.2686 34.9559C62.2593 34.9865 62.2321 35.076 62.2135 35.1372C62.8752 34.5294 63.7943 34.9281 64.3007 35.496C64.878 36.1522 65.182 37.0057 65.0869 37.8692C65.0745 38.1303 65.4658 38.1501 65.4966 37.8792C65.5778 36.8456 65.1759 35.7644 64.4279 35.073C63.751 34.4187 62.6659 34.1855 61.9052 34.8443C61.8469 34.8754 61.819 34.9672 61.8509 35.0271C62.4348 36.5931 63.5798 37.8358 65.1174 38.5394C65.3797 38.6538 65.4983 38.259 65.265 38.1548Z" fill="#010101"/>
<path d="M67.2536 28.2028C66.8344 27.8428 66.4936 27.441 66.1698 26.9788C66.0243 26.7507 65.8875 26.4944 65.7711 26.2765C65.6973 26.1383 65.6294 25.8708 65.7952 25.7566C65.9733 25.6615 66.2111 25.9665 66.2942 26.074C66.4787 26.2792 66.615 26.4865 66.782 26.7031C67.0446 27.1467 67.1967 27.6237 67.2522 28.1523C67.2749 28.2428 67.3779 28.3396 67.4974 28.3271C67.6263 28.2839 67.6633 28.2128 67.6698 28.0811C67.5808 27.1128 67.0849 26.1843 66.3481 25.5619C66.1747 25.4257 65.9721 25.3307 65.7552 25.3973C65.568 25.4716 65.4134 25.6548 65.369 25.856C65.2815 26.3091 65.6266 26.8112 65.8474 27.1766C66.1795 27.658 66.5723 28.1091 67.0034 28.5396C67.157 28.6351 67.4482 28.379 67.2536 28.2028Z" fill="#010101"/>
<path d="M67.975 32.3891C68.3786 32.5799 68.7426 32.7406 69.1478 32.9305C69.3397 33.0055 69.553 33.1204 69.725 33.2061C69.9063 33.2612 70.106 33.3064 70.284 33.2113C70.4805 33.1064 70.4645 32.8881 70.4384 32.6989C70.4236 32.5272 70.3493 32.3401 70.2548 32.2111C70.066 31.9056 69.7789 31.6525 69.4193 31.5921C69.0159 31.5018 68.5905 31.6028 68.2778 31.8704C68.2102 31.9321 68.215 32.0814 68.2867 32.1714C68.3698 32.2789 68.4786 32.2464 68.5862 32.1633C68.7719 32.0385 69.0296 31.9521 69.2493 31.9867C69.5088 32 69.7328 32.1348 69.8691 32.3421C69.9309 32.4097 69.9948 32.5294 70.038 32.6583C70.0691 32.7166 70.0598 32.7472 70.0534 32.8275C70.0534 32.8275 70.0353 32.9378 70.0654 32.8981L70.0455 32.9087C70.0255 32.9194 70.0149 32.8994 69.9552 32.88C69.8634 32.8521 69.8327 32.8428 69.7632 32.805C69.6218 32.7286 69.4291 32.6521 69.2862 32.5765C68.9038 32.4257 68.5491 32.2344 68.1852 32.0737C68.0827 32.0258 67.9831 32.0277 67.8969 32.1507C67.8692 32.1912 67.8818 32.3107 67.975 32.3891Z" fill="#010101"/>
<path d="M72.3613 26.6962C71.3944 26.4 70.6164 25.7483 70.0834 24.8909C70.0547 24.9812 70.0284 25.0722 70.0005 25.164C70.6132 24.9373 71.2608 25.2523 71.6336 25.714C72.1201 26.2925 72.3202 27.0476 72.4707 27.7543C72.5996 27.7111 72.7177 27.648 72.8373 27.6354C72.4796 27.0138 72.2095 26.3197 72.1801 25.5997C72.1691 25.2505 72.1881 24.8576 72.2477 24.4964C72.3179 24.1551 72.4211 23.5911 72.757 23.463C73.0424 23.3362 73.4588 23.5951 73.5965 23.853C73.7653 24.1691 73.6765 24.5716 73.5864 24.9236C73.3187 25.6523 72.8895 26.3629 72.4078 26.9752C72.5195 26.9924 72.6497 26.9998 72.7387 26.978C72.5917 26.7508 73.2533 26.1429 73.3787 26.001C73.5711 25.7444 73.804 25.5194 74.056 25.2822C74.4749 24.881 75.2572 23.9819 75.7397 24.7894C76.1278 25.4717 75.4477 26.0894 74.8847 26.3131C74.2243 26.5909 73.4709 26.7388 72.7679 26.9367C72.8111 27.0656 72.8343 27.205 72.8676 27.3155C73.6888 27.0544 74.5487 27.1021 75.3192 27.5033C75.664 27.6762 75.9694 27.9194 76.277 28.2108C76.5363 28.5043 76.9595 29.016 76.8416 29.4084C76.6958 29.8926 75.9134 29.8015 75.5338 29.7518C75.0921 29.6819 74.6592 29.5324 74.254 29.3425C73.4635 28.952 72.8172 28.3069 72.4441 27.516C72.3381 27.5982 72.2199 27.6614 72.1422 27.7522C72.6072 28.3422 73.095 28.9712 73.4064 29.6946C73.5651 30.0398 73.689 30.5082 73.5712 30.9005C73.4526 31.2953 73.1214 31.5727 72.7083 31.464C71.9546 31.2826 71.8305 30.4336 71.8812 29.7714C71.9397 29.0794 72.2217 28.4218 72.5639 27.8327C72.6773 27.6203 72.4214 27.4255 72.2569 27.5903C71.7507 28.0126 71.1584 28.2776 70.5424 28.3541C69.9946 28.4179 68.7835 28.2776 69.1475 27.3968C69.7475 26.0605 71.634 27.4654 72.5106 27.7329C72.7822 27.8167 72.8617 27.4448 72.6285 27.3406C71.7918 27.0517 71.0166 26.4498 70.087 26.4118C69.4284 26.4085 68.7235 26.8875 68.6933 27.588C68.6752 28.3592 69.4757 28.7206 70.1344 28.7239C71.0219 28.7312 71.8504 28.3913 72.544 27.8434C72.4225 27.7563 72.3386 27.6473 72.237 27.601C71.7401 28.3733 71.4286 29.3523 71.4773 30.2929C71.5373 31.0222 71.9901 31.8219 72.8193 31.8603C73.68 31.9095 74.0823 31.0082 73.9917 30.2696C73.8317 29.213 73.0355 28.291 72.4228 27.4761C72.2986 27.2879 72.016 27.5158 72.1217 27.7138C72.6181 28.6914 73.4388 29.4228 74.429 29.8586C75.1364 30.1416 76.8861 30.6293 77.2681 29.6382C77.6121 28.768 76.4826 27.6946 75.8529 27.3208C74.9397 26.7927 73.8657 26.6285 72.8773 26.9532C72.6303 27.0595 72.7111 27.3991 72.9786 27.3312C73.91 27.0882 75.1428 26.9367 75.8516 26.2287C76.3842 25.7155 76.5882 24.8195 75.9438 24.274C75.207 23.6517 74.3916 24.4442 73.9071 24.9554C73.5489 25.3262 73.1715 25.7053 72.8926 26.1324C72.6818 26.3988 72.2844 26.7886 72.5427 27.1319C72.6165 27.2701 72.8079 27.296 72.8728 27.1332C73.4187 26.3603 74.1 25.4126 74.2124 24.4373C74.3009 23.7056 73.7778 22.8665 72.9811 22.937C72.126 23.0386 71.9607 24.2434 71.9206 24.9255C71.8687 25.9178 72.1263 26.873 72.5996 27.7111C72.7053 27.9091 73.012 27.8222 72.9661 27.5923C72.7511 26.7169 72.4934 25.7617 71.8072 25.138C71.2652 24.6917 70.5698 24.4792 69.8979 24.7355C69.8196 24.7773 69.764 24.9096 69.8165 25.0078C70.392 25.9451 71.2717 26.643 72.3494 27.0064C72.5135 27.1732 72.6329 26.78 72.3613 26.6962Z" fill="#010101"/>
<mask id="mask2_1461_12734" style="mask-type:luminance" maskUnits="userSpaceOnUse" x="70" y="-1" width="15" height="16">
<path d="M70.1338 4.71875L78.974 -0.00255676L84.4298 10.2129L75.5895 14.9342L70.1338 4.71875Z" fill="white"/>
</mask>
<g mask="url(#mask2_1461_12734)">
<path d="M76.7762 7.13826C75.8887 7.13099 75.0325 6.90181 74.2606 6.45007C73.5819 6.07678 72.7669 5.49621 72.652 4.66797C72.5582 4.15986 72.8773 3.81189 73.3732 3.69892C73.8301 3.6088 74.2635 3.80731 74.6025 4.10956C75.2993 4.75325 75.7995 5.78208 75.9376 6.74981C76.0656 6.70512 76.2035 6.68273 76.3124 6.65022C76.1421 5.90286 76.0379 5.09457 76.056 4.32346C76.0463 3.64417 76.0636 2.49089 76.8628 2.19229C77.9608 1.83273 77.6982 3.4721 77.546 4.03664C77.3271 4.81237 77.0091 5.49113 76.6083 6.16276C76.73 6.19841 76.8514 6.28544 76.9922 6.31279C77.3362 5.44263 77.8318 4.61977 78.5517 3.9808C79.2127 3.37533 80.2657 3.16798 80.7523 4.12713C81.1438 4.90824 80.6989 5.72974 80.0233 6.16746C79.2288 6.66677 78.2174 6.57175 77.382 6.33345C77.3655 6.44287 77.3696 6.59455 77.353 6.70397C78.1391 6.61356 78.9756 6.57316 79.703 6.8455C80.4793 7.11731 81.1996 7.8491 81.2147 8.73063C81.2422 10.0119 79.6984 9.10845 79.1782 8.75114C78.4364 8.25967 77.829 7.64316 77.3193 6.92517C77.2043 6.75779 76.9096 6.91517 76.9847 7.10385C77.3473 8.25548 78.268 9.03404 78.8771 10.0304C79.1708 10.5323 79.4481 11.1476 79.2965 11.7612C79.1877 12.1743 78.7329 12.9774 78.2068 12.7494C77.8229 12.5994 77.4765 12.0467 77.2487 11.7127C77.0173 11.3274 76.8266 10.9223 76.6828 10.4646C76.4366 9.53087 76.4877 8.53703 76.8816 7.66786C76.7607 7.62985 76.61 7.58409 76.4891 7.54608C76.3998 8.28018 76.4229 9.08054 76.1837 9.76652C75.9166 10.5443 75.1692 10.9435 74.4173 10.4811C73.777 10.0873 73.6237 9.27957 73.8551 8.62338C74.1499 7.80514 74.9053 7.32479 75.7279 7.1143C75.9947 7.04874 75.895 6.67001 75.6266 6.73638C74.6761 6.99157 73.7356 7.59443 73.4241 8.57348C73.1677 9.37123 73.3641 10.3078 74.0577 10.8014C74.73 11.255 75.6561 11.1904 76.1562 10.5682C76.8024 9.79113 76.7281 8.56248 76.8389 7.58805C76.845 7.4073 76.5413 7.31505 76.4473 7.46781C75.9763 8.48072 75.9199 9.65296 76.2407 10.7263C76.405 11.2224 76.6306 11.7371 76.9315 12.1602C77.0785 12.3875 77.2737 12.6126 77.4883 12.7781C77.6433 12.9242 77.8904 13.1985 78.081 13.223C78.5432 13.3312 79.0388 12.889 79.2996 12.5722C79.5868 12.1643 79.7014 11.6218 79.6067 11.1122C79.37 9.48702 77.7459 8.57714 77.2935 7.06519C77.1753 7.12831 77.0571 7.19142 76.9589 7.24388C77.6462 8.19841 78.5675 9.02599 79.611 9.56149C80.3111 9.92331 81.4021 10.0271 81.543 9.01292C81.6645 8.05845 80.9892 7.17443 80.1691 6.72477C79.2457 6.22573 78.188 6.23238 77.1735 6.36786C76.9659 6.4038 76.9939 6.69261 77.1446 6.73838C78.2218 7.05269 79.411 7.104 80.3381 6.38007C81.09 5.80095 81.4399 4.80142 81.0057 3.9405C80.5511 3.04121 79.5264 2.82513 78.6914 3.29672C77.6599 3.87323 76.9355 5.07276 76.5194 6.18462C76.4551 6.39652 76.7777 6.52795 76.9033 6.33464C77.4571 5.48063 77.8882 4.48903 78.0588 3.48264C78.1771 2.75866 77.9866 1.6927 77.0184 1.72652C76.1322 1.7698 75.7887 2.68899 75.6611 3.44358C75.5537 4.51678 75.6155 5.6259 75.9056 6.68996C75.972 6.95828 76.3292 6.87005 76.2805 6.59036C76.0885 5.47384 75.4511 4.0883 74.4753 3.49104C73.7333 3.05095 72.5196 3.19023 72.2467 4.0974C71.9745 5.00611 72.7976 5.88615 73.5019 6.39964C74.4383 7.06724 75.5973 7.43851 76.7452 7.46058C77.009 7.57413 77.0566 7.1424 76.7762 7.13826Z" fill="#010101"/>
</g>
<path d="M70.6951 18.0881C71.1881 17.9254 71.7021 17.7022 72.1781 17.5998C72.3253 17.5468 72.4954 17.5329 72.6304 17.6896C72.7042 17.8278 72.7074 17.9779 72.6311 18.1193C72.4435 18.5252 71.8559 18.5589 71.4675 18.5888C71.0379 18.5895 70.6077 18.5411 70.1548 18.4023C69.9216 18.298 69.8037 18.6904 70.0354 18.7955C70.4392 18.9349 70.8809 19.0047 71.3106 19.0041C71.7379 19.0027 72.1869 18.9423 72.5585 18.6926C72.9208 18.4735 73.1404 18.1274 73.0378 17.6989C72.9773 17.3012 72.6119 17.09 72.195 17.1588C71.9169 17.2068 71.7005 17.3223 71.4122 17.3994C71.1263 17.4771 70.8593 17.594 70.5526 17.6809C70.3362 17.7965 70.4374 18.1744 70.6951 18.0881Z" fill="#010101"/>
<path d="M71.7482 14.4768C71.4111 13.8935 71.067 13.3416 70.7399 12.7292C70.4773 12.2855 70.1018 11.7227 70.2455 11.1903C70.3362 10.8874 70.7658 10.5061 71.0819 10.7693C71.5414 11.1571 71.076 11.9402 71.0497 12.4118C70.9777 13.0341 71.2052 13.6484 71.6193 14.1394C71.8038 14.3446 72.0859 14.0676 71.9112 13.8809C71.4674 13.3822 71.3573 12.7032 71.5182 12.0591C71.652 11.5044 71.8203 10.73 71.2111 10.3945C70.754 10.1554 70.2429 10.4284 70.0156 10.8042C69.7006 11.3038 69.8881 11.9394 70.1428 12.4642C70.5436 13.2147 71.0149 13.9532 71.4235 14.6739C71.5505 14.9118 71.925 14.7118 71.7482 14.4768Z" fill="#010101"/>
<path d="M61.0444 43.353C61.4254 43.4533 61.6435 43.7175 61.8707 44.0025C62.1817 44.3966 62.4522 44.7591 62.7425 45.1623C63.2445 45.9101 63.7356 46.6893 64.1378 47.4903C64.2648 47.7282 64.5994 47.5495 64.4723 47.3116C63.9977 46.423 63.4925 45.5251 62.899 44.698C62.6087 44.2948 62.3382 43.9324 62.0484 43.5782C61.8212 43.2932 61.5236 43.0202 61.1431 42.9689C60.9418 42.9245 60.8126 43.2993 61.0444 43.353Z" fill="#010101"/>
<path d="M60.0805 42.1682C60.4857 42.3582 60.8247 42.6604 60.9954 43.0762C61.2083 43.5227 61.2273 44.1714 60.8185 44.5435C60.2923 44.9765 59.7626 44.2691 59.6587 43.7901C59.5542 43.262 59.6062 42.6504 59.7307 42.1263C59.6091 42.0906 59.4605 42.0931 59.3282 42.0375C59.3837 42.5661 59.4298 43.1253 59.1845 43.6114C58.9969 44.0173 58.4182 44.352 58.0082 44.0127C57.5678 43.6128 57.7843 42.8364 58.053 42.4384C58.3197 41.9922 58.7895 41.69 59.3161 41.5863C59.5245 41.5519 59.4957 41.2616 59.345 41.2158C58.8189 40.9879 58.246 40.8126 57.747 40.4951C57.3099 40.2454 56.8356 39.686 57.1179 39.1288C57.488 38.4479 58.2874 39.1394 58.5471 39.5333C58.8523 40.0568 59.1274 40.6199 59.382 41.1447C59.5091 41.3826 59.8437 41.2039 59.7166 40.9661C59.4912 40.4 59.078 39.9106 58.7927 39.3765C58.4643 38.7136 58.7128 37.997 59.3309 37.5919C60.0847 37.1124 60.4776 37.9441 60.286 38.5789C60.1259 39.2247 59.601 39.7081 59.4401 40.3523C59.3758 40.5642 59.6707 40.7361 59.824 40.5024C60.0694 40.0163 60.3517 39.4591 60.8415 39.1463C61.2253 38.9157 61.8528 38.8606 62.143 39.2638C62.4455 39.6862 62.1217 40.2654 61.7395 40.4952C61.239 40.7881 60.6494 40.7736 60.1017 40.786C60.105 40.9362 60.1482 41.065 60.1325 41.1759C60.7067 41.0212 61.3403 41.166 61.7714 41.5966C61.9546 41.7512 62.2339 42.0341 62.2505 42.3053C62.2708 42.6239 61.5397 42.533 61.347 42.4565C60.9218 42.2772 60.6885 41.7923 60.4288 41.3984C60.1583 41.0359 59.8499 40.743 59.399 40.7037C59.1287 40.6705 59.1211 41.0809 59.3913 41.1141C60.0129 41.1885 60.3169 42.042 60.699 42.4731C60.8942 42.6983 61.1594 42.8624 61.4403 42.9155C61.7717 42.9673 62.2304 42.9768 62.5038 42.7795C63.0428 42.4147 62.258 41.5142 61.9419 41.2511C61.4004 40.8538 60.6773 40.6818 60.0326 40.8486C59.8042 40.8936 59.8442 41.253 60.0648 41.2377C60.7647 41.2703 61.6012 41.2299 62.1766 40.745C62.6238 40.3523 62.8537 39.697 62.5295 39.1343C62.235 38.6309 61.5431 38.5171 60.9873 38.6621C60.2259 38.8911 59.818 39.6416 59.4878 40.3012C59.6079 40.3377 59.7316 40.4254 59.8717 40.4513C60.077 39.6058 60.8276 38.9762 60.7904 38.0571C60.7402 37.3462 60.1355 36.8308 59.4354 37.0785C58.7435 37.3454 58.1876 38.1512 58.2493 38.8797C58.3533 39.7394 59.0823 40.3915 59.382 41.1447C59.5002 41.0816 59.6184 41.0185 59.7166 40.9661C59.4846 40.5317 59.2825 40.1051 59.0505 39.6708C58.871 39.3347 58.6816 38.9802 58.3747 38.7378C57.9143 38.3485 57.1747 38.2859 56.7989 38.8159C56.4455 39.3361 56.6253 40.0014 57.0258 40.4227C57.5911 41.0084 58.4673 41.2269 59.1944 41.5507C59.2117 41.4389 59.2069 41.2896 59.2241 41.1778C58.5382 41.3153 57.9145 41.8023 57.5829 42.4113C57.3089 42.9877 57.1954 43.861 57.7979 44.3282C58.2974 44.6946 58.9017 44.5001 59.2991 44.1104C59.8425 43.5657 59.8088 42.7453 59.7379 42.0475C59.7226 41.8268 59.4005 41.7444 59.3361 41.9563C59.1673 42.6816 59.0644 43.5749 59.4141 44.2777C59.6679 44.801 60.3197 45.2163 60.9091 44.9015C61.4785 44.5974 61.5983 43.8726 61.5002 43.2642C61.371 42.5975 60.9151 42.0283 60.2995 41.7732C60.0684 41.7171 59.8595 42.0831 60.0805 42.1682Z" fill="#010101"/>
<path d="M79.9894 45.757C79.1447 45.5493 78.3113 45.3592 77.4658 45.15C77.084 45.0481 76.7001 44.8981 76.3947 44.6549C76.0565 44.3542 75.8543 43.9276 75.6714 43.4927C75.6243 43.5929 75.5979 43.6839 75.5317 43.7962C76.2161 43.6595 76.8748 44.0434 77.3765 44.4619C78.06 44.9845 78.7549 45.5286 79.4384 46.0512C79.6117 46.1875 79.785 45.9431 79.7312 45.7943C79.1265 44.2374 79.3154 42.4599 80.2128 41.0673C80.1545 41.0985 80.0961 41.1296 80.0363 41.1616C81.094 41.1549 80.7641 42.5245 80.5215 43.1117C80.1775 43.9818 79.822 44.8305 79.5179 45.6794C79.638 45.7158 79.7881 45.7126 79.9189 45.769C79.9491 45.0684 80.2316 44.4599 80.6457 43.9093C80.8565 43.6429 81.0881 43.3673 81.3609 43.121C81.5852 42.9243 81.9599 42.444 82.2296 42.4282C82.4479 42.4122 83.3593 42.8408 83.2984 43.1514C83.2825 43.3138 82.9095 43.5129 82.7821 43.6067C82.5955 43.73 82.4403 43.8642 82.2545 43.989C81.5303 44.5277 80.7444 44.9474 79.9062 45.2688C79.6975 45.3546 79.8174 45.6713 80.0258 45.6369C80.8013 45.5265 81.5928 45.6384 82.3406 45.9491C82.7245 46.0991 83.0898 46.3103 83.3953 46.5536C83.6512 46.7483 84.1102 47.087 84.2484 47.3939C84.3909 47.801 83.4075 47.6142 83.2169 47.5897C82.7552 47.5305 82.3037 47.4423 81.8894 47.2316C81.4735 47.0217 81.1633 46.6291 80.8337 46.2963C80.4835 45.9251 80.144 45.5738 79.8138 45.1919C79.7055 45.2734 79.6086 45.3765 79.5211 45.4489C80.6862 46.4007 81.5059 47.7914 81.7286 49.2979C81.756 49.5377 81.7484 49.9481 81.3552 49.8287C81.0836 49.7449 80.9944 49.4375 80.9656 49.1471C80.8963 48.8291 80.8855 48.4285 80.8056 48.0905C80.6922 47.2614 80.588 46.4531 80.4861 45.6455C80.3573 45.6887 80.2178 45.7119 80.1089 45.7444C80.379 46.4385 80.2208 47.1838 80.0106 47.8799C79.8377 48.4536 79.4938 49.7044 78.6498 49.4943C77.6842 49.2486 78.5818 47.8047 78.9089 47.3755C79.4169 46.6722 80.0493 46.1057 80.755 45.6282C80.9791 45.4828 80.789 45.1268 80.5755 45.2921C79.6543 45.8866 78.8486 46.6976 78.2967 47.6512C77.9068 48.2914 77.5309 49.4824 78.4915 49.859C79.3602 50.2077 80.0136 49.3518 80.2714 48.6046C80.6141 47.6839 80.9328 46.626 80.5849 45.6421C80.4786 45.3951 80.1597 45.4628 80.2085 45.7425C80.3421 46.8902 80.4451 48.0286 80.6583 49.185C80.7197 49.5842 80.8598 49.9907 81.2544 50.1606C81.4982 50.2849 81.8667 50.2656 82.0796 50.0513C82.3517 49.8034 82.2698 49.3658 82.2104 49.0662C82.1379 48.598 82.0033 48.1097 81.7913 47.6647C81.363 46.6744 80.7412 45.8387 79.9525 45.1672C79.7693 45.0125 79.4858 45.2389 79.6605 45.4257C80.473 46.2857 81.2461 47.4489 82.4249 47.8095C82.939 47.967 83.5285 48.0328 84.0385 48.0386C84.3479 48.0528 84.7948 47.9404 84.8642 47.5976C84.9238 47.2364 84.4818 46.8373 84.256 46.6028C83.8874 46.2414 83.4673 45.9312 82.9726 45.7141C82.0812 45.2749 81.0786 45.1003 80.084 45.2251C80.1272 45.354 80.1903 45.4721 80.2052 45.5924C81.2905 45.1647 82.3191 44.5384 83.1971 43.815C83.4407 43.61 83.9027 43.3376 83.7802 42.9197C83.6585 42.5035 83.0522 42.2177 82.6781 42.0861C82.2239 41.8967 81.9383 42.0749 81.5881 42.3645C81.2583 42.6925 80.908 42.9822 80.5894 43.3792C80.0302 44.0348 79.6024 44.7959 79.5884 45.6673C79.5653 45.9085 79.9045 45.9305 79.9894 45.757C80.2421 45.1407 80.4819 44.5037 80.7346 43.8875C80.9209 43.431 81.1755 42.9143 81.2502 42.3931C81.3382 41.989 81.2855 41.5616 81.0263 41.2167C80.8588 40.9511 80.4602 40.6294 80.1038 40.7192C79.7956 40.8069 79.5942 41.4233 79.4744 41.7161C79.2967 42.1405 79.1509 42.6247 79.114 43.0763C78.9824 44.0599 79.1006 45.0383 79.4855 45.9511C79.593 45.8681 79.6899 45.765 79.7775 45.6926C79.0208 45.0809 78.235 44.4591 77.4306 43.8985C76.8699 43.5134 76.2437 43.2384 75.55 43.4057C75.4211 43.4489 75.3448 43.5902 75.4079 43.7084C75.7618 44.5116 76.1677 45.1312 77.0266 45.4615C77.9435 45.8081 78.9869 45.963 79.9019 46.21C80.1026 46.2054 80.241 45.8514 79.9894 45.757Z" fill="#010101"/>
<path d="M29.4954 51.4153C30.3994 50.9325 29.6396 49.5098 28.7356 49.9926C27.8101 50.4868 28.57 51.9096 29.4954 51.4153Z" fill="#010101"/>
<path d="M27.926 60.3575C28.83 59.8748 28.0702 58.452 27.1662 58.9348C26.2316 59.4083 27.0021 60.851 27.926 60.3575Z" fill="#010101"/>
<path d="M19.638 69.9122C20.542 69.4294 19.7822 68.0067 18.8782 68.4895C17.9742 68.9723 18.734 70.395 19.638 69.9122Z" fill="#010101"/>
<path d="M41.5825 63.1186C42.4865 62.6358 41.7267 61.2131 40.8227 61.6959C39.9172 62.1795 40.677 63.6022 41.5825 63.1186Z" fill="#010101"/>
<path d="M49.3573 53.0763C50.2612 52.5935 49.5014 51.1707 48.5974 51.6535C47.6934 52.1363 48.4533 53.5591 49.3573 53.0763Z" fill="#010101"/>
<path d="M57.5768 88.0993C58.4808 87.6165 57.7209 86.1938 56.8169 86.6766C55.9008 87.1402 56.6713 88.5829 57.5768 88.0993Z" fill="#010101"/>
<path d="M80.354 46.2986C81.2595 45.815 80.4997 44.3922 79.5941 44.8758C78.6503 45.3799 79.4101 46.8027 80.354 46.2986Z" fill="#010101"/>
<path d="M73.4542 27.9394C74.3598 27.4558 73.5999 26.033 72.6944 26.5166C71.7705 27.0101 72.5303 28.4328 73.4542 27.9394Z" fill="#010101"/>
<path d="M77.2073 7.57261C78.1128 7.08901 77.353 5.66628 76.4475 6.14989C75.5051 6.65316 76.265 8.07589 77.2073 7.57261Z" fill="#010101"/>
<path d="M52.2782 24.3419C53.1837 23.8583 52.4238 22.4356 51.5183 22.9192C50.6143 23.4019 51.3742 24.8247 52.2782 24.3419Z" fill="#010101"/>
<path d="M41.9708 33.7555C42.8748 33.2728 42.115 31.85 41.211 32.3328C40.2948 32.7965 41.0653 34.2391 41.9708 33.7555Z" fill="#010101"/>
<path d="M60.4614 41.5053C61.3654 41.0226 60.6056 39.5998 59.7016 40.0826C58.7961 40.5662 59.5559 41.9889 60.4614 41.5053Z" fill="#010101"/>
</svg>
