<svg xmlns="http://www.w3.org/2000/svg" width="17.455" height="16.784" viewBox="0 0 17.455 16.784"><defs><style>.a{fill:#008cdc;}</style></defs><path class="a" d="M16.131,3.938h-.042A4.774,4.774,0,0,0,12.1,6.119,4.774,4.774,0,0,0,8.116,3.938H8.074a4.744,4.744,0,0,0-4.7,4.741,10.214,10.214,0,0,0,2.006,5.568A35.148,35.148,0,0,0,12.1,20.721a35.148,35.148,0,0,0,6.722-6.474A10.214,10.214,0,0,0,20.83,8.679,4.744,4.744,0,0,0,16.131,3.938Zm1.746,9.617a32.183,32.183,0,0,1-5.774,5.69A32.231,32.231,0,0,1,6.329,13.55,9.052,9.052,0,0,1,4.55,8.679,3.56,3.56,0,0,1,8.083,5.117h.038a3.518,3.518,0,0,1,1.725.453,3.666,3.666,0,0,1,1.276,1.2,1.179,1.179,0,0,0,1.972,0,3.7,3.7,0,0,1,1.276-1.2,3.518,3.518,0,0,1,1.725-.453h.038a3.56,3.56,0,0,1,3.533,3.562A9.167,9.167,0,0,1,17.876,13.555Z" transform="translate(-3.375 -3.938)"/></svg>