<svg xmlns="http://www.w3.org/2000/svg" width="22.217" height="21.362" viewBox="0 0 22.217 21.362"><defs><style>.a{fill:#0a2540;}</style></defs><path class="a" d="M19.61,3.938h-.053a6.077,6.077,0,0,0-5.074,2.777A6.077,6.077,0,0,0,9.41,3.938H9.356A6.038,6.038,0,0,0,3.375,9.972a13,13,0,0,0,2.553,7.087A44.736,44.736,0,0,0,14.483,25.3a44.736,44.736,0,0,0,8.556-8.241,13,13,0,0,0,2.553-7.087A6.038,6.038,0,0,0,19.61,3.938Zm2.222,12.241a40.962,40.962,0,0,1-7.349,7.242,41.023,41.023,0,0,1-7.349-7.247,11.521,11.521,0,0,1-2.264-6.2,4.531,4.531,0,0,1,4.5-4.534h.048a4.477,4.477,0,0,1,2.195.577,4.667,4.667,0,0,1,1.624,1.522,1.5,1.5,0,0,0,2.51,0,4.713,4.713,0,0,1,1.624-1.522,4.477,4.477,0,0,1,2.195-.577h.048a4.531,4.531,0,0,1,4.5,4.534A11.667,11.667,0,0,1,21.832,16.178Z" transform="translate(-3.375 -3.938)"/></svg>