<svg xmlns="http://www.w3.org/2000/svg" width="19" height="19" viewBox="0 0 19.403 19.403"><defs><style>.a{fill:#fff;}</style></defs><path class="a" d="M1.767.175a2.307,2.307,0,0,0-1.062.6A2.135,2.135,0,0,0,.117,1.79C.049,2.059.045,2.313.045,9.8c0,8.413-.015,7.95.2,8.424a2.263,2.263,0,0,0,1.1,1.1c.489.216.011.2,8.489.193l7.81-.008.243-.083a2.3,2.3,0,0,0,1.456-1.456l.083-.243.008-7.81c.011-8.674.03-8.026-.246-8.587a2.252,2.252,0,0,0-.959-.959C17.682.1,18.312.115,9.728.118,3.166.122,1.96.13,1.767.175ZM16.879,2.484c.311.22.318.243.33,1.687.011,1.407,0,1.479-.227,1.7-.209.2-.307.216-1.68.212l-1.251,0-.171-.091a.932.932,0,0,1-.281-.265l-.114-.167,0-1.255c0-.686.011-1.312.03-1.384a.708.708,0,0,1,.387-.478l.19-.095,1.316.011,1.312.011ZM10.5,6.165a3.763,3.763,0,0,1,2.9,2.919,4.631,4.631,0,0,1,.042,1.232,3.819,3.819,0,0,1-1.945,2.79,4.068,4.068,0,0,1-1,.372c-.072.008-.224.03-.337.049A3.745,3.745,0,0,1,6.782,12.08a3.709,3.709,0,0,1,.072-4.606,3.78,3.78,0,0,1,2.5-1.361A3.957,3.957,0,0,1,10.5,6.165ZM3.9,8.626a6.017,6.017,0,0,0,.5,3.848,5.577,5.577,0,0,0,1.134,1.558,5.913,5.913,0,0,0,5.16,1.683,6.006,6.006,0,0,0,4.83-4.4,5.888,5.888,0,0,0,.155-2.123,4.174,4.174,0,0,0-.155-.819c-.011-.019-.008-.034.011-.038.144-.015,1.619-.011,1.645.008s.03,1.695.027,4.231L17.2,16.789l-.114.163a.947.947,0,0,1-.284.25l-.171.087-6.923-.011L2.786,17.27l-.155-.1a1,1,0,0,1-.243-.246L2.3,16.777l-.011-4.189c0-2.305,0-4.2.008-4.227a4.08,4.08,0,0,1,.845-.038h.83Z" transform="translate(-0.044 -0.117)"/></svg>