<svg xmlns="http://www.w3.org/2000/svg" width="26" height="26" viewBox="0 0 26 26"><defs><style>.a{fill:#3d7fae;}.b{fill:#cb2126;}.c{fill:#f8971f;}.d{fill:#f5f4f4;}</style></defs><g transform="translate(-2179 -4095)"><g transform="translate(2179 4095)"><rect class="a" width="26" height="26" rx="3"/><circle class="a" cx="13" cy="13" r="13" transform="translate(0 0)"/><path class="b" d="M58.407,121.955a7.18,7.18,0,1,0,4.866,12.489h0a7.207,7.207,0,0,0,.728-.769H62.534a6.947,6.947,0,0,1-.534-.74h2.531a7.179,7.179,0,0,0,.418-.768H61.582a6.993,6.993,0,0,1-.3-.754h3.966a7.165,7.165,0,0,0,.369-2.277,7.244,7.244,0,0,0-.165-1.538h-4.38a7.311,7.311,0,0,1,.2-.754h3.968a7.2,7.2,0,0,0-.309-.769H61.582a6.929,6.929,0,0,1,.411-.754h2.53a7.135,7.135,0,0,0-.556-.768h-1.41a6.564,6.564,0,0,1,.718-.725,7.126,7.126,0,0,0-4.821-1.872Z" transform="translate(-50.463 -116.464)"/><path class="c" d="M211.707,129.137a7.165,7.165,0,1,1-14.329,0v0a7.165,7.165,0,1,1,14.329,0A.036.036,0,0,0,211.707,129.137Z" transform="translate(-186.942 -116.464)"/><path class="c" d="M211.707,130.349a7.165,7.165,0,1,1-14.329,0v0a7.165,7.165,0,1,1,14.329,0S211.707,130.347,211.707,130.349Z" transform="translate(-186.942 -117.596)"/><path class="b" d="M58.407,123.193a7.18,7.18,0,1,0,4.866,12.489h0a7.1,7.1,0,0,0,.728-.769H62.534a6.893,6.893,0,0,1-.534-.739h2.531a7.239,7.239,0,0,0,.418-.769H61.582a7.048,7.048,0,0,1-.3-.754h3.966a7.169,7.169,0,0,0,.369-2.277,7.241,7.241,0,0,0-.165-1.538h-4.38a7.311,7.311,0,0,1,.2-.754h3.968a7.206,7.206,0,0,0-.309-.769H61.582a6.991,6.991,0,0,1,.411-.754h2.53a7.265,7.265,0,0,0-.556-.769h-1.41a6.649,6.649,0,0,1,.718-.725,7.126,7.126,0,0,0-4.821-1.872Z" transform="translate(-50.463 -117.621)"/><g transform="translate(1.505 10.898)"><path class="d" d="M182.607,212.337l.1-.65c-.052,0-.129.022-.2.022-.265,0-.295-.141-.278-.246l.214-1.326h.4l.1-.719h-.38l.078-.447h-.763c-.017.017-.45,2.514-.45,2.818a.567.567,0,0,0,.608.648A2,2,0,0,0,182.607,212.337Z" transform="translate(-173.546 -208.654)"/><path class="d" d="M203.035,216.239a1.2,1.2,0,0,0,1.317,1.337,1.93,1.93,0,0,0,.806-.126l.135-.737a2.359,2.359,0,0,1-.81.189c-.819,0-.675-.612-.675-.612h1.551a5.542,5.542,0,0,0,.1-.7,1.024,1.024,0,0,0-1.088-1.117C203.6,214.475,203.035,215.3,203.035,216.239Zm1.338-1.08c.43,0,.351.485.351.524h-.847C203.877,215.633,203.957,215.159,204.373,215.159Z" transform="translate(-193.732 -213.795)"/><path class="d" d="M267.822,207.831l.137-.834a1.826,1.826,0,0,1-.631.189.757.757,0,0,1-.758-.859c0-.9.466-1.4.984-1.4a1.356,1.356,0,0,1,.7.219l.124-.809a2.727,2.727,0,0,0-.859-.188c-.881,0-1.738.765-1.738,2.2,0,.953.463,1.583,1.373,1.583A3.507,3.507,0,0,0,267.822,207.831Z" transform="translate(-252.351 -204.149)"/><path class="d" d="M115.455,214.654a2.635,2.635,0,0,0-.924.168l-.111.659a2.412,2.412,0,0,1,.831-.134c.284,0,.492.032.492.263a.492.492,0,0,1-.025.192s-.224-.019-.328-.019c-.659,0-1.353.282-1.353,1.133a.725.725,0,0,0,.736.824.991.991,0,0,0,.783-.351l-.025.292h.672l.3-2.106A.9.9,0,0,0,115.455,214.654Zm.164,1.714c.015.129-.081.732-.54.732a.279.279,0,0,1-.3-.289c0-.209.113-.46.673-.46A.5.5,0,0,1,115.619,216.368Z" transform="translate(-110.59 -213.963)"/><path class="d" d="M150.208,217.794c.172,0,1.154.044,1.154-.972,0-.95-.909-.762-.909-1.144,0-.189.148-.25.419-.25.108,0,.521.035.521.035l.1-.675a3.568,3.568,0,0,0-.7-.06c-.565,0-1.137.225-1.137,1,0,.876.955.788.955,1.156,0,.246-.267.266-.473.266a2.48,2.48,0,0,1-.677-.117l-.1.668A2.385,2.385,0,0,0,150.208,217.794Z" transform="translate(-143.58 -214.032)"/><path class="d" d="M361.848,205.422l-.164,1.023a1.008,1.008,0,0,0-.736-.4c-.7,0-1.282.844-1.282,1.815,0,.626.31,1.24.946,1.24a.952.952,0,0,0,.71-.319l-.033.273h.742l.583-3.635Zm-.354,2c0,.4-.2.942-.613.942-.275,0-.4-.231-.4-.593,0-.592.265-.984.6-.984C361.353,206.782,361.494,206.972,361.494,207.417Z" transform="translate(-340.059 -205.336)"/><path class="d" d="M62.354,209.047l.465-2.745.068,2.745h.526l.98-2.745-.434,2.745h.781l.6-3.639H64.133l-.752,2.233-.039-2.233H62.229l-.61,3.639Z" transform="translate(-61.619 -205.325)"/><path class="d" d="M240.33,218.184c.222-1.265.263-2.293.793-2.105a2.963,2.963,0,0,1,.283-.886.792.792,0,0,0-.147-.01c-.341,0-.594.468-.594.468l.067-.429h-.71l-.475,2.963Z" transform="translate(-227.842 -214.456)"/><path class="d" d="M303.418,214.654a2.633,2.633,0,0,0-.924.168l-.11.659a2.406,2.406,0,0,1,.831-.134c.284,0,.492.032.492.263a.488.488,0,0,1-.026.192s-.224-.019-.328-.019c-.66,0-1.352.282-1.352,1.133a.725.725,0,0,0,.736.824.989.989,0,0,0,.782-.351l-.025.292h.672l.3-2.106A.9.9,0,0,0,303.418,214.654Zm.164,1.714c.015.129-.08.732-.54.732a.278.278,0,0,1-.3-.289c0-.209.113-.46.672-.46A.5.5,0,0,1,303.582,216.368Z" transform="translate(-286.187 -213.963)"/><path class="d" d="M337.677,218.184c.222-1.265.263-2.293.794-2.105a2.945,2.945,0,0,1,.284-.886.8.8,0,0,0-.147-.01c-.342,0-.594.468-.594.468l.068-.429h-.711l-.476,2.963h.783Z" transform="translate(-318.785 -214.456)"/></g></g></g></svg>