<svg xmlns="http://www.w3.org/2000/svg" xmlns:xlink="http://www.w3.org/1999/xlink" width="26" height="26" viewBox="0 0 26 26">
  <defs>
    <clipPath id="clip-path1">
      <rect id="Rectangle_176" data-name="Rectangle 176" width="26" height="26" transform="translate(30 811)" fill="current" stroke="#707070" stroke-width="1"/>
    </clipPath>
  </defs>
  <g id="Mask_Group_48" data-name="Mask Group 48" transform="translate(-30 -811)" clip-path="url(#clip-path)">
    <g id="user" transform="translate(33.25 811)">
      <path id="Path_253" data-name="Path 253" d="M12.5,13A6.5,6.5,0,1,0,6,6.5,6.5,6.5,0,0,0,12.5,13Zm0-10.833A4.333,4.333,0,1,1,8.167,6.5,4.333,4.333,0,0,1,12.5,2.167Z" transform="translate(-2.75 0)" fill="current"/>
      <path id="Path_254" data-name="Path 254" d="M12.75,14A9.761,9.761,0,0,0,3,23.75a1.083,1.083,0,1,0,2.167,0,7.583,7.583,0,1,1,15.167,0,1.083,1.083,0,0,0,2.167,0A9.761,9.761,0,0,0,12.75,14Z" transform="translate(-3 1.167)" fill="current"/>
    </g>
  </g>
</svg>
