<svg xmlns="http://www.w3.org/2000/svg" xmlns:xlink="http://www.w3.org/1999/xlink" width="26" height="26" viewBox="0 0 26 26">
  <defs>
    <clipPath id="clip-path2">
      <rect id="Rectangle_170" data-name="Rectangle 170" width="26" height="26" transform="translate(100 273)" fill="current"/>
    </clipPath>
  </defs>
  <g id="Mask_Group_47" data-name="Mask Group 47" transform="translate(-100 -273)" clip-path="url(#clip-path)">
    <g id="box" transform="translate(100 273)">
      <path id="Path_251" data-name="Path 251" d="M11.083,17.167h6.5a1.083,1.083,0,1,0,0-2.167h-6.5a1.083,1.083,0,0,0,0,2.167Z" transform="translate(-1.333 -2)" fill="current"/>
      <path id="Path_252" data-name="Path 252" d="M20.583,0H5.417A5.423,5.423,0,0,0,0,5.417V6.5A3.25,3.25,0,0,0,1.083,8.92V20.583A5.423,5.423,0,0,0,6.5,26h13a5.423,5.423,0,0,0,5.417-5.417V8.92A3.25,3.25,0,0,0,26,6.5V5.417A5.423,5.423,0,0,0,20.583,0ZM2.167,5.417a3.25,3.25,0,0,1,3.25-3.25H20.583a3.25,3.25,0,0,1,3.25,3.25V6.5A1.083,1.083,0,0,1,22.75,7.583H3.25A1.083,1.083,0,0,1,2.167,6.5ZM22.75,20.583a3.25,3.25,0,0,1-3.25,3.25H6.5a3.25,3.25,0,0,1-3.25-3.25V9.75h19.5Z" fill="current"/>
    </g>
  </g>
</svg>
