<svg width="25" height="24" viewBox="0 0 25 24" fill="none" xmlns="http://www.w3.org/2000/svg">
<path fill-rule="evenodd" clip-rule="evenodd" d="M7.34794 16.157C9.2481 15.6676 12.2584 15.0751 15.8544 14.9983C17.3644 14.9652 18.3626 13.4231 17.737 12.0483L15.076 6.19899C14.1177 4.09257 12.2992 3.83279 11.2815 4.9507C8.85892 7.61267 6.43143 9.49336 4.81441 10.6035C3.76947 11.3205 3.65563 12.5708 4.18102 13.7247L4.57214 14.5857C5.0985 15.7426 6.11717 16.4742 7.34794 16.157Z" stroke="#959595" stroke-width="1.5" stroke-linecap="round" stroke-linejoin="round"/>
<path d="M12.1638 15.2529L13.5045 18.197C13.8908 19.0474 13.5162 20.0651 12.6512 20.4582C11.7941 20.8483 10.7803 20.463 10.393 19.6117L8.67773 15.8425" stroke="#959595" stroke-width="1.5" stroke-linecap="round" stroke-linejoin="round"/>
<path d="M6.38867 9.4873L7.71576 12.4052" stroke="#959595" stroke-width="1.5" stroke-linecap="round" stroke-linejoin="round"/>
<path d="M21.278 10.8268C21.9961 9.46663 22.0982 7.80096 21.4123 6.2929C20.7089 4.7469 19.337 3.71655 17.7939 3.38867" stroke="#959595" stroke-width="1.5" stroke-linecap="round" stroke-linejoin="round"/>
<path d="M19.0533 9.73196C19.3394 9.02171 19.3452 8.20055 19.0037 7.44846C18.671 6.71876 18.0736 6.1924 17.377 5.93359" stroke="#959595" stroke-width="1.5" stroke-linecap="round" stroke-linejoin="round"/>
</svg>
