<svg width="18" height="18" viewBox="0 0 18 18" fill="none" xmlns="http://www.w3.org/2000/svg">
<path fill-rule="evenodd" clip-rule="evenodd" d="M8.78246 0.166504C13.2575 0.166504 16.8975 3.8065 16.8975 8.2815C16.8975 10.3928 16.0872 12.3184 14.7613 13.7636L17.3703 16.3671C17.6145 16.6113 17.6153 17.0063 17.3711 17.2504C17.2495 17.3738 17.0886 17.4346 16.9286 17.4346C16.7695 17.4346 16.6095 17.3738 16.487 17.2521L13.8465 14.619C12.4575 15.7314 10.6964 16.3973 8.78246 16.3973C4.30746 16.3973 0.666626 12.7565 0.666626 8.2815C0.666626 3.8065 4.30746 0.166504 8.78246 0.166504ZM8.78246 1.4165C4.99663 1.4165 1.91663 4.49567 1.91663 8.2815C1.91663 12.0673 4.99663 15.1473 8.78246 15.1473C12.5675 15.1473 15.6475 12.0673 15.6475 8.2815C15.6475 4.49567 12.5675 1.4165 8.78246 1.4165Z" fill="white"/>
</svg>
