<svg xmlns="http://www.w3.org/2000/svg" width="16.613" height="15.949" viewBox="0 0 16.613 15.949"><defs><style>.a{fill:none;stroke:#fff;stroke-linecap:round;stroke-linejoin:round;stroke-width:2px;}</style></defs><g transform="translate(1 1)"><path class="a" d="M13.328,30.664A.664.664,0,1,1,12.664,30,.664.664,0,0,1,13.328,30.664Z" transform="translate(-7.35 -17.379)"/><path class="a" d="M29.828,30.664A.664.664,0,1,1,29.164,30,.664.664,0,0,1,29.828,30.664Z" transform="translate(-16.544 -17.379)"/><path class="a" d="M1.5,1.5H4.157l1.78,8.894a1.328,1.328,0,0,0,1.328,1.069h6.456a1.328,1.328,0,0,0,1.328-1.069l1.063-5.573H4.821" transform="translate(-1.5 -1.5)"/></g></svg>