<svg xmlns="http://www.w3.org/2000/svg" width="20.442" height="16.609" viewBox="0 0 20.442 16.609"><defs><style>.a{fill:#fff;}</style></defs><path class="a" d="M20.442,49.966a8.737,8.737,0,0,1-2.415.662,4.167,4.167,0,0,0,1.844-2.316,8.375,8.375,0,0,1-2.657,1.014,4.19,4.19,0,0,0-7.249,2.866,4.315,4.315,0,0,0,.1.956,11.862,11.862,0,0,1-8.638-4.384,4.192,4.192,0,0,0,1.288,5.6,4.138,4.138,0,0,1-1.893-.516v.046a4.21,4.21,0,0,0,3.358,4.118,4.183,4.183,0,0,1-1.1.138,3.706,3.706,0,0,1-.793-.072A4.231,4.231,0,0,0,6.2,61,8.421,8.421,0,0,1,1,62.786a7.848,7.848,0,0,1-1-.058,11.8,11.8,0,0,0,6.429,1.881A11.846,11.846,0,0,0,18.357,52.684c0-.185-.006-.364-.015-.542A8.36,8.36,0,0,0,20.442,49.966Z" transform="translate(0 -48)"/></svg>