<svg xmlns="http://www.w3.org/2000/svg" width="26" height="26" viewBox="0 0 26 26"><defs><style>.a{fill:#293789;}.b{fill:#f8971f;}.c{fill:#fff;}</style></defs><g transform="translate(-2217 -4095)"><g transform="translate(2216.99 4095)"><rect class="a" width="26" height="26" rx="3" transform="translate(0.01)"/><path class="b" d="M0,0H26a0,0,0,0,1,0,0V4a3,3,0,0,1-3,3H3A3,3,0,0,1,0,4V0A0,0,0,0,1,0,0Z" transform="translate(0.01 19)"/><rect class="c" width="26" height="12" transform="translate(0.01 7)"/><g transform="translate(4.329 9.526)"><path class="a" d="M175.483,181.247l.995-5.874h1.61l-.995,5.874Z" transform="translate(-170.176 -175.278)"/><path class="a" d="M226.074,173.894a4.182,4.182,0,0,0-1.444-.247c-1.592,0-2.713.8-2.722,1.938-.009.844.8,1.314,1.412,1.6.627.287.838.472.835.729,0,.394-.5.574-.964.574a3.4,3.4,0,0,1-1.516-.308l-.208-.094-.226,1.315a5.122,5.122,0,0,0,1.794.313c1.693,0,2.792-.787,2.8-2.007.006-.668-.423-1.177-1.352-1.6-.563-.271-.908-.453-.9-.728,0-.244.292-.505.922-.505a2.986,2.986,0,0,1,1.206.225l.144.068.219-1.273Z" transform="translate(-213.424 -173.647)"/><path class="a" d="M303.91,175.373a.8.8,0,0,0-.834.5l-2.387,5.374h1.705l.331-.9h2.037l.189.9h1.516l-1.326-5.874H303.91Zm-.732,3.8c.133-.338.641-1.642.641-1.642-.009.015.132-.34.214-.56l.109.506.373,1.7h-1.337Z" transform="translate(-288.513 -175.278)"/><path class="a" d="M81.109,179.4l-.142-.805a4.589,4.589,0,0,0-2.228-2.463l1.423,5.116h1.705l2.558-5.874H82.72Z" transform="translate(-78.739 -175.278)"/></g><path class="b" d="M46.823,175.373v.095a5.5,5.5,0,0,1,3.979,3.126l-.584-2.72a.692.692,0,0,0-.742-.5Z" transform="translate(-44.245 -165.753)"/></g></g></svg>