<svg xmlns="http://www.w3.org/2000/svg" xmlns:xlink="http://www.w3.org/1999/xlink" width="26" height="26" viewBox="0 0 26 26">
  <defs>
    <clipPath id="clip-path">
      <rect id="Rectangle_172" data-name="Rectangle 172" width="26" height="26" transform="translate(298 273)" fill="#019aa8"/>
    </clipPath>
  </defs>
  <g id="Mask_Group_46" data-name="Mask Group 46" transform="translate(-298 -273)" clip-path="url(#clip-path)">
    <g id="ticket_1_" data-name="ticket (1)" transform="translate(301.25 273)">
      <path id="Path_249" data-name="Path 249" d="M17.833,0h-.141a2.188,2.188,0,0,0-2.1,1.66,2.167,2.167,0,0,1-4.179,0A2.188,2.188,0,0,0,9.308,0H9.167A5.423,5.423,0,0,0,3.75,5.417V22.75A3.25,3.25,0,0,0,7,26H9.308a2.188,2.188,0,0,0,2.1-1.66,2.167,2.167,0,0,1,4.179,0,2.188,2.188,0,0,0,2.1,1.66H20a3.25,3.25,0,0,0,3.25-3.25V5.417A5.423,5.423,0,0,0,17.833,0ZM20,23.833l-2.322-.068a4.333,4.333,0,0,0-8.371.068H7A1.083,1.083,0,0,1,5.917,22.75V18.417H8.083a1.083,1.083,0,1,0,0-2.167H5.917V5.417a3.25,3.25,0,0,1,3.25-3.25l.155.068A4.344,4.344,0,0,0,13.5,5.417a4.41,4.41,0,0,0,4.217-3.25h.116a3.25,3.25,0,0,1,3.25,3.25V16.25H18.917a1.083,1.083,0,0,0,0,2.167h2.167V22.75A1.083,1.083,0,0,1,20,23.833Z" transform="translate(-3.75 0)" fill="#019aa8"/>
      <path id="Path_250" data-name="Path 250" d="M15.75,18.75H13.583a1.083,1.083,0,1,0,0,2.167H15.75a1.083,1.083,0,1,0,0-2.167Z" transform="translate(-4.917 -2.5)" fill="#019aa8"/>
    </g>
  </g>
</svg>
